<mxfile host="app.diagrams.net" modified="2022-10-25T13:34:05.046Z" agent="5.0 (Macintosh; Intel Mac OS X 10_15_7) AppleWebKit/537.36 (KHTML, like Gecko) Chrome/106.0.0.0 Safari/537.36" etag="p5YuKp2sAoYZSf54PioQ" version="20.5.1" type="github">
  <diagram id="Hh6awoEPq2k9VOoeY9uw" name="Page">
    <mxGraphModel dx="945" dy="1718" grid="1" gridSize="10" guides="1" tooltips="1" connect="1" arrows="1" fold="1" page="1" pageScale="1" pageWidth="850" pageHeight="1100" math="0" shadow="0">
      <root>
        <mxCell id="0" />
        <mxCell id="1" parent="0" />
        <mxCell id="bClpd55n1A1ZBGnzMknM-2" value="User Page" style="strokeWidth=1;shadow=0;dashed=0;align=center;html=1;shape=mxgraph.mockup.containers.window;align=left;verticalAlign=top;spacingLeft=8;strokeColor2=#008cff;strokeColor3=#c4c4c4;mainText=;fontSize=17;labelBackgroundColor=none;fillColor=#ffe6cc;strokeColor=#d79b00;" vertex="1" parent="1">
          <mxGeometry width="850" height="710" as="geometry" />
        </mxCell>
        <mxCell id="bClpd55n1A1ZBGnzMknM-77" value="" style="rounded=0;whiteSpace=wrap;html=1;labelBackgroundColor=default;labelBorderColor=default;strokeColor=default;fontSize=30;fontColor=#000000;fillColor=default;" vertex="1" parent="1">
          <mxGeometry y="570" width="850" height="140" as="geometry" />
        </mxCell>
        <mxCell id="bClpd55n1A1ZBGnzMknM-63" value="" style="rounded=0;whiteSpace=wrap;html=1;fontSize=30;fontStyle=1" vertex="1" parent="1">
          <mxGeometry x="60" y="150" width="730" height="310" as="geometry" />
        </mxCell>
        <mxCell id="bClpd55n1A1ZBGnzMknM-16" value="" style="html=1;shadow=0;dashed=0;fontSize=16;align=left;spacing=15;" vertex="1" parent="1">
          <mxGeometry y="30" width="850" height="60" as="geometry" />
        </mxCell>
        <mxCell id="bClpd55n1A1ZBGnzMknM-17" value="Home" style="fillColor=none;strokeColor=none;fontSize=14;fontColor=#161819;align=center;" vertex="1" parent="bClpd55n1A1ZBGnzMknM-16">
          <mxGeometry width="70" height="40" relative="1" as="geometry">
            <mxPoint x="20" y="10" as="offset" />
          </mxGeometry>
        </mxCell>
        <mxCell id="bClpd55n1A1ZBGnzMknM-18" value="Agenda" style="fillColor=none;strokeColor=none;fontSize=14;fontColor=#000000;align=center;" vertex="1" parent="bClpd55n1A1ZBGnzMknM-16">
          <mxGeometry width="70" height="40" relative="1" as="geometry">
            <mxPoint x="100" y="10" as="offset" />
          </mxGeometry>
        </mxCell>
        <mxCell id="bClpd55n1A1ZBGnzMknM-19" value="Calendar" style="fillColor=none;strokeColor=none;fontSize=14;fontColor=#000000;align=center;spacingRight=0;" vertex="1" parent="bClpd55n1A1ZBGnzMknM-16">
          <mxGeometry width="80" height="40" relative="1" as="geometry">
            <mxPoint x="180" y="10" as="offset" />
          </mxGeometry>
        </mxCell>
        <mxCell id="bClpd55n1A1ZBGnzMknM-25" value="" style="shape=image;html=1;verticalAlign=top;verticalLabelPosition=bottom;labelBackgroundColor=#ffffff;imageAspect=0;aspect=fixed;image=https://cdn0.iconfinder.com/data/icons/payment-76/512/user-128.png;strokeColor=#FF3333;fontColor=#FF3333;" vertex="1" parent="bClpd55n1A1ZBGnzMknM-16">
          <mxGeometry x="790" y="13" width="34" height="34" as="geometry" />
        </mxCell>
        <mxCell id="bClpd55n1A1ZBGnzMknM-87" value="About Plan" style="fillColor=none;strokeColor=none;fontSize=14;fontColor=#000000;align=center;spacingRight=0;" vertex="1" parent="bClpd55n1A1ZBGnzMknM-16">
          <mxGeometry width="80" height="40" relative="1" as="geometry">
            <mxPoint x="270" y="10" as="offset" />
          </mxGeometry>
        </mxCell>
        <mxCell id="bClpd55n1A1ZBGnzMknM-102" value="Reg" style="fillColor=none;strokeColor=none;fontSize=14;fontColor=#000000;align=center;" vertex="1" parent="bClpd55n1A1ZBGnzMknM-16">
          <mxGeometry width="70" height="40" relative="1" as="geometry">
            <mxPoint x="100" y="620" as="offset" />
          </mxGeometry>
        </mxCell>
        <mxCell id="bClpd55n1A1ZBGnzMknM-27" value="Lacturer Page" style="strokeWidth=1;shadow=0;dashed=0;align=center;html=1;shape=mxgraph.mockup.containers.window;align=left;verticalAlign=top;spacingLeft=8;strokeColor2=#008cff;strokeColor3=#c4c4c4;mainText=;fontSize=17;labelBackgroundColor=none;fillColor=#ffe6cc;strokeColor=#d79b00;" vertex="1" parent="1">
          <mxGeometry x="880" width="850" height="710" as="geometry" />
        </mxCell>
        <mxCell id="bClpd55n1A1ZBGnzMknM-28" value="" style="html=1;shadow=0;dashed=0;fontSize=16;align=left;spacing=15;fillColor=#FFFFFF;" vertex="1" parent="1">
          <mxGeometry x="880" y="30" width="850" height="63.66" as="geometry" />
        </mxCell>
        <mxCell id="bClpd55n1A1ZBGnzMknM-29" value="Home" style="fillColor=none;strokeColor=none;fontSize=14;fontColor=#161819;align=center;" vertex="1" parent="bClpd55n1A1ZBGnzMknM-28">
          <mxGeometry width="70" height="40" relative="1" as="geometry">
            <mxPoint x="20" y="10" as="offset" />
          </mxGeometry>
        </mxCell>
        <mxCell id="bClpd55n1A1ZBGnzMknM-30" value="Approve Agenda" style="fillColor=none;strokeColor=none;fontSize=14;fontColor=#000000;align=center;" vertex="1" parent="bClpd55n1A1ZBGnzMknM-28">
          <mxGeometry width="70" height="40" relative="1" as="geometry">
            <mxPoint x="130" y="10" as="offset" />
          </mxGeometry>
        </mxCell>
        <mxCell id="bClpd55n1A1ZBGnzMknM-43" value="" style="dashed=0;align=center;fontSize=12;shape=rect;shadow=1;" vertex="1" parent="bClpd55n1A1ZBGnzMknM-28">
          <mxGeometry x="240" y="10" width="120" height="53.66" as="geometry" />
        </mxCell>
        <mxCell id="bClpd55n1A1ZBGnzMknM-44" value="Calendar" style="shape=rect;verticalAlign=middle;spacingLeft=13;fontSize=14;align=left;resizeWidth=1;" vertex="1" parent="bClpd55n1A1ZBGnzMknM-43">
          <mxGeometry width="120" height="40" relative="1" as="geometry" />
        </mxCell>
        <mxCell id="bClpd55n1A1ZBGnzMknM-45" value="" style="dashed=0;html=1;shape=mxgraph.gmdl.triangle;fillColor=#cccccc;strokeColor=none;fontSize=30;fontColor=#000000;" vertex="1" parent="bClpd55n1A1ZBGnzMknM-44">
          <mxGeometry x="1" y="0.5" width="10" height="5" relative="1" as="geometry">
            <mxPoint x="-25" y="-2.5" as="offset" />
          </mxGeometry>
        </mxCell>
        <mxCell id="bClpd55n1A1ZBGnzMknM-46" value="set &amp;&amp; Share" style="shape=rect;align=left;verticalAlign=middle;spacingLeft=13;fontSize=14;resizeWidth=1;" vertex="1" parent="bClpd55n1A1ZBGnzMknM-43">
          <mxGeometry width="120" height="30" relative="1" as="geometry">
            <mxPoint y="40" as="offset" />
          </mxGeometry>
        </mxCell>
        <mxCell id="bClpd55n1A1ZBGnzMknM-47" value="calendar" style="text;verticalAlign=middle;spacingLeft=13;fontSize=14;resizeWidth=1;strokeColor=default;fillColor=default;" vertex="1" parent="bClpd55n1A1ZBGnzMknM-43">
          <mxGeometry width="120" height="30" relative="1" as="geometry">
            <mxPoint y="70" as="offset" />
          </mxGeometry>
        </mxCell>
        <mxCell id="bClpd55n1A1ZBGnzMknM-50" value="" style="shape=image;html=1;verticalAlign=top;verticalLabelPosition=bottom;labelBackgroundColor=#ffffff;imageAspect=0;aspect=fixed;image=https://cdn0.iconfinder.com/data/icons/payment-76/512/user-128.png;strokeColor=#FF3333;fontColor=#FF3333;" vertex="1" parent="bClpd55n1A1ZBGnzMknM-28">
          <mxGeometry x="790" y="14.83" width="34" height="34" as="geometry" />
        </mxCell>
        <mxCell id="bClpd55n1A1ZBGnzMknM-36" value="&lt;font style=&quot;font-size: 30px;&quot;&gt;User&lt;/font&gt;" style="html=1;shadow=0;dashed=0;shape=mxgraph.bootstrap.rrect;rSize=5;strokeColor=none;strokeWidth=1;fillColor=#343A40;fontColor=#ffffff;whiteSpace=wrap;align=center;verticalAlign=middle;spacingLeft=0;fontStyle=0;fontSize=16;spacing=5;" vertex="1" parent="1">
          <mxGeometry x="255" y="-120" width="340" height="90" as="geometry" />
        </mxCell>
        <mxCell id="bClpd55n1A1ZBGnzMknM-37" value="&lt;font style=&quot;font-size: 30px;&quot;&gt;lecturer&lt;/font&gt;" style="html=1;shadow=0;dashed=0;shape=mxgraph.bootstrap.rrect;rSize=5;strokeColor=none;strokeWidth=1;fillColor=#343A40;fontColor=#ffffff;whiteSpace=wrap;align=center;verticalAlign=middle;spacingLeft=0;fontStyle=0;fontSize=16;spacing=5;" vertex="1" parent="1">
          <mxGeometry x="1220" y="-120" width="340" height="90" as="geometry" />
        </mxCell>
        <mxCell id="bClpd55n1A1ZBGnzMknM-56" value="How" style="text;html=1;strokeColor=none;fillColor=none;align=center;verticalAlign=middle;whiteSpace=wrap;rounded=0;fontSize=30;fontColor=#000000;" vertex="1" parent="1">
          <mxGeometry x="390" y="210" width="60" height="30" as="geometry" />
        </mxCell>
        <mxCell id="bClpd55n1A1ZBGnzMknM-59" value="to" style="text;html=1;strokeColor=none;fillColor=none;align=center;verticalAlign=middle;whiteSpace=wrap;rounded=0;fontSize=30;fontColor=#000000;" vertex="1" parent="1">
          <mxGeometry x="390" y="260" width="60" height="30" as="geometry" />
        </mxCell>
        <mxCell id="bClpd55n1A1ZBGnzMknM-60" value="use" style="text;html=1;strokeColor=none;fillColor=none;align=center;verticalAlign=middle;whiteSpace=wrap;rounded=0;fontSize=30;fontColor=#000000;" vertex="1" parent="1">
          <mxGeometry x="390" y="310" width="60" height="30" as="geometry" />
        </mxCell>
        <mxCell id="bClpd55n1A1ZBGnzMknM-61" value="Tool" style="text;html=1;strokeColor=none;fillColor=none;align=center;verticalAlign=middle;whiteSpace=wrap;rounded=0;fontSize=30;fontColor=#000000;" vertex="1" parent="1">
          <mxGeometry x="390" y="360" width="60" height="30" as="geometry" />
        </mxCell>
        <mxCell id="bClpd55n1A1ZBGnzMknM-66" value="" style="html=1;shadow=0;dashed=0;shape=mxgraph.bootstrap.rrect;rSize=5;fillColor=#ffffff;strokeColor=#999999;fontSize=30;fontColor=#000000;" vertex="1" parent="1">
          <mxGeometry x="650" y="80" width="170" height="150" as="geometry" />
        </mxCell>
        <mxCell id="bClpd55n1A1ZBGnzMknM-67" value="Profile" style="fillColor=none;strokeColor=none;align=left;spacing=20;fontSize=14;fontColor=#000000;" vertex="1" parent="bClpd55n1A1ZBGnzMknM-66">
          <mxGeometry width="170" height="30" relative="1" as="geometry">
            <mxPoint y="10" as="offset" />
          </mxGeometry>
        </mxCell>
        <mxCell id="bClpd55n1A1ZBGnzMknM-68" value="Contact" style="fillColor=none;strokeColor=none;align=left;spacing=20;fontSize=14;fontColor=#000000;" vertex="1" parent="bClpd55n1A1ZBGnzMknM-66">
          <mxGeometry width="170" height="30" relative="1" as="geometry">
            <mxPoint y="40" as="offset" />
          </mxGeometry>
        </mxCell>
        <mxCell id="bClpd55n1A1ZBGnzMknM-69" value="Reset Password" style="fillColor=none;strokeColor=none;align=left;spacing=20;fontSize=14;fontColor=#000000;" vertex="1" parent="bClpd55n1A1ZBGnzMknM-66">
          <mxGeometry width="170" height="30" relative="1" as="geometry">
            <mxPoint y="70" as="offset" />
          </mxGeometry>
        </mxCell>
        <mxCell id="bClpd55n1A1ZBGnzMknM-70" value="" style="shape=line;strokeColor=#999999;perimeter=none;resizeWidth=1;fontSize=30;fontColor=#000000;fillColor=#E3F3FD;" vertex="1" parent="bClpd55n1A1ZBGnzMknM-66">
          <mxGeometry width="170" height="10" relative="1" as="geometry">
            <mxPoint y="100" as="offset" />
          </mxGeometry>
        </mxCell>
        <mxCell id="bClpd55n1A1ZBGnzMknM-71" value="Log out" style="fillColor=none;strokeColor=none;align=left;spacing=20;fontSize=14;fontColor=#000000;" vertex="1" parent="bClpd55n1A1ZBGnzMknM-66">
          <mxGeometry width="170" height="30" relative="1" as="geometry">
            <mxPoint y="110" as="offset" />
          </mxGeometry>
        </mxCell>
        <mxCell id="bClpd55n1A1ZBGnzMknM-73" value="" style="shape=image;html=1;verticalAlign=top;verticalLabelPosition=bottom;labelBackgroundColor=#ffffff;imageAspect=0;aspect=fixed;image=https://cdn4.iconfinder.com/data/icons/essentials-71/24/040_-_Tick-128.png;labelBorderColor=default;strokeColor=default;fontSize=30;fontColor=#000000;fillColor=default;" vertex="1" parent="1">
          <mxGeometry x="362" y="420" width="28" height="28" as="geometry" />
        </mxCell>
        <mxCell id="bClpd55n1A1ZBGnzMknM-75" value="" style="shape=image;html=1;verticalAlign=top;verticalLabelPosition=bottom;labelBackgroundColor=#ffffff;imageAspect=0;aspect=fixed;image=https://cdn4.iconfinder.com/data/icons/essentials-71/24/040_-_Tick-128.png;labelBorderColor=default;strokeColor=default;fontSize=30;fontColor=#000000;fillColor=default;" vertex="1" parent="1">
          <mxGeometry x="406" y="420" width="28" height="28" as="geometry" />
        </mxCell>
        <mxCell id="bClpd55n1A1ZBGnzMknM-76" value="" style="shape=image;html=1;verticalAlign=top;verticalLabelPosition=bottom;labelBackgroundColor=#ffffff;imageAspect=0;aspect=fixed;image=https://cdn4.iconfinder.com/data/icons/essentials-73/24/040_-_Tick-128.png;labelBorderColor=default;strokeColor=default;fontSize=30;fontColor=#000000;fillColor=default;" vertex="1" parent="1">
          <mxGeometry x="450" y="420" width="28" height="28" as="geometry" />
        </mxCell>
        <mxCell id="bClpd55n1A1ZBGnzMknM-79" value="" style="rounded=0;whiteSpace=wrap;html=1;fontSize=30;fontStyle=1" vertex="1" parent="1">
          <mxGeometry x="940" y="170" width="730" height="310" as="geometry" />
        </mxCell>
        <mxCell id="bClpd55n1A1ZBGnzMknM-80" value="" style="shape=image;html=1;verticalAlign=top;verticalLabelPosition=bottom;labelBackgroundColor=#ffffff;imageAspect=0;aspect=fixed;image=https://cdn4.iconfinder.com/data/icons/essentials-73/24/040_-_Tick-128.png;labelBorderColor=default;strokeColor=default;fontSize=30;fontColor=#000000;fillColor=default;" vertex="1" parent="1">
          <mxGeometry x="1330" y="440" width="28" height="28" as="geometry" />
        </mxCell>
        <mxCell id="bClpd55n1A1ZBGnzMknM-81" value="" style="shape=image;html=1;verticalAlign=top;verticalLabelPosition=bottom;labelBackgroundColor=#ffffff;imageAspect=0;aspect=fixed;image=https://cdn4.iconfinder.com/data/icons/essentials-71/24/040_-_Tick-128.png;labelBorderColor=default;strokeColor=default;fontSize=30;fontColor=#000000;fillColor=default;" vertex="1" parent="1">
          <mxGeometry x="1286" y="440" width="28" height="28" as="geometry" />
        </mxCell>
        <mxCell id="bClpd55n1A1ZBGnzMknM-82" value="" style="shape=image;html=1;verticalAlign=top;verticalLabelPosition=bottom;labelBackgroundColor=#ffffff;imageAspect=0;aspect=fixed;image=https://cdn4.iconfinder.com/data/icons/essentials-71/24/040_-_Tick-128.png;labelBorderColor=default;strokeColor=default;fontSize=30;fontColor=#000000;fillColor=default;" vertex="1" parent="1">
          <mxGeometry x="1242" y="440" width="28" height="28" as="geometry" />
        </mxCell>
        <mxCell id="bClpd55n1A1ZBGnzMknM-83" value="Tool" style="text;html=1;strokeColor=none;fillColor=none;align=center;verticalAlign=middle;whiteSpace=wrap;rounded=0;fontSize=30;fontColor=#000000;" vertex="1" parent="1">
          <mxGeometry x="1270" y="380" width="60" height="30" as="geometry" />
        </mxCell>
        <mxCell id="bClpd55n1A1ZBGnzMknM-84" value="use" style="text;html=1;strokeColor=none;fillColor=none;align=center;verticalAlign=middle;whiteSpace=wrap;rounded=0;fontSize=30;fontColor=#000000;" vertex="1" parent="1">
          <mxGeometry x="1270" y="330" width="60" height="30" as="geometry" />
        </mxCell>
        <mxCell id="bClpd55n1A1ZBGnzMknM-85" value="to" style="text;html=1;strokeColor=none;fillColor=none;align=center;verticalAlign=middle;whiteSpace=wrap;rounded=0;fontSize=30;fontColor=#000000;" vertex="1" parent="1">
          <mxGeometry x="1270" y="280" width="60" height="30" as="geometry" />
        </mxCell>
        <mxCell id="bClpd55n1A1ZBGnzMknM-86" value="How" style="text;html=1;strokeColor=none;fillColor=none;align=center;verticalAlign=middle;whiteSpace=wrap;rounded=0;fontSize=30;fontColor=#000000;" vertex="1" parent="1">
          <mxGeometry x="1270" y="230" width="60" height="30" as="geometry" />
        </mxCell>
        <mxCell id="bClpd55n1A1ZBGnzMknM-92" value="" style="html=1;shadow=0;dashed=0;shape=mxgraph.bootstrap.rrect;rSize=5;fillColor=#ffffff;strokeColor=#999999;fontSize=30;fontColor=#000000;" vertex="1" parent="1">
          <mxGeometry x="1520" y="80" width="170" height="150" as="geometry" />
        </mxCell>
        <mxCell id="bClpd55n1A1ZBGnzMknM-93" value="Profile" style="fillColor=none;strokeColor=none;align=left;spacing=20;fontSize=14;fontColor=#000000;" vertex="1" parent="bClpd55n1A1ZBGnzMknM-92">
          <mxGeometry width="170" height="30" relative="1" as="geometry">
            <mxPoint y="10" as="offset" />
          </mxGeometry>
        </mxCell>
        <mxCell id="bClpd55n1A1ZBGnzMknM-94" value="Contact" style="fillColor=none;strokeColor=none;align=left;spacing=20;fontSize=14;fontColor=#000000;" vertex="1" parent="bClpd55n1A1ZBGnzMknM-92">
          <mxGeometry width="170" height="30" relative="1" as="geometry">
            <mxPoint y="40" as="offset" />
          </mxGeometry>
        </mxCell>
        <mxCell id="bClpd55n1A1ZBGnzMknM-95" value="Reset Password" style="fillColor=none;strokeColor=none;align=left;spacing=20;fontSize=14;fontColor=#000000;" vertex="1" parent="bClpd55n1A1ZBGnzMknM-92">
          <mxGeometry width="170" height="30" relative="1" as="geometry">
            <mxPoint y="70" as="offset" />
          </mxGeometry>
        </mxCell>
        <mxCell id="bClpd55n1A1ZBGnzMknM-96" value="" style="shape=line;strokeColor=#999999;perimeter=none;resizeWidth=1;fontSize=30;fontColor=#000000;fillColor=#E3F3FD;" vertex="1" parent="bClpd55n1A1ZBGnzMknM-92">
          <mxGeometry width="170" height="10" relative="1" as="geometry">
            <mxPoint y="100" as="offset" />
          </mxGeometry>
        </mxCell>
        <mxCell id="bClpd55n1A1ZBGnzMknM-97" value="Log out" style="fillColor=none;strokeColor=none;align=left;spacing=20;fontSize=14;fontColor=#000000;" vertex="1" parent="bClpd55n1A1ZBGnzMknM-92">
          <mxGeometry width="170" height="30" relative="1" as="geometry">
            <mxPoint y="110" as="offset" />
          </mxGeometry>
        </mxCell>
        <mxCell id="bClpd55n1A1ZBGnzMknM-98" value="" style="shape=image;verticalLabelPosition=bottom;labelBackgroundColor=default;verticalAlign=top;aspect=fixed;imageAspect=0;image=data:image/png,iVBORw0KGgoAAAANSUhEUgAAAFcAAABoCAYAAACE5GwUAAAYfmlDQ1BJQ0MgUHJvZmlsZQAAWIWVWQdUFEuz7tnILsuSc85Jcs455xwFlpxzRiWKBJUgoAiooIKggokgoiKCiCKCChgQCYokFVQQBOQfgt773/vOe+f1OT39bXV1VXdV91TXDgCsI6Tw8GAEFQAhodGR1gbaXI5OzlzYKYAHCEAJVAA1ySsqXMvS0hTA5Xf732V5CEBb7XOxLVn/7v9fC423T5QXAJArjD29o7xCYNwOAKrcKzwyGgDMFp03Ljp8C6fAmC4SniCMi7aw3w6+sIU9d3DbNo+ttQ6M+wEgI5BIkX4AEEdgOleslx8sh7gO99GEegeEAkAPrxyj7uVP8gaA1RLm2RMSEraF98FYCOYPh/E5GCt6/k2m33/J9/wjn0Ty+4N31rVdyHQDosKDSQn/T9P83yUkOOa3DgG4EvwjDa231g/b8GVQmMkWJsB4PtTT3GLL1jBeCfDesTsACLx/jKHdDj+CzStKB7YfYICxpDdJ1wTGbDDWDw02N92le/oG6BvBGLYZIj4g2sgWxkwwzvKJ0rPZ5TkTGWa9qwvR5Bupo7VLf0iK3Na7pWs0JshOa1f+V38fo135SGKiv60DjPEw5osNsDeHMRHG4lFBNia7PKqJ/jrmv3kiY6y35s8HY2ufUAPtHfnIWN9Ifetd/pyQqN/rRZ7xDzAy38XXov1tDXfsg+z0Im3PH14Lst8nVMvutxyfKEfT32vx9tHV21k7cton1M5mV85KeLS29c5YFD482HKXH8XjE2ywReeBsWxUrM3uWJR9NLw5d+SjfMOjLW135olKDCQZW+7MB5UPTIEO0AVcIAauniAMBIKAvvnmefjXTo8+IIFI4Ad8gNgu5fcIh+2eUPhpAxLBJxj5gKg/47S3e31ALEzf+EPdeYoB3+3e2O0RQWAKxiHABATDv2O2R4X+0WYP3sOUgH9pJ8HVC55vMFy3+v9n+m/qXxQtmGK6S4n5rZGL8jcnRg+jizHE6GOEUSwodZQKyhR+asJVGqWIUvq9jr/40VPoAfQEehA9hn7lHpAW+Y9ZmoExWL7+ri08/24LlAAsUw6ljVKDpcOSUQwoFiCGkoX1aKE0YM1yMFVnd95bVuH6h+z/WsHfvLHLh5PEIXCMOE2c0D9HEkWIcn+kbNn67/bZmavnH3vr/On5p36dv1nfG25N/smJzEJeR3Yj7yF7kG3IZsCFvItsQfYib2/hP7vr/fbu+q3Nens+QbCcgH/pI+3q3LJklORFyRnJ9Z2+aJ/46K2DpxMWnhAZ4OcfzaUFRwcfLqNQL/E9XNKS0tIAbMWandfXN+vtGAIxPP2L5jMNgCp8ZnD9f9ECjwFQ1wUAY85fNAEXAJj3AHD1mVdMZOwODbX1QMNvCUr4pDEDDsALhOD1SAN5OKZpAj1gDCyALXACbrCV/eF9HgniwD6QCjJBLsgHxeAkOA3OggvgMrgGmkEbuAcegMegHwyCN/Du+QDmwAJYBmsQBGEhCogWYoY4IX5IFJKGFCF1SA8yhawhJ8gD8oNCoRhoH5QO5UKF0EmoEqqFrkI3oXtQDzQAvYLGoRnoK/QTgUQQEHQIdoQAQgKhiNBCmCBsEXsRfogIRCIiA3EUcQJRhbiEaELcQzxGDCLGEHOIJSRAkiMZkNxIMaQiUgdpgXRG+iIjkQeQOcgSZBWyHtkK+/k5cgw5j1xFYVC0KC6UGLyDDVF2KC9UBOoA6jDqJOoCqgnViXqOGkctoH6hKdBsaFG0MtoI7Yj2Q8ehM9El6Gp0I7oLPksf0MsYDIYBI4hRgM+iEyYQk4Q5jKnANGDaMQOYScwSFotlxopi1bAWWBI2GpuJLcVewt7FPsN+wK6QkZNxkkmT6ZM5k4WSpZGVkNWR3SF7RvaRbA1HhePHKeMscN64BFwe7hyuFfcU9wG3hqfGC+LV8Lb4QHwq/gS+Ht+FH8F/Iycn5yFXIrciDyBPIT9BfoX8Ifk4+SqBhiBC0CG4EmIIRwk1hHbCK8I3CgoKAQpNCmeKaIqjFLUU9ylGKVaItERxohHRm5hMLCM2EZ8RP1PiKPkptSjdKBMpSyivUz6lnKfCUQlQ6VCRqA5QlVHdpBqmWqKmpZaitqAOoT5MXUfdQz1Ng6URoNGj8abJoDlLc59mkhZJy0urQ+tFm057jraL9gMdhk6QzogukC6X7jJdH90CPQ29LL09fTx9Gf1t+jEGJIMAgxFDMEMewzWGIYafjOyMWow+jNmM9YzPGH8wsTJpMvkw5TA1MA0y/WTmYtZjDmIuYG5mfsuCYhFhsWKJYznF0sUyz0rHqsLqxZrDeo31NRuCTYTNmi2J7SxbL9sSOwe7AXs4eyn7ffZ5DgYOTY5AjiKOOxwznLSc6pwBnEWcdzlnuei5tLiCuU5wdXItcLNxG3LHcFdy93Gv8Qjy2PGk8TTwvOXF8yry+vIW8XbwLvBx8pnx7eO7yPeaH8evyO/Pf5y/m/+HgKCAg8AhgWaBaUEmQSPBRMGLgiNCFEIaQhFCVUIvhDHCisJBwhXC/SIIETkRf5EykaeiCFF50QDRCtGBPeg9SntC91TtGRYjiGmJxYpdFBsXZxA3FU8Tbxb/LMEn4SxRINEt8UtSTjJY8pzkGykaKWOpNKlWqa/SItJe0mXSL2QoZPRlkmVaZBZlRWV9ZE/JvpSjlTOTOyTXIbchryAfKV8vP6PAp+ChUK4wrEinaKl4WPGhElpJWylZqU1pVVleOVr5mvIXFTGVIJU6lWlVQVUf1XOqk2o8aiS1SrUxdS51D/Uz6mMa3BokjSqNCU1eTW/Nas2PWsJagVqXtD5rS2pHajdq/9BR1tmv066L1DXQzdHt06PRs9M7qTeqz6Pvp39Rf8FAziDJoN0QbWhiWGA4bMRu5GVUa7RgrGC837jThGBiY3LSZMJUxDTStNUMYWZsdsxsxJzfPNS82QJYGFkcs3hrKWgZYXnLCmNlaVVmNWUtZb3PutuG1sbdps5m2VbbNs/2jZ2QXYxdhz2lvat9rf0PB12HQocxRwnH/Y6PnVicApxanLHO9s7Vzksuei7FLh9c5VwzXYf2Cu6N39vjxuIW7HbbndKd5H7dA+3h4FHnsU6yIFWRljyNPMs9F7x0vI57zXlrehd5z/io+RT6fPRV8y30nfZT8zvmN+Ov4V/iPx+gE3AyYDHQMPB04I8gi6CaoM1gh+CGELIQj5CboTShQaGdYRxh8WED4aLhmeFjEcoRxRELkSaR1VFQ1N6olmg6+FLfGyMUczBmPFY9tix2Jc4+7no8dXxofG+CSEJ2wsdE/cTzSagkr6SOfdz7UveN79faX3kAOuB5oCOZNzkj+UOKQcqFVHxqUOqTNMm0wrTv6Q7prRnsGSkZkwcNDl7MJGZGZg4fUjl0OguVFZDVly2TXZr9K8c751GuZG5J7vphr8OPjkgdOXFk86jv0b48+bxT+Zj80PyhAo2CC4XUhYmFk8fMjjUVcRXlFH0vdi/uKZEtOX0cfzzm+NgJ0xMtpXyl+aXrJ/1PDpZplzWUs5Vnl/+o8K54dkrzVP1p9tO5p3+eCTjzstKgsqlKoKrkLOZs7Nmpc/bnus8rnq+tZqnOrd6oCa0Zu2B9obNWoba2jq0u7yLiYszFmUuul/ov615uqRerr2xgaMi9Aq7EXJm96nF16JrJtY7ritfrb/DfKG+kbcxpgpoSmhaa/ZvHWpxaBm4a3+xoVWltvCV+q6aNu63sNv3tvDv4Oxl3Nu8m3l1qD2+fv+d3b7LDvePNfcf7LzqtOvu6TLoePtB/cL9bq/vuQ7WHbT3KPTcfKT5qfiz/uKlXrrfxidyTxj75vqanCk9b+pX6WwdUB+4803h277nu8wcvjF48HjQfHBiyG3o57Do89tL75fSr4FeLr2Nfr71JGUGP5LylelsyyjZa9U74XcOY/Njtcd3x3gmbiTeTXpNz76Per3/ImKKYKvnI+bF2Wnq6bUZ/pn/WZfbDXPjc2nzmJ+pP5Z+FPt/4ovmld8Fx4cNi5OLm18PfmL/VfJf93rFkuTS6HLK89iNnhXnlwqriavdPh58f1+LWsesnNoQ3Wn+Z/BrZDNncDCdFkravAki4Inx9AfhaAwCFEwC0cN6Gd9nJBXcLEr58IODWHtJDaCEVUUxoPIYMK0nmhEvH3yVgKEjEZio8dTDNIzo5+nJGwBTE3Mcqz5bPPsepyZXHPcCL51PidxIIEgwRchXWFmEXWRR9sKdULEhcTYJC4p1kg1SKtJUMt8wn2ZtyB+WtFNgUPijWK8Ura6ngVZ6rlqt5q+9R/6rRrLlPS1uboP1O545unV6FfoHBAUOSkYYxk/GiSa9pvVmFeaVFm+WkNdqG2ZbFjsoeab/usOYEnHEuRFeKvai9S24T7v0e7aTrntVepd45Pgm+fn62/toBsoEiQdzBzCGUocjQ72ET4f0RtyLPRR2NTo7JjG2MRyX4JLbvA/sFDignG6W4pMakHU0vzkg6KHtwMjPvkGUWfzZ5DshFHKY+InRUPc8836HAudD5mGORfbFtidVx8xMmpQYntcvUy5UqZE6JnRY5I1lpUpV+duy8UfWlmrla6jr+i1KXVC7r1ps1OFxxv+p/Lfx63I0DjWlNB5uzWnJv5rUW3ypvq759407X3eH2sXtDHQ33fTuZOh92lTyI6/Z9uLfH4ZHVY5NegyeGfbZPI/rPDLx6Tv5CYlBnyGhY76XiK/7XxNerb6ZHXr69N3r2XfqY37jdhPmk2XuLDxZTxh+Vphmnx2ZyZmVnx+YuzCd+MvxM9rn2i8GXyYWzi/Ff3b5ZfDdbClzuWDn0s3lDd3Nz1/9SSBRyBjWGnsQskCFx8nh/8nLCGFGEMo7qAQ0zbQLdCwZpxjSmtyxyrJls/RwsnI5cBdxtPCO8S3zL/LMCTwTPCkUKq4uQibwQPb0nUExO7Jf4A4mjkg5SnFIfpetlYmXV5CC5LvkcBQtFWsUhpVJlFxV2lRF4F7iqM6sPaxzXdNES0FrTHtS5qntYz0df1YDaYMqwzajYONbEx9TTzN88zCLE0tPKwlrFRsSW1Y5oj7BfdvjoOOR037nepcw1Z2+iW4C7o4cuScKTyQvymvUe9On0bfSr9i8JyAgMC3IK1gwRDKWAd8J4+GjE9yjuaPeY0th7cS/jJxPmE1f3ke/nOCCUzJWCSXmX2piWlx6Z4XbQLtPxUEBWenZFzuXcxsNNR24cvZp3Ob+24HzhmWNlRcXFeSXZx9NOJJSGnfQrCyhPqbh7WvjMhSrBs4Xnnp9frSFeYKnlrROB94HCZfV63QazK05Xg69lXj97407jQNNo83TLt1bkLcY20dsqdzTvKrRz30Pcm+jovt/YWdNV9iC/++DDxJ7IR9GPs3vb+hie7u9/+4zlucYL20HfoZTh8y+fvvr+hmZE7K3paPi742O3xp9NjE5OvJ+bQsPeT50ZmKOel/wk91ngC+WXlYWpxeGvj77d/F65lLxs/0Pwx/JK22riT5U1wrruxsyu/8WhOUQF0g0ljMaiFzEz2FmyCdwiOZ7AT6FFdKZMpbpEPUCzScdPr8cQyHiQ6TTzDZYu1odsD9hvcVRyxnNpc/3kPsdjwjPHm8UnyNfB78a/KlAkKCn4SMhPGCtcI2Io8lE0c4/Qni4xL3EgXiGhKvFSMga+3TRIm0pPy6TLcsi2yFnLzcsfVOBUaIZvLdNKycoMyhdVtFSeqXqpflZLUseql2nIagxpJmpxaLVoW2i/0vHX2dSt0rPUx+nfN9hnKGs4a1Rl7GrCZDJkWmxmY05p3mORbqli+d2qwTrIRtDmvW2l3V57ZvsXDnmOho6bTo3OwS58Lm9dS/aa7112K3Lnd7/hoeXxmhTvyeP5En6P+PsY+Cr4KfkbBZACQ4JIwRohVCEjoefDQsLlwtcj7kfmRFlG00e/iTkd6x0nEDcVfypBL2EkMTiJLun5vlv77xzoTL6fcjO1Nq0kPT0j7KBLpt4hkSx01ovs0hznXL7ctcNjR54cvZl3Jv9AgUuh8jGWY6tFQ8XXSo4fP3KisLTy5PWyB+UvK2ZPrZ2hqOSqkjlreM71fFj1gZrsC4drU+pIFxUuES99vfypfvUK4SrHNenrljeSGm80rbQo3QxvLb11pa3l9q07PXeX7hl03Oy06VrqLumRefSi90ifR7/RM60X2kPBr4gjcxN9s0vfV7f8v/Of4FbByANwLBXOUDMBsNMAoKATzjMH4bwTD4AlBQC2SgAh4AsQhF4AKY//iR8QHG0wgBxQAybACQSBJFCGs2QL4Ax8QRScXeaBU6Ae3AFPwTj4DmeObJAUZAC5Q3FQAXQJeghNITAIIYQpIgpRAed5m3BeF4u8ifyFMkAdQ02gZdBZ6HcYZUwpZg3OsB6RKZDV4FhxBXhyfDY5njyfwEKooZClaCOqEVspFSlvURlSvaGOpqGiuUyrSztAZ0s3QG9B/4zBnWGFsZRJjWmUeT8LK0srqxsbjq2NPZZDluMb5zWuSG457nWebt4SPn9+VQGiwJjgdaEsYU8RLVGBPcQ9a2Kfxd9LDEo2SiVJS0mPymTJysl+kWuRL1RIUPRWMlWWVGFUJaqJq5dpimod0e7R+aJHpk9vwGzIZsRnLGtibhphdsK80+KrFa+1g81R2257lIOuY6ZTrwuDq+feOrf3HhgStSfGc8nrg/eIz6wfpb9JQHHgx2DVkKLQz+HGEXVRhOiImNdx+vEtiWJJ1fu5DpSlMKQWpOMzUg8uHQrMmsvJPRxytLGA+hhL0aeS2hPuJxnK+iuOnDY4s1SVd47ufFb18oWg2q8X8y/rNVBfWbw2dWO6aa7lY+tk2+Jdxns69926PLptejQeSzwRfio/EPp8ZRj1Gjdy+h3t+J0PxOl9c1qfGr6sfZX/rr+M/3Fk5dHq9M8Pa6/Wb2zk//LclNx+f2z5HwsIgAYwA24gAmSAGjAEtsADhIAkkA1KQS24CR6Dt2ABQkMskOS29xOgIugK1Ad9QlAiZBDOiHTENcQHJCfSHXkOOY+SR2WgBtHC6FT0COz7MizA+mMHyfTIWnASuDq8MP4SuSz5XYIlYZIinogjFlNyU16B89c31HE0DDTNtPa0n+j20+PpTzCIMTxiDGNiZGpnDmChY2lnDWPjYxthL+Vw5GTifMVVwe3NI8kLeF/wXeTPEHAVlIVzuVnhXpHrcBTLE0sX3ycRLeklpSlNkO6TyZE1kWOUW5R/pdCt2KRUpXxYJVE1Vi1bvUXjh5aMtrdOrm61XpP+LYNbhreNeozHTRFmIub2Fgctm63mbfhs3e0q7EcdeZwCnZtcsXsd3E66d3kMkDo8a72yvAN8rH0N/Zz80wLagyiCPUPawljCEyPeRmlH18ZSxoXHP07kTord139ALvlcKmtaUQb+YFLmfBYpeyI38YhkHiL/beHVotgS2eNfS6+WxVQon/p5prpK+mzFuY/VgjX+F67UMV4sv6xW/+lK6TWl632NpKa1lqpWqzZwu/auaftix+lOzwfKD7kfoR4/eRL7FNOf84zwvGrQfdjsVfCbmrcfxzgnLN+nTt2ZYZzL/yyw8ORb0fLhVaM16fVTG+9/Le76HwVwgAo+/dxAFMgDHWAJ3GDf74dPfiW4AR6CUfjcEyABSBPaCyVBZdBtaByBg71OQhQj+pH0SB/kbRQbKgU1i3ZCP8HoYG5j1bD3yEzJ3uKi8JT4K+T2BCShmSKCKEVcoeyiKqWOoXGiNaIzprdiMGZUYBJmlmNxZ01gi2b35LDlNOcy4zbjMeU147PmdxeIEjwiVCf8UGRmD4WYgrivxEnJIWkWGW/ZBrk1BUvFJ8rZqk7qaI18zXVtE5102IPN+m0Gdwz7jNZMTEybzMUtLlmJWzfZ6tgNOYQ44Z0vudq7UXuQe7p7u/i891Pxzw2YCrIO7g01C3sW4RI5HZ0UyxE3mvAgqX1/RbJdys+0ygz7TM5DC9m3cw8f8c0zKGAufFzkW7x8PL2U+mRVuXzFk9O+lVBV+TnF84M1MbWsdQ8vJdcbXJG4pn8juamqJa/VqY3x9vDdsntO97Gd5x/Idt/q0Xs03BvfJ9GPHFh4Pj04MFzwSvB1xZtfb/VGc949HqecsJs8835mSupj0PSZmYezs/PoT2yfJb/oLjgskr56f7P8zvN9aenIMtty3Q+lHyd/rK44rDStMqxGrjatrv3U/Jnxs2eNuGazdnytf51sXXM9fv3q+swG94bTRuHGo42NX1K/vH8d//X4169NqU2fzRObvVv+j/KVkd4OHxBBGwD06ObmNwEAsIUAbBRsbq5VbW5unIWTjREA2oN3vjNtxxoqAMoXttDjluV/fV/b+Qb1tzzmny3YjkTbWuFItFW2ohL4D0uv6U84qXscAAAAVmVYSWZNTQAqAAAACAABh2kABAAAAAEAAAAaAAAAAAADkoYABwAAABIAAABEoAIABAAAAAEAAABXoAMABAAAAAEAAABoAAAAAEFTQ0lJAAAAU2NyZWVuc2hvdNY8+vUAAAHVaVRYdFhNTDpjb20uYWRvYmUueG1wAAAAAAA8eDp4bXBtZXRhIHhtbG5zOng9ImFkb2JlOm5zOm1ldGEvIiB4OnhtcHRrPSJYTVAgQ29yZSA2LjAuMCI+CiAgIDxyZGY6UkRGIHhtbG5zOnJkZj0iaHR0cDovL3d3dy53My5vcmcvMTk5OS8wMi8yMi1yZGYtc3ludGF4LW5zIyI+CiAgICAgIDxyZGY6RGVzY3JpcHRpb24gcmRmOmFib3V0PSIiCiAgICAgICAgICAgIHhtbG5zOmV4aWY9Imh0dHA6Ly9ucy5hZG9iZS5jb20vZXhpZi8xLjAvIj4KICAgICAgICAgPGV4aWY6UGl4ZWxZRGltZW5zaW9uPjEwNDwvZXhpZjpQaXhlbFlEaW1lbnNpb24+CiAgICAgICAgIDxleGlmOlBpeGVsWERpbWVuc2lvbj44NzwvZXhpZjpQaXhlbFhEaW1lbnNpb24+CiAgICAgICAgIDxleGlmOlVzZXJDb21tZW50PlNjcmVlbnNob3Q8L2V4aWY6VXNlckNvbW1lbnQ+CiAgICAgIDwvcmRmOkRlc2NyaXB0aW9uPgogICA8L3JkZjpSREY+CjwveDp4bXBtZXRhPgqiiSN9AAAoRElEQVR4Ae18CXxVxfX/99738vKyECAJ+w4iZRWQzYIKuFVxrfuuVaH1V61/q7WiVluXX1vx14raurRqXXBHkU0UFRdWQVB2JCQQdggkJLz13jv/75l59yUiEMpi4ufjQN6dO9s9850z55w5M/daigE/hoNCoDbo7INq9cdKB4TAj+AeEEwHV+hHcA8OtwOq9QMA1wNEK/iagbcSFFLp5rZOfi3L2u9zrR+CQvMIpQ3piMd/Viq+337Vi8x6z7nCoVaKcwViA7JTzcn1Asa9E1HvwbU8C/70s0QUSPACUFbdiwVDzL5/g/vOqic5lGtavlIqWMqGRzb2bAsB4eb9i7w670C951x4EcTnDoe76hFEZ54JO74TQQJruDnFyXUO494JqP+c6zoIb/0EMVQAkUVQAQFWRIINx7JRnztQ/zk3QBKzgYxkJuzswZS1vKFaAwGuz8AKL/8AwA0j3qA/kgELoVgF5W40NQdJum/7plLq26W+Dz7xCiIDTaGik+HEgQAFhNZjBFaJkqtviNagp/5zLokVv11gu4gGTrXELs2xwrRp06xGh+pTtN6D67kxBConQ3X/Ldz87kjGSomfS6XGC5VafQ71mzoiZ6kIsBtI5B0DN9gDGVGCa3ERIQuK+iwTSHu9BxfINCBamQgFZRFBW0zjStLruUL7AYAr7EuZ63iIewmoeNhIAw2sW5+lwg+AcxUBJJDx3HwEbWHZHQTUgxNbzuT6zRv1hDpxKlbPcs+lzTXnPHjJMooBF4pOsKxwOwSCGRS+6+Ami+HM7AYrvq1ec279sHPF1uLU16aVWAAeNdjGd6jMdsGmB0xkrPKowgJRBFb8L7yNcxEm/qLY6nOoe84VlqVdpRW/Z7xe8HbCEXHa8RI4Ha6SdQSsnEKohkOMCj7+LTj5J0AlN9dnbOuB0CKqRnZqE4AEEVU3gSCZ0mp2A6zc7mLWwrIbwc0luBwM285GMLIJnkMOr8eh7jmX4JiVlsBqNnRkFaZaDNewBco+0IDqDZ5AQ2PzVn0JhL6Bt2NVPYa2Hti55mAFx5hWQUAmEkWD2jkfVnYPDVwkrxOiAx6GTV9joFEHxE6cSNO3FWL5VyNDZHM9DnWv0GSngQrNonJKcs4HudOQiK5BZmwrYfOQXXA+UEBzgaDbdDeGW/yM6UEk88+Bt2tOPZBr+x7deiAWZD9XqzNk0M2l93YrN8Bp1IbcnCKP6YpbO8ZcIz+I3M3Ihr1jyb57Vg9y6hxcgVVch7S0TOA1lCyHVzhM75cJ9/ob61JA7wTLToSEqk9ZL8FI6j59Ffz9NF2yTn7qHFzhTlFoZEwi53GBQN9iZBoC4a6aozWw2gVmttgV1Z6kBfL6IRZqBTiVmsO17NacztWbNKXPF9YtwHUPrpYIhgwBzab/gP5wLhiyDZcKB2quNmVENmvrIlSAcKgFrIgsg1lABkBzNIHXfErPmS9W6oRv64G1YPrtA0jnTJzO8Cw6ajJzNVgigwU7wVefVagBlMpoiljZN8SVwAqnpmSLFh1STg9cjQrfc7TuOVdQSwXBIkx5i8YXE7BsA2h6aWykr57tBFyD3eIUWhVFurZWilrpUUZLQ/wz9nOq8Tq41Dm4AkQ1vlz+Vk1CIthUFmUER+SxWAlSgnKZE15wkzt9zfspUDGNCSzNRF/xpTmX5eoy1Dm4VGEaKPNDKMpXwg23SMnNlELaEy1Bl392VnNYCXrGXPoixB1Zz0Kdgxvg4iBeuRaeJzqemMUjyCrsqkWorxKqYuICM1aFDIIcChH5awXzufXTFu7uLQjyTFlkye+AbVzBSb5urW679z08XTjK5yrHdNr0XHOfV7USwRkdYTtJloojsHMuFxA/IZTMZrlvVn+Dvj174KGHHuC9CAMJArQh3Q53gb3xH0yykOmup5hYrkv4JfVNHf0ccXBFDvocKMtW3Wn+mA1GumO2vIxAbk+aB1mwyYEOyliqrQZejIBoNIrVRWvw4riXyd1mkIw/wiBmF/aAtbsCLrOCOf2B9ePMIHBg6nohccR9Cz4HGf+B3AlA1YDbu1fDy2oBu/JDuOVfwCq8DCoY5iCYcr169cLwYUPRqFEjBAJiu4ofwm+VreUPgv3JLQjsjkJVLYJrrUHQrRKkzUCaMaiT3yPOuSnhpwGpyUna3qff1iqbDXvr+1Bf/g8CC+5EoEEvLh7E1JI/D5s3b6btm8SUKVPws1NPw1kjzsTbb41Pg2VnHq39vZ7sDA95nrIXSEZXkG2rBzBd+PuOkBOObPAUd2hM8K/KlZirVGKzcsfzpNKOSSriRlTVx9wu2/SJonLTldaVblLt2nUQCa3IrYTL0pZbx/YdVEVFRbpRd1p75b1KT+WG8Uq9n6ecr28x7csz6jAcec7VM5jnkMhR6clsi+VqI1GxArYYtF/9Efj8BIS5sWvlNBJzQBdevmIx1q5dm+Y3xSOjUm9NSTGee+45na4sB3bLUbBKeNxpx0xE2l4NbH4FnisNH/nupYnbS+R7eTrPgZt+ipKhzJQ/CaHtH8Dt+nuEBr+HzKP+iECIxbIKqdQk38OqFSuNfNUrL1NH6onMzc3l8ljiHtVG/jEAxySnwyhkdfk7zzjwlE7VYp1flz9HHFwNichQiWiG5JpLn5qh7brlOQTaXErfbCM40YV0ig+i1dCSpxrF9WIjvyDPDIT4DOR/alCysrIwYsTpLMPpwB6opgN122rbFF0v2ekuoPRJxo3tzEidhCMOriyuRFD6Cj7JBFFUKraRu7d0GeZ0ZMdtZGz9CNGWBExrOoLG/ytWr2QeI6lAscuSCtnhLL3i1chKXiAfydP+gxgVpJRXLU+CvX1RqhYvSW4HyeDKn+TrP4kf2XDETTEhn9gykIuSO5ER4PyVbZpNnyPUoAOBySVHcgk8cBKybLrDUsGl6/GzTz/3b7UokGGRURJ7N23zsoSs2DLaXaXflZAKoZw+fFY5nIqvEWzYG7GV1yBU+AtYzU/TlogMdGoS+MSln3M4I0eccx3dEfKKIgdO6QE3Qo6lDA0UPQ6v/SWam0RMKAG2mklRsrYUs2bMTvdVRIJli3hRKC/nToVhw5TPl1iypAyi/Al/o+VxcLe9qePBZtfCXTvGtJXiYH8JbRKPzO8R59yAgMJ/aufncPO46ZjbmseQdnBVNY+uxQFGZGjZSFJkqNl54dDi1cVIcEksysuXtQLB0KFDMWDAAL2o0JCIGKFMz9DIioylwSZWRbvbkDmjF1SrX8IONYW94SM4u+dzbTFAP0Pq6BdXdCNH5ueIg6vBIZ95G183ZtfmN2gqjYPX4nQEM5prDrT0slh4USxZwcdCqxbN0K5NJ6wtLSYIxIODlN+oMV599VU0bdpUg24goUnHfBoaLMTuSFmZAtldzenTmb3gtLgZqrA1sOohqD5cgBB8SwY0Vd60c/h/j7hY0H12dyFQ+hRUdl8kNr5Kbww9V+2uYRZPKlDb6Q0EeVNSuJYUCRNG3N342QjKyBTnylXkrBYPgjaD5mjWCfm7mxpYySB4dhBO29/T3q1AsuVwbsVfgeCyCXCqvjI6UwNbQw7pFg/vz/cALjcMt7wNi/uIzk8epf6ic4Uh0PAE7TYkQloaEGVBSwMrzOslbAzs08MAyBICpPwFg2ay+SDrrR9yuh9EpMh0F7wDrS6DzdfXQt88SHGQD3Q4kbL+RS1+ZKNTj6Rf8Qhcjzy4fKdBrR6DRNsTkdj+NjIW3w23Gf0H2ZzaApperRFMYVkBiaAIVBs2bED3/r2RmZuT7vauXbuwdascFmGZFPf6rkdfG8pMENekAGxl09tG48TO/xkCHW4HjnuXvuO/0Qzcxnza0tVjkn7G4YwcBnANl+jOCfPVpI433o75CO1ehtCAj5HT7mY4ZLxAm1+ZUhpIUSzSz1TNVIdLN6zDMd17oW3LNixrpq9w67p169NP0LI1fZfqirTFBjXoktTlUdirboNFG1ipPAJ9P9ziv6Zr6aemtonSienIoYmNwwCuAUfmmpBiXIUposg9as1oWJ0fYTan68bPtNfKbTZYT0mXB5v9IAsEAVEAlNCiRSuEeKqmWdNCfS/t25STQf1GtWn/QBhPNT9fqiJWMUcPYrDT1bDWcyYlStOzRGS/cLFZXPiAkpbUkw/2chjA5aM58toIkt7K9KZyknuUL0Bgw0x4bc6TO/pbv0Ky8+X0i/ck4Ypd+raZJWUMyOyu1ugWjm7XUYPTf8ixbJbvAYd5ulzEiRSW4Cszc/edX4uH9tyTtyOTfl9ZKdqhNgg0vgpq5d2pspx5qYHVfjcZCQmiFKUvhxAOw5dCONJChHAcZaZ0WnOvpC28GHErisw+7zKf/0UOcs+MJz/0uRmeW9wr6fPmzsZTT/0TJ554IpJV9OVOm4yOHTuiqKgYwXAADRrmgS5HDOw/CL8cdSMa5OVpzpPGfEXnN5ymxweNGV5kIdR7fWGdVQab+3ASZBaZveVDA1Q3lvo5DOD6HRJe5GhLw9IjdxMwsSWcYYt59JNbMUySiSbwa2c4E4wIMZ0RUJLJJF588UW89dYbaN6sifZ87YpEkRVsgESyUsvSeDSM3MIwD0BHsXVjOUqKVuONN95Auw7tdT4f822AhbO1NZESOVRkcg7Ynnc25W9/OEfdy283CF2kTIiUpThltvQlxS/S5MEFdurQQsoZLu5vT5zTqfvkqgeVmnE03QZ0fPvOcVNIl3PTLnT/8a6aP3+eGjXqBuU4rJMKus2009t3fsvVVZFoXOU3zFfzZs/zi6evtIlrxJ3U06rpU5E1KjGV+MW30zkvZU2eVNLP1I9Kpts4mMihzwFOdQmGY9mc3HsV8Ero9uv1CiUGp77mHMkzBYVzUzyu68oPiQdBpSLjmQW9V2ayjKllZKzZ/fUVjY1wZgY6H90VOyrK0+34Ed9Uk3t9vkzEknAj/2kGzWoHq+O9NA8XMF90BukjDTLpdAkWSlngfpP/9fXQwSVQenoTU+0M4dxKbh6PUJORcBr31QSLQNBUy1WC7p1EtNqTiAagvHwXAU6V0RUY313M6uYzAFrZyb4bFWaqEly+mTJvznw9hSVNBulbIXUrU17o9BWmDHDw6PuQ0eJUFqcVIrRpJpByuvAhK7QDA9cMp6GZcemAppn0+FDIwIti88i5GU3PgTrmSRIsoAkQ5BiNB/P5YrRXMZ/rW/pqI7RZ5f0HDYiHls3yYGVmm4EQDS5Wh5OgAuKSVZpnO27JfyjPt+rnC1ih7DA6ts0nEEIYHT1OjFdKVS6VXVmF8Z02z2U6y2qahRa2Jd66VCPmStqlN5KsmYXXQw21KjROVj5DYOJDDXWMGEJ9+gQ8iRuoSTw76o++VPGJTZYvRMan/XRnquhhFKPKC3XmT0tkZbNNrxClgVPQesDVZCKCzOBUFUMtvwcZ/V4iAxfD/rQTTavdFB10mDN/49KpKKyYyAN5CxGtisHODUJl5MHJDCIrkQF75weI84h/eAh9GgKgT7QmmKzBNMPVjPK0D0KZehZV031g/KeJ3eOn1prGY5WiSUDVRBFMPdICqsRNq47wMeNG20qa3Js1vHCdRQ0vSWKNofez8E5ZB2/w27D7/S9iVZ+Rz8rRtvIPsD9qAieyTjcq7WfMfhkOz4Qld9Lwr+QDguIDo1Zf9Te0WnYGj5sSlJ1cJHS7AO4Qlj3+abjHPIgAT0B6gQS/kfMG32vbotvTdrEPLNsWsFVVJZK/uRvJcA520OGD6R+STHPI2lQ6uN9awdVosG2zetH8aJ4kiovB5TRUT/wbVbfcAef/uG+VIKebYTcXcYQLELowsxq3gtPpJmTP/AWCG5ZwFdYdwdzjECbuTpvrkRy2FvGCc4AP2hHgFXxJkixO7GyHhz74KRZwh1js48Tiv8KdfStiw6bA6vOcJjMzsxs8nmMIJxoia+b1nAkhxI7/CC6bCK7kKnH5X+Btep7AkWYBVuhkN+zX34A99kG6LTujsTgjZs/Tz9A0C90HGcx8329lQ4TmUP9pwo0iS0lcIOEictP1eorz5X04ny2G9dZY2o4hzjgZO3rFNkzikvMpBCumskIhvG5jkczpieAXZ9CB/TjU0b+AJczIvS6Z7ug9juUKYH/WFV6XV2DTd+Ny+RzMaQOvMU82Fk1B6IvRiJ47AcGC05Hkd28CBMmxypFFOe7N6opQVm9EB3+AQNwB32olZ1O+c6CtEi5oWlyuydfiTRzrZ58FtWkz1KrVKP9oOvLbteNAUCd06SIS76BDreCKdLW1UjKcqpWPeJQYNL67qmA/+yKioQBCPXvyXQYeWua3EXS+cAaJx1bKu2bD4HT5DY33n/Ho0ip4bS9E1K5E7oxfc7trFhUXuUtxI5FBXvdze45BoHwGsPYOJLsNIXIc0HAufbMDEFo0Am7vi4n/2aA5yqUyR4b/7ZK3EJjzC6gmfMu9C7m0shgZFauMT7z/E5xVZYgtLkPYlpFkoGjT3rNCVhh5O6xnxkDWa0K2bBs5tz2I7IdHM3ZwoVZw+XijzWWtr8ESjUpufGMCym8ag9wts+RzE3qAd/Kav6bEcAXLGvlMxWU3Jcf9lK+acslJZW59+hP6ZduTkUJI8PhBaCU5ldM90Xkn6LviaUXZtsmE0/lxuDOHwh38CHJ4Zjfh0Slc0Jw7GWz7KDqEWDYkVoIMINsJfDFZuxgVOd37YjDkq1khihSEyfnBXASKn+V7bjvT/dBqlwA7/BcZ1hN5p0xgxSRfBShB1qcrgDYNDg7VVK1awdV46m6whpaznEaMKi47CwlsorA/rMdHI9S0EXKeeQlYsAjo0MZ0WKrwz40X8WjoSr4YPUhvvajO9yPZ4jJk0dfrBF3sipcie9bZdGT/iQ7u/4GX04RSMYnMpkOQSTa0hJ+CWQQ8C15GewI4CFaeLKllpLLgrvsXXZscnHPuhdXqCmRy7y1gh+FkcPBW3oXQuv/wnrbJhqnIaHM+6ecsEE+C7o8cWaGVW8Vt+ZG/YXoJ7GPPhPswD6ucMJD3Bx9qBVeLWRKh/QHkT00Q1b1zyXmIfEOF1KA1cMndpIC9e/pPwLG9GSfLmFFhnHqXTwlUbWBdKreGwwnEQoTacwXHYrIBkRvuAefEEgQ/Oxr2+30RO3kSgg16M5vPLehA79pMipXhBNNDYN1zSDQZSJnOQ9ME1ip+HFnzb4LT7wV47a9ALjGK5zoI0T5WVgKhzbPgHf0QfUUElIfR3NYEmv846TWdmkz+5CXjwG1XcIT4waKx3CkePon59Kht+ILnVFro7nAKsw9CBUUlp6VvwrHgXkOt4IqVIMpMLxvZsGhZb806hDtfwZdu5jI3FaxhyBxJJ/SS45jAVI6KDIwsK4Otr4KzZCS7dA9UhxsQ/uhSTm2eCicX2sFiuPykoOW1Zducw1UR5LzfB/HBCxFp3hs5wSq4DY7mdE49J7IawUYnUMHxful9CC/5I1yKUFX8HDKKxyAme3FoQL53yPVz2B7lZ7treJpyBjcpe1LRtUo1JAwgQo8hHkdVt2MQKmiFcBYV8XXXwP7bo0g8/wxCz1Bk/eG3mqnkrBqJTOkgw/2pxvZ6qRVcAVbs1yC5V/HlZm2MUatbBFaaT1x8DTJvo6KK7eKNi0TTZrQcjHyWVZB81NIrOBHBXdwo3PkJMppdgmTz+5GxYRlUTyqmJtdx+sYQTCQEDiRDIQRXvYHMWX2Q/Ok0Hs1viUT5cvCiwUDj08iFOxD56iaE1z+O+LBxtDRkFzmBAG2uAC2UeDiMrJL3gEVzED/uj8gMtODgjgD6PctGDEAaKEFWvGChIDInv4fAmAcFO5awkXzvPbi3/QoZjWidsJyk6+IS543vrzCjw8y9BWr/WoJ2DxmvUsrjJV6u8iefVhVPP6oS/U/kohOi59XuW+9SifKd6bIpV5RuP7bmIeXSC+XFI8qLrlHeBy2UN7WFimz+UEXiPDKSOjYaZekEPVTRZb9SsQnsxyQunBZem27Km3+aUq9zG+wjW8WrVrAsPV6kSxxvSTrTolVLlLvsfuXwU2TumkeYy8Qlo5lGL10Nz5fpdFJ5jqsqJkxUzrsTVLJotXIeGSvHVwQ/5XQ7TTkff6jcWFQ/w3joxFNmMEkTZRr7zm+tnKtHmqPijxo3A+BW0i5okIe8y0eaES0YiOCjt0L16orKlWuR1ysHXliO6EstERw2Qu04tTaTmz7rADX0a3gnl/IUzNMILjkJAUoDp+BcrqaacelaQKM/kycVW/NFa1alKA81Wm1mD6exosVgUTzK4iNa9BgC9PPGuTEXCHF2lfF9Cr5X4TU9Bdbwb2im8OsiX/Njb2S9QLf7SKvoDKJGmmRGio0mMz28aCUC996GaKAfMhf+B6qU+uG3tyPw+jgkhk3jHiBliwRxGFnVkDmczUFpZx+hVt+CQc8AZKaGh8grryD7Mgp/hsT/cbv8iktgn3olrEXvA7R5ce1lzJGHiigRiIUo6VQUzle/R3DTWKjeVBi0fTncsKtWIVG1hO9EEEQ6Zeys7lSgCb1L4PKbCoE8LjgaDdHguHwhxUrwHQguRlxaGjaPkAa4r2bTKe7RvWnrNy85uNumISgrss73wW5/sZD63bCDTPL8OERO/imCTz+BEFea0lP3xhuRcf+f4M6jMivbAe8ybtETSPJVCkyzOA5QTEq/9hVqBVcArRnE1nV27IBbOBSZEx+CN2Awos1OQg4WAvc9COf6axB8dwqS3FzMEJBFMZtRSTeT2DqVZwl4+mX350gU/A8yG7Ym+9A4FY+WR7a0xGhlRdFadoJ/PEraioPHdX+0cjZ9BR9RvIdoP3NHQVaLLOfS0I3vXoes2Jfc6S1FvOXVCLU+D1a4u36+aHZ/Flms47AjwSQPBIY4Q7AB8ROO5ykg2rWvTZG3Y8kGtBqffwn2ZRdyBojG5H+2Ic0I5xvm2S+2ZBBhnVoDG9MACTfK0WROL4ePWLYUsWOOkc/bAmMe4VQ/BXbvXrq1yHuTkX3aGewPK6b8pHo6cmrrwMe60eUIbBlPU2sxqcyAF2zELzuXmXxRl+JoF+yyGsPrMYYghOFu5iqsciJP7/SkeCAvBQh8JtO56PBoFoYCXeiDaMTZS/uX/4zZpY0nw2QCUnEJvFv/BNw5iodTaEN3PVo/M4lO8P7fCAT+NpYcqh/ND3Ru4Zk2fgWVZIsCD4pElllJTvYBZmTv4TtSeG8JVBa+EBehrm+ZEj37ChkZ5fz+XqWKS3Vc7tVl1ym1fZOK3D5aOf1HKBXZrbd/0psm0gD/dDupqx+vVjqiNFKKg1etmNLPrlYouh5L6sa8hMRMYBHJky0cuSZmz1WR39yt3PJyk48Wht6lXyvvsX/oOMGjlyJPxf50l4qjo1JrS0zZPX5rbiHtkfWtW5F5tYTqDqYLpnoUX7VExa6+ScWKikgMm0r9JRctTscVems1npxJrfvWeAMoGzKdlIFKoSBX/Wcu8ggzjN9+vtHYpqxfN0WOcqIxXcfcs8zXC5QadY+2CJLTJlfT9P5UvpjyXuo+RyV37FCq1bHpfLF+Eh9+QApMOFAw/fL+9QDAZVFS63OAH/e7niguVpXolCYs8eo7quq5F/S9cIKa8bnaLRzDuHfBL5W7ZYuq/PkVqoq2gFr4tRJulrYj/3pZqU9nabp8sNT8pSo67WMzIKlEuST+/g/lvvCqHhjfhPPmL+IAt1Zq5kxDbzxGGrobuq77tXJ3RxjPNfekxf1mKeMp7r3vHqWK1qbzPKuv8ubON8/VFFX//DdA1wqudEY3yIiO+9wlV89V8Weekg+hpAjrpJzNZfLha3N/7sVK/W1smmhnOrnhN6PT9wm001S7705PpeUpVc5XoORBX36dLqduvZ/2cYy7wgkVf+DRdLp3xkXKW7+enMepjqx0etW7U1X5xCnpe5lRkdmzlbrixuq0p59RzptvVd/P4cC+NoFMUKBUZaXZsBY6GPYEdM97U+q7v7WDK8Y9gXRdAVOlZB9TGJdpKene1+RAFCr16ut8r+zNtBGuviJ3jLgy3YHKRV8yXs3lXmiQim/aWF1eBuXBRwjsonQdX9TsGn2vqpj+8XfSvVtuU2rCt4Hc0vqnquyFV75VNvYa76dRHPgDz6uzruhb924p9UbZdvaKnZPATo4ZM0Zt2rTJ3P+XvynVvXdlJ6n+BqP2e9MO0badGOFiljhcKDLDoh83WMTl8AB6yH5+Qcr0awOVSzti8ova0JC2cps042+RRHVw+zdFgmadmDfp8OVSHlLm3x4hZ8L79PvSLt0j6Nf+6A+oGRpwLoV70wSrETLHfQD07FsjhfQXr6ezZrRO233zXXyLcwV9pg3FFhILHRu3b8CqVavw5ptvYuXKlboc8f1WG/u7qRVcsUEisSgmvP0uiteWkCK/OZ6xoqUk5pU8LtmxA5Jl21F24TVcI7UE/v1XWKvX6sJSxbnoav6IGV4d4qzo7uABWgYxbHTIZqOt2qduqi/2Ur72L5J7j6ACdCXK10lrhKwNW/jGjzYQq1MnPMvXBmg/o086zb7zAcQv5UG9l15E9qMPwDr7JOZxg5O/4vUK0uv2wAMP4Msvv8TEiRPx9NNP4qOPpstsT7exv0it4E6jA+OmG0dhayW9+DxaVLaZdp+2Vcm1tPU01nyYLHYz+/VF4WvPIbCDduvpJ8Id/1r62btysrF7JZekNYJdkI3MKB0+qaBJzsmjv5Z/NdN0fCv9wlxk7BEs2aHwbed0XinPO0i7HKgawa7iyu66k01KGe3pX9+AeDYH5qILdJrxVJN/xDZn3xL0lhUVFeH222/HyScPR3aDXPyHA+GffajR9F6jtYL71tvjuTKiGy7m4s4778TKNUVcF6RA5QQy63USI/RIJ0lUsBEN88LGiDZpichkemv46Jx+/Ob4EoLO4HNpVja/cMe9KwlCiB4oWQ1pGaSTqycKPWaykv9O4Ecz9+RcXYYLC70tkT+QL7QtBwb/HA53da2zh3N3dyqz8qEuvRANuvTgCkzekpeQgiN1QmjmzM/w6KOPYty4cWjQoCGaN2mOu35/V3U5XWffP6nW9l3gscceQx5PEcpbiy+99BI2btyIhx9+OF1BpJMEl9SJz1eAFErltf7c+0cj+/STYM35HJk/6Yzcygjcl8bBfnOCXu2gcUNymN6Q555CB6lJ/ysdLw1yTDu89QdCoSGP/Btw5RmJ5gOkND9ewcHhG+sS1OOPUcYTOAZn7TpgxKnAzJeAzj/hu8VvIWPwcNikRw0/hTialo1O0VXS012m/T333IPu3bvjFfpRLrroIjz//PM4/vjjuWfJFeABigUpuN/gmx1VVVXq5ptvViNHjlRDhgxRd911l5I0bZFJC2I+SODFX01JnhQQl6BTRbfdilUpTcyMQacrdf61Sj3wZ86DtjR/dqnEVSOVuvTXKllSou1ideVI5Zau0S5NmfwVk96WbqnkhHd4vi+hvFG3KtV5qFJvvKpU75P4LLGaGbhI2DZhqoquLdIWjaaByX5fdJl9/CxdulS9/PLL6osvvlCnnnqqmj59erqe1K/ZRs343po7IN8CK+rvHVRWVqJJkybgw/XIrl69GutK1uLqG65HrLJCex0a5XLfX88xo+i0a48yTF7sk2TteBdG2bkDmP8V3/nlhiG1eKBDR77l8w3US+8Al52L3QOuRE7p+9wro+9g0SJ4fc5E9IWHkbVpIwK3/9Y8Q1j4w49phnCLtC05v2UTJgh3kyuTVJ4UMUK7mDaaJBkZzhn9PoSeEymOZ5nS0lLNnWQejB8/nn6jgP7Wwzek6Z///CfFwkFsVu4N8X2l0SxRF154odq2bZsu8s4776gBA/qpSjqTp02fph7+60Nq0cIFxkoURpY/crThJ3JrKq16xCXNSTO9bnQbObiqXDllXJJq1tfsrxRXYLuWraRDgxwrU8H8N03K/R4h9ah0qlk2y62rZs2dxfVPXOe9/fbbas6cOep3v/udGjZsmKJVoGfk3//+d/WXv/xFxeOmXDXN6SZrjdQqFvwWZLEgf4mE6dwnn3yizjvvPA30zp071Tlnna1mzp6llizhyoodEEBNlw04smMggR+29DM0qD4s5po0YoM330r3bwTsdJ60K/emXdN2zXxmMU+qGjGlFN8GUu9Nma5uuOE6VbZzh5o3d6bq0qWzuvHGGxV1iXr33XfVOeeco6666ipp7pCDmRecSLUFvVjg9MrIyKC56uDjjz+GKLuCggI0atgIHTq2w1aaaa1at8fdd/8Bu7bwJGLKTCKVnKzGLJKNbD1HOXNFKeuzECm1JaXEvpSgzSG5ylTW7j0jZsQakRJMZqC1wh1lEQPyDF3TVMfEKRNxxcWXYPu2bXwixRIrOIkkNmzfRP3WBSWrS1FQ2FwrqcmTJ2L58qU444wzkJOTg/PPP1+3Lm0eUjjQ4ak5LWrG+cUOddHFl6o77rhDxZIxdd8f7lWjR49WZ555hlpTuk7FEnG1YvlSHiCMKycZ15wkUzTNjCRg6tRpatvmUrU7QmcLg7TvixJdNj3tq+v503zhwq/UBeefozaUrjdtCyfT53H5NdeqF+hA2r5ti3ru+RcUv5GjKiOVauhJQ9RxQ45V55z7cz0TBw0aoO699x5y7y9VLBZJf96lZh81USm6/PiBXA9Ioe1v9CKRiH4hr1OnTtrgvvXWW/HnP/8Z9913H1577TVQdoFWBfLz83HcccfpN87lKx8DBw7UcckTcycWi+kXpk877bQ9HucbY9WTjOIJolzli03//ve/kZmZqesK14mpKKfTOcX1tVXL5rj//vsxb948LOBKi/IVfxnzsKZ1xYoVmPHhDK285H2MMHeNzz333D2ef/C3xnA8+PrI5kKgc+fOelrK2410dGDWrFm47rrr9AFkAU46S07A9ddfjxkzZmjtewx3MMj1emDk81YyFZ988kkNmADet29fLFu2DH369MGkSZO05h40aBB69OiGq6++loaF0eL9+vXTgJWUlGDu3Lm6/lFHHQUpKy9hjxrF799we6jvsf3xr389iyuvvBLNCpvh8ksuR+O8xtqGJRfqQZk/f/4hIPHdqtXs8N28/ypFjPHBgwdrI3vEiBE46aSTtGxu1aoVtm/fjgsuuEBzxrp16zB06FCdJ4sT4cKZM2di/fr1+PTTTzVAW7Zs0a+hPvHEE3wZz8Hv7ribXLdYy/K1/A7DwgWL0aZVBw2qcKtwsQzWggUL9DNef/11dO3aFbRZ9UffZGCHDx+u02SGyWDdcsstWn9IJ4V2oZPK7L/qc22FD5lz5QEy8jVXOmILy728BC2iQThRFJ90cge9YJdxN1WAFE5p3749mjeXgxeW5kbhyKlTp2oxIV/Dkw9YtG/fjh0/G089+That26NJs0K+GpUGyxevFhzJq0VbYc2a9ZMtylTXJ7NRQ+6deuGCRMmGO8dn+HT6l99gPa899MP5XpYwK0JrBAj9z6xIg/lT+7F4qDi0/kChLy4R1+pFgFigRx77LHk1ISe2mV0rMhSU04qFhQ2RNt2LfnRoBG6jUsvvVjL2DVr1uhl+VlnnaW5cOzYsXoAZakuz/Plt09LTaBq0ujTXDN/b3Vq5h9I/JAV2oE8xC+zL4IlXcKeg5SuJ3n+zV6uNdutGZeiNe9rxvfSzGFPOmwytzbKanZM4jWDgLonsH4ZLhSMXavriOUgNq34dU1c2vHr1nyGpEuQPL8tv5zJ2f+vX2f/pfaf+71w7t467RPvd3hvZXzSBVdi9IML3wu4PzhUDhPB35tYOEz0/qCa+RHcIzhcP4J7BMH9//hSoymnrxC0AAAAAElFTkSuQmCC;" vertex="1" parent="1">
          <mxGeometry x="109.06" y="590" width="51.87" height="62" as="geometry" />
        </mxCell>
        <mxCell id="bClpd55n1A1ZBGnzMknM-118" value="" style="rounded=1;whiteSpace=wrap;html=1;labelBackgroundColor=#0085FC;labelBorderColor=default;strokeColor=default;fontSize=30;fontColor=#000000;fillColor=none;" vertex="1" parent="1">
          <mxGeometry x="60" y="590" width="150" height="100" as="geometry" />
        </mxCell>
        <mxCell id="bClpd55n1A1ZBGnzMknM-121" value="" style="endArrow=none;endFill=1;endSize=12;html=1;rounded=0;fontSize=30;fontColor=#000000;" edge="1" parent="1">
          <mxGeometry width="160" relative="1" as="geometry">
            <mxPoint x="270" y="584.7099999999999" as="sourcePoint" />
            <mxPoint x="270" y="695.3" as="targetPoint" />
          </mxGeometry>
        </mxCell>
        <mxCell id="bClpd55n1A1ZBGnzMknM-129" value="" style="endArrow=none;endFill=1;endSize=12;html=1;rounded=0;fontSize=30;fontColor=#000000;" edge="1" parent="1">
          <mxGeometry width="160" relative="1" as="geometry">
            <mxPoint x="560" y="584.7" as="sourcePoint" />
            <mxPoint x="560" y="695.2900000000002" as="targetPoint" />
          </mxGeometry>
        </mxCell>
        <mxCell id="bClpd55n1A1ZBGnzMknM-130" value="" style="rounded=1;whiteSpace=wrap;html=1;labelBackgroundColor=#0085FC;labelBorderColor=default;strokeColor=default;fontSize=30;fontColor=#000000;fillColor=#000000;" vertex="1" parent="1">
          <mxGeometry x="340" y="590" width="150" height="100" as="geometry" />
        </mxCell>
        <mxCell id="bClpd55n1A1ZBGnzMknM-131" value="" style="shape=image;verticalLabelPosition=bottom;labelBackgroundColor=default;verticalAlign=top;aspect=fixed;imageAspect=0;image=data:image/jpeg,/9j/4AAQSkZJRgABAQAAhACEAAD/4QCARXhpZgAATU0AKgAAAAgABQEGAAMAAAABAAIAAAEaAAUAAAABAAAASgEbAAUAAAABAAAAUgEoAAMAAAABAAIAAIdpAAQAAAABAAAAWgAAAAAAAACEAAAAAQAAAIQAAAABAAKgAgAEAAAAAQAABACgAwAEAAAAAQAABAAAAAAA/+0AOFBob3Rvc2hvcCAzLjAAOEJJTQQEAAAAAAAAOEJJTQQlAAAAAAAQ1B2M2Y8AsgTpgAmY7PhCfv/iAjRJQ0NfUFJPRklMRQABAQAAAiRhcHBsBAAAAG1udHJSR0IgWFlaIAfhAAcABwANABYAIGFjc3BBUFBMAAAAAEFQUEwAAAAAAAAAAAAAAAAAAAAAAAD21gABAAAAANMtYXBwbMoalYIlfxBNOJkT1dHqFYIAAAAAAAAAAAAAAAAAAAAAAAAAAAAAAAAAAAAAAAAACmRlc2MAAAD8AAAAZWNwcnQAAAFkAAAAI3d0cHQAAAGIAAAAFHJYWVoAAAGcAAAAFGdYWVoAAAGwAAAAFGJYWVoAAAHEAAAAFHJUUkMAAAHYAAAAIGNoYWQAAAH4AAAALGJUUkMAAAHYAAAAIGdUUkMAAAHYAAAAIGRlc2MAAAAAAAAAC0Rpc3BsYXkgUDMAAAAAAAAAAAAAAAAAAAAAAAAAAAAAAAAAAAAAAAAAAAAAAAAAAAAAAAAAAAAAAAAAAAAAAAAAAAAAAAAAAAAAAAAAAAAAAAAAAAAAAAAAAAAAdGV4dAAAAABDb3B5cmlnaHQgQXBwbGUgSW5jLiwgMjAxNwAAWFlaIAAAAAAAAPNRAAEAAAABFsxYWVogAAAAAAAAg98AAD2/////u1hZWiAAAAAAAABKvwAAsTcAAAq5WFlaIAAAAAAAACg4AAARCwAAyLlwYXJhAAAAAAADAAAAAmZmAADypwAADVkAABPQAAAKW3NmMzIAAAAAAAEMQgAABd7///MmAAAHkwAA/ZD///ui///9owAAA9wAAMBu/8AAEQgEAAQAAwEiAAIRAQMRAf/EAB8AAAEFAQEBAQEBAAAAAAAAAAABAgMEBQYHCAkKC//EALUQAAIBAwMCBAMFBQQEAAABfQECAwAEEQUSITFBBhNRYQcicRQygZGhCCNCscEVUtHwJDNicoIJChYXGBkaJSYnKCkqNDU2Nzg5OkNERUZHSElKU1RVVldYWVpjZGVmZ2hpanN0dXZ3eHl6g4SFhoeIiYqSk5SVlpeYmZqio6Slpqeoqaqys7S1tre4ubrCw8TFxsfIycrS09TV1tfY2drh4uPk5ebn6Onq8fLz9PX29/j5+v/EAB8BAAMBAQEBAQEBAQEAAAAAAAABAgMEBQYHCAkKC//EALURAAIBAgQEAwQHBQQEAAECdwABAgMRBAUhMQYSQVEHYXETIjKBCBRCkaGxwQkjM1LwFWJy0QoWJDThJfEXGBkaJicoKSo1Njc4OTpDREVGR0hJSlNUVVZXWFlaY2RlZmdoaWpzdHV2d3h5eoKDhIWGh4iJipKTlJWWl5iZmqKjpKWmp6ipqrKztLW2t7i5usLDxMXGx8jJytLT1NXW19jZ2uLj5OXm5+jp6vLz9PX29/j5+v/bAEMAAQEBAQEBAgEBAgMCAgIDBAMDAwMEBQQEBAQEBQYFBQUFBQUGBgYGBgYGBgcHBwcHBwgICAgICQkJCQkJCQkJCf/bAEMBAQEBAgICBAICBAkGBQYJCQkJCQkJCQkJCQkJCQkJCQkJCQkJCQkJCQkJCQkJCQkJCQkJCQkJCQkJCQkJCQkJCf/dAAQAQP/aAAwDAQACEQMRAD8A/gXooooAKKKKACiiigAooooAKKKKACiiigAooooAKKKKACiiigAooooAKKKKACiiigAooooAKKKKACiiigAooooAKKKKACiiigAooooAKKKKACiiigAooooAKKKKACiiigAooooAKKKKACiiigAooooAKKKKACiiigAooooAKKKKACiiigAooooAKKKKACiiigAooooAKKKKACiiigAooooAKKKKACiiigAooooAKKKKACiiigAooooAKKKKACiiigAooooAKKKKACiiigAooooAKKKKACiiigAooooAKKKKACiiigAooooAKKKKACiiigAooooAKKKKACiiigAooooA/9D+Fb4r/wDJUvEv/YVvP/R71wFdt8S7y11D4j+INQsZBLDPqV3JG6nIZWmYqQfQg5riaACiiigAooooAKKKKACiiigAooooAKKKKACiiigAooooAKKKKACiiigAooooAKKKKACiiigAooooAKKKKACiiigAooooAKKKKACiiigAooooAKKKKACiiigAooooAKKKKACiiigAooooAKKKKACiiigAooooAKKKKACiiigAooooAKKKKACiiigAooooAKKKKACiiigAooooAKKKKACiiigAooooAKKKKACiiigAooooAKKKKACiiigAooooAKKKKACiiigAooooAKKKKACiiigAooooAKKKKACiiigAooooAKKKKACiiigAooooAKKKKACiiigAooooAKKKKAP/0f4Fyc80UUUAFFFFABRRRQAUUUUAFFFFABRRRQAUUUUAFFFFABRRRQAUUUUAFFFFABRRRQAUUUUAFFFFABRRRQAUUUUAFFFFABRRRQAUUUUAFFFFABRRRQAUUUUAFFFFABRRRQAUUUUAFFFFABRRRQAUUUUAFFFFABRRRQAUUUUAFFFFABRRRQAUUUUAFFFFABRRRQAUUUUAFFFFABRRRQAUUUUAFFFFABRRRQAUUUUAFFFFABRRRQAUUUUAFFFFABRRRQAUUUUAFFFFABRRRQAUUUUAFFFFABRRRQAUUUUAFFFFABRRRQAUUUUAFFFFABRRRQAUUUUAFFFFABRRRQAUUUUAf//S/gXooooAKKKKACiiigAooooAKKKKACiiigAooooAKKKKACiiigAooooAKKKKACiiigAooooAKKKKACiiigAooooAKKKKACiiigAooooAKKKKACiiigAooooAKKKKACiiigAooooAKKKKACiiigAooooAKKKKACiiigAooooAKKKKACiiigAooooAKKKKACiiigAooooAKKKKACiiigAooooAKKKKACiiigAooooAKKKKACiiigAooooAKKKKACiiigAooooAKKKKACiiigAooooAKKKKACiiigAooooAKKKKACiiigAooooAKKKKACiiigAooooAKKKKACiiigAooooA/9P+BeiiigAooooAKKKKACiiigAooooAKKKKACiiigAooooAKKKKACiiigAooooAKKKKACiiigAooooAKKKKACiiigAooooAKKKKACiiigAooooAKKKKACiiigAooooAKKKKACiiigAooooAKKKKACiiigAooooAKKKKACiiigAooooAKKKKACiiigAooooAKKKKACiiigAooooAKKKKACiiigAooooAKKKKACiiigAooooAKKKKACiiigAooooAKKKKACiiigAooooAKKKKACiiigAooooAKKKKACiiigAooooAKKKKACiiigAooooAKKKKACiiigAooooAKKKKACiiigD/1P4F6KKKACiiigAooooAKKKKACiiigAooooAKKKKACiiigAooooAKKKKACiiigAooooAKKKKACiiigAooooAKKKKACiiigAooooAKKKKACiiigAooooAKKKKACiiigAooooAKKKKACiiigAooooAKKKKACiiigAooooAKKKKACiiigAooooAKKKKACiiigAooooAKKKKACiiigAooooAKKKKACiiigAooooAKKKKACiiigAooooAKKKKACiiigAooooAKKKKACiiigAooooAKKKKACiiigAooooAKKKKACiiigAooooAKKKKACiiigAooooAKKKKACiiigAooooAKKKKAP/V/gWHSloooAKKKKACiiigAooooAKKKKACiiigAooooAKKKKACiiigAooooAKKKKACiiigAooooAKKKKACiiigAooooAKKKKACiiigAooooAKKKKACiiigAooooAKKKKACiiigAooooAKKKKACiiigAooooAKKKKACiiigAooooAKKKKACiiigAooooAKKKKACiiigAooooAKKKKACiiigAooooAKKKKACiiigAooooAKKKKACiiigAooooAKKKKACiiigAooooAKKKKACiiigAooooAKKKKACiiigAooooAKKKKACiiigAooooAKKKKACiiigAooooAKKKKACiiigAooooA//1v4F6KKKACiiigAooooAKKKKACiiigAooooAKKKKACiiigAooooAKKKKACiiigAooooAKKKKACiiigAooooAKKKKACiiigAooooAKKKKACiiigAooooAKKKKACiiigAooooAKKKKACiiigAooooAKKKKACiiigAooooAKKKKACiiigAooooAKKKKACiiigAooooAKKKKACiiigAooooAKKKKACiiigAooooAKKKKACiiigAooooAKKKKACiiigAooooAKKKKACiiigAooooAKKKKACiiigAooooAKKKKACiiigAooooAKKKKACiiigAooooAKKKKACiiigAooooAKKKKAP/X/gXopB1NLQAUUUUAFFFFABRRRQAUUUUAFFFFABRRRQAUUUUAFFFFABRRRQAUUUUAFFFFABRRRQAUUUUAFFFFABRRRQAUUUUAFFFFABRRRQAUUUUAFFFFABRRRQAUUUUAFFFFABRRRQAUUUUAFFFFABRRRQAUUUUAFFFFABRRRQAUUUUAFFFFABRRRQAUUUUAFFFFABRRRQAUUUUAFFFFABRRRQAUUUUAFFFFABRRRQAUUoBJwK9N8AfBr4n/ABQ1GPSvAuiXepTSkBRDEzZJ+goA8xor9/v2Xv8Ag3I/4KF/tHG31BvDj6Hp82CZ70eWAD7Hmv6Hf2c/+DOfQrSKC++O3i3e+AXitlz9RmgD/PpjgmlO2NCx9hW3beFfEt4N1rYzyD/ZRj/Sv9Zj4Qf8Gyn/AATd+GMUT6locutTpjc9y3BI9hX6D+Cf+CSn7APgOFYdH+HWlvs6GWIP/MUAf4v8Hwr+I1zH5sGi3jL6iF/8Ky73wL4x0/P23TLmLHXdEw/pX+31a/sGfsh2cfk2/gHR1T0+zJj+VcR4x/4JlfsPeOLN7LWvh3pG1xgmO3RT+YFAH+IvNbz27bZ0ZCOxGKhr/WJ/ag/4Nhf2BvjdplzP4KsH8Oai4JjeD7gY9Miv43/+CjP/AAbYftU/shR3fjH4d2r+JvD0JZvMt1LOqD1Uc9KAP5lqK2de8Paz4Y1KXSNetntbmFirpIpUgj2NY1ABRRRQAUUUUAFFFFABRRRQAUUUUAFFFFABRRRQAUUUUAFFFFABRRRQAUUUUAFFFFABRRRQAUUUUAFFFFAH/9D+BeiiigAooooAKKKKACiiigAooooAKKKKACiiigAooooAKKKKACiiigAooooAKKKKACiiigAooooAKKKKACiiigAooooAKKKKACiiigAooooAKKKKACiiigAooooAKKKKACiiigAooooAKKKKACiiigAooooAKKKKACiiigAooooAKKKKACiiigAooooAKKKKACiiigAooooAKKKKACiiigAooooAKKmgt57qUQ2yGR24AUZNfqJ+xT/wSQ/a2/bW8RW1h4B8PXMVhKwD3UqFY1U98kUAfl7bWtzeTLb2kbSSMcBVGSa/Sb9kr/glB+2J+1/rFvZfDjwvd/ZpiB9okjKoAe+SK/vA/wCCdv8Awa1/AL4FQWPjL9oQr4g1dArmAj92rdcV/VD8Mvgv8Mvg9oUPh34d6PbaZawKFVYY1XgfQUAfxT/sKf8ABol4Q0JLPxb+1hqxu5xtdrG3+6D6M1f1Y/s5f8E0f2O/2X9Ngs/hl4NsIJYAAJniVn475Ir74ooAr21pa2cSwWkaxIowFUAAfgKsUUUAFFFFABRRRQAVl6xoula/p8ulazAlzbzKVeORQykHqCDWpRQB/Fh/wXi/4N7PCXxV8K6p+0T+zDpqWetWqNPdWUCACQDklQO9f5ynjDwjrvgXxHd+FvElu9teWcjRyRuMEMpweDX+9hfWVtqNpJY3iCSKVSrKwyCDwRX+bJ/wdHf8ErrP4GfEZf2ovhbYCLR9bcm7SJcKkp5J49aAP4xKKCMcUUAFFFFABRRRQAUUUUAFFFFABRRRQAUUUUAFFFFABRRRQAUUUUAFFFFABRRRQAUUUUAFFFFABRRRQB//0f4F6KKKACiiigAooooAKKKKACiiigAooooAKKKKACiiigAooooAKKKKACiiigAooooAKKKKACiiigAooooAKKKKACiiigAooooAKKKKACiiigAooooAKKKKACiiigAooooAKKKKACiiigAooooAKKKKACiiigAooooAKKKKACiiigAooooAKKKKACiiigAooooAKKKKACiiigAooooAKKK6Xwr4Q8SeNtYh0HwvZy3t1OwVI4lLEk/SgDmgM8CvrT9mP9i349ftXeL7bwp8KtDub1rhwpkVCVGe5OK/os/4JY/8Gznxp/aRuNP+I/x9hfQ9BYrJ5UilXdevQ+tf6Cv7H3/BPP8AZv8A2MvB9r4b+FmhW8M8KKr3JRTIxA65xmgD+Xj/AIJf/wDBrL4K8BQaf8Sf2qiL28wsv2HGQDwcNmv7GfhN8Dvhd8EPDUHhT4aaNbaXaW6BFWGNVJx6kCvWAABgUtABRRRQAUUUUAFFFFABRRRQAUUUUAFFFFABX5mf8FbP2ZdG/aj/AGJvGHgfULdZ7iGzkuLckZIeNSeK/TOuV8caXDrXg/U9KnXclxbSIQe4KkUAf4QnxN8JXXgXx5qvhS9UpJY3MkRB4+6xFcJX6L/8FV/AUHw6/bg8ceH7ZNka6hMwH1Y1+dFABRRRQAUUUUAFFFFABRRRQAUUUUAFFFFABRRRQAUUUUAFFFFABRRRQAUUUUAFFFFABRRRQAUUUUAf/9L+BbvS0UUAFFFFABRRRQAUUUUAFFFFABRRRQAUUUUAFFFFABRRRQAUUUUAFFFFABRRRQAUUUUAFFFFABRRRQAUUUUAFFFFABRRRQAUUUUAFFFFABRRRQAUUUUAFFFFABRRRQAUUUUAFFFFABRRRQAUUUUAFFFFABRRRQAUUUUAFFFFABRRRQAUUUUAFFFFABRRRQAUUUUAFFFFABSgEnArS0jRtT17UItL0iB7ieZgqIgJJJ9hX9V3/BIT/g3K+LX7Veraf8T/AI720mjeGAyybJFKvKvXAB9aAPxP/YZ/4Jp/tIft0+O7Xwv8MNFuHtJXAlumQiNFJ5JOMV/o5f8ABLL/AIN2/wBnr9jLSLLxn8ULSLxB4oCq7NKoZI368A+lftb+yr+xn8DP2QvANr4F+Eei29jHAiq0qoA7kDqzYzX1hQBn6XpOm6LZR6dpUKW8EQCqiAKAB6AVoUUUAFFFFABRRRQAUUUUAFFFc54l8XeGfB2myav4nvobG2iBZpJnCKAPc0AdHRX8+/7bf/BxD+xV+yktzouhaoniPV4cqIrZgy7h2yM9697/AOCTv7cfxc/4KCeC9Q+OXijTP7H8PPIY7CHHLgfxE0AfsbRRRQAUUUUAFZuskDSbkt0ET/yrSrg/ihrUXh34e6zrczbVtrSVyT7KaAP8dD/gt7cQ3H/BQrxyYMYF7IOPqa/IqvvH/gpX48HxF/bM8b+I1fesmozAHOejGvg6gAooooAKKKKACiiigAooooAKKKKACiiigAooooAKKKKACiiigAooooAKKKKACiiigAooooAKKKKAP//T/gXooooAKKKKACiiigAooooAKKKKACiiigAooooAKKKKACiiigAooooAKKKKACiiigAooooAKKKKACiiigAooooAKKKKACiiigAooooAKKKKACiiigAooooAKKKKACiiigAooooAKKKKACiiigAooooAKKKKACiiigAooooAKKKKACiiigAooooAKKKKACiiigAooooAK9l+CfwH+JPx98Z2ngj4c6bNf3d1IEAjQtjJx2r6h/YX/wCCd/xz/bd+Iln4U+H+lzPaySKJZ9h2qpPJz0r/AE5f+CUf/BEb4IfsJ+DrLXtcsIdQ8TtGrSTyIG2NjnGaAPyY/wCCMn/Btr4V+FFrp3xq/aftUvNUIWaKzkXIQ9RuBr+zvwx4V8P+DdHg0Hw3ax2lrbqESONQoAAx0FbsUUcEYihUKqjAA6VJQAUUUUAFFFFABRRRQAUUUUAFUNS1TTtGspNR1WZLeCIFndyFUAepNfIf7XP7df7Pf7GfgW68afF/XLez8lCyQFx5jkDoF61/nk/8FV/+DmL41ftLX2ofDb9nuaTQPDe5o/NiYiSVeRkketAH9c3/AAUh/wCDgr9lz9jDTLzw94T1CLX/ABDGGVYoHDKrj1I96/gV/b0/4L2fth/tkard6dHrU2j6JIzBba3coNvocYr8TvFvjXxR451aXW/FN7LeXMzFmeVixJP1NcrQB9Sfs2fDLxz+1L+0FoPw+hebULzVr2NGJJckMwyTX+zx+wd+zjon7LP7MHhb4SaPCsJsLOMTYGMyFRuJ/Gv4TP8Ag1A/4J1SfEL4oXH7VPjiy3WGjcWZkXhpexGfSv8AR1RFRQijAHAoAdRRRQAUUUUAFfnv/wAFQvi/a/BX9i7xr4uuJREy2EqISccspFfoRX8jP/B15+1Qnww/ZWg+Emm3Oy61x8MgPO2gD/NB+J/iKXxb8QNX8RTNva7upZCf95ia4Onu5kcu3UnNMoAKKKKACiiigAooooAKKKKACiiigAooooAKKKKACiiigAooooAKKKKACiiigAooooAKKKKACiiigD//1P4Fu9LRRQAUUUUAFFFFABRRRQAUUUUAFFFFABRRRQAUUUUAFFFFABRRRQAUUUUAFFFFABRRRQAUUUUAFFFFABRRRQAUUUUAFFFFABRRRQAUUUUAFFFFABRRRQAUUUUAFFFFABRRRQAUUUUAFFFFABRRRQAUUUUAFFFFABRRRQAUUUUAFFFFABRRRQAUUUUAFFFWrKyutRuUs7JDJJIcKqjJJNAFdEaRgiDJPAAr9x/+CUv/AARu+NX7enxAs7yXT5bTw7HIrTXEiELtzzgn2r7A/wCCM3/BBb4mftf+LLD4i/FKyksPDUTrITKpG9Qc8Zr/AEx/2Z/2XfhX+y18O7L4e/DPTorOC1jVGZFALEDqTigDwX9hD/gnb8EP2HPhvZeE/Aemwi9SNRNc7BvZgOecV+hQAAwKKKACiiigAooooAKKKKACiivOfij8V/Avwd8JXXjTx/qEWn2Nohd3lYLwBnvQB3d9f2WmWj32oSrDDGCzO5AAA7kmv5k/+CtH/BxD8Dv2NdGv/h/8ILqLXPFe1owY2DJE/TnHoa/Dj/gtT/wcm634wudR+Bn7K121rYKWhmvYmwz9jgiv4ivGfjjxR8QNeuPEniy8kvLu5cu8krFiSTnqaAPrr9sv/goH+0P+2v47uvF/xX1u4uI5nZo7fefLRSegHSvhiiigAr3T9m/4L+JPj98Y9D+GHhiBp7nU7qOIBRnhmArwxQWIUdTX9z//AAakf8Ey18YeK5/2tviTp+6000gaf5q8NJ6jPpQB/Z7/AMEz/wBkLw7+xj+yh4Z+FOkQLFcx2scl2wGC0rKC2a/QOmoixoI0GAowBTqACiiigAooooAhuJktoHuJThUUsSfQV/lff8HSH7WS/G79sV/h7pNx5tl4fBiIU5G4Hmv9J79tH406Z8A/2cPFHxH1OUQiysZWUk4+bacV/iuftc/F7Ufjl+0F4m+IuoymVr+9ldSTngscUAfNdFFFABRRRQAUUUUAFFFFABRRRQAUUUUAFFFFABRRRQAUUUUAFFFFABRRRQAUUUUAFFFFABRRRQAUUUUAf//V/gXooooAKKKKACiiigAooooAKKKKACiiigAooooAKKKKACiiigAooooAKKKKACiiigAooooAKKKKACiiigAooooAKKKKACiiigAooooAKKKKACiiigAooooAKKKKACiiigAooooAKKKKACiiigAooooAKKKKACiiigAooooAKKKKACiiigAooooAKKK6bwl4Q1/xvrkHh7w5bPc3Vw4REQEkknHagDP0TQ9U8RalFpOjwtPcTMFVEGSSfav7RP8Aghp/wb2698XtQsPjp+0TZNbaTGVmiglXBk7jg9q+j/8AghB/wb5G4On/ALQX7SVhiMbZre1mXr0IyDX96fhPwloHgjQrfw54btktbS1QIkcahQABgcCgDmvhZ8J/BHwc8I2ngvwJYxWNlaII1SNQvAGO1ek0UUAFFFFABRRRQAUUUUAFFFfm5/wUJ/4KR/BL9g34YXninxvqMJ1IRMbe1DDezY44zQB7x+1d+1/8Hv2RPhze+P8A4o6nDaJbxsyRM4DOQMgAZr/Mo/4LE/8ABeL4vftpeL77wL8Pr6TTfC8TtGiRMV3rnGTjrxXxb/wVB/4K1fG39vn4l3t5qeoTW+hrIwgtlchAmeOPpX46MzOxZjkmgCe6uri9na5unMkjnJYnJJNV6KKACiipYIJLmZYIRuZyAAPU0AfX/wCwv+y74r/a2/aK8PfCXwxbvOb66jWUqCQqbhkn8K/2Zf2I/wBmLwl+yT+zt4e+D3hS3SBbC1jExUYLybRuJ/Gv5Nv+DVb/AIJkr4F8ISftZfEWwxeXo22HmryFP8QzX9wAAAwKACiiigAooooAKKKy9b1W20PSLnV7xgkVvG0jE9AFGaAP5Lv+Dqr9tCH4Q/syR/BfQrrZf66dsiqcHZ71/mETSvPK00hyzkk/jX9Bv/BxP+2Zc/tPftr6vo+m3Rm0zQpGt4wGyuVODX891ABRRRQAUUUUAFFFFABRRRQAUUUUAFFFFABRRRQAUUUUAFFFFABRRRQAUUUUAFFFFABRRRQAUUUUAFFFFAH/1v4F6KKKACiiigAooooAKKKKACiiigAooooAKKKKACiiigAooooAKKKKACiiigAooooAKKKKACiiigAooooAKKKKACiiigAooooAKKKKACiiigAooooAKKKKACiiigAooooAKKKKACiiigAooooAKKKKACiiigAooooAKKKKACiiigAooooAKKK9B+Gnw08V/FbxXa+EfCFrJdXV04RVRS3JOO1AFT4ffD/xP8TPE9r4T8J2sl3d3ThESMEnJOO1f6F3/BCf/g3z0n4f6dp37QH7R1iJLyQLNb2sq9O4JBrvv+CD/wDwQQ8O/BvR9O+Pfx5sFn1WVVmggmXOwnkEg1/Zlp+n2elWcen6fGsUMShVVRgACgCromh6V4c0uHR9FgS3t4FCIiAAAD2Fa1FFABRRRQAUUUUAFFFFABRQSAMmvxH/AOCtX/BXf4T/ALAnwvvra2vornxNPEywQKwJViOCRQB1v/BVH/grL8Hf+CfXwuvLm9vornxFLGwt7VWBYNjgkV/laft7/wDBQn4zftx/FO+8a+O9SmktZZGMMG87FXPAA6VxP7av7bHxY/bM+K1/8QPiDqEtws8rNHGzEqqk8ACviugAooooAKKKKACv1I/4JL/sReJP22P2rdA8CWVs0unR3CSXT4yoRWBOa/MvRdIvde1WDSNPQyTXDhEUDJJY4r/Uc/4Nof8Agmnafsz/AAAi+NnjWxCa7ryLJGXX5lQjIxmgD+kz4BfB7wz8CPhRo3wx8KQLb2ml20cIVRgEqoBNeyUUUAFFFFABRRRQAV+TX/BZT9rnSv2Sf2L/ABL4rluFhvru2eC2GcEs4xxX6xuyopdjgAZNf5xn/B2R+3efG/xOs/2bPCt5vtdM5uVRuN/ocGgD+M74meNNS+IXjvVPGOrSGWe/uHlZmOT8zE1wtFFABRRRQAUUUUAFFFFABRRRQAUUUUAFFFFABRRRQAUUUUAFFFFABRRRQAUUUUAFFFFABRRRQAUUUUAFFFFAH//X/gXopDS0AFFFFABRRRQAUUUUAFFFFABRRRQAUUUUAFFFFABRRRQAUUUUAFFFFABRRRQAUUUUAFFFFABRRRQAUUUUAFFFFABRRRQAUUUUAFFFFABRRRQAUUUUAFFFFABRRRQAUUUUAFFFFABRRRQAUUUUAFFFFABRRRQAUUUUAFFFFABRRXTeEfCWueN9ft/Dnh6B7i6uXCIiDJyTigDS+Hvw+8S/EzxRa+FPCts9zdXThFVASck+1f6L/wDwQR/4IS6T8JtD0/49fHXT1fUZVWWCGZeVzyDg153/AMG/P/BB+x8D6dYftGftAaeHunCzW1vMvTuCQa/t/wBN0yx0exi03TYlhhhUKiKMAAUAGnadZ6TZR6fp8axRRKFVVGAAKvUUUAFFFFABRRRQAUUUUAFISFG49BQSFG49BX4P/wDBYb/gsH8Mf2CPhhfaNpN7Fc+KLqJkhhVgWQkdSKALH/BXz/gsL8LP2Cfhle6VpV9Fc+J7iJkhhRgSjEcE1/ldfti/tj/FT9r/AOKOofED4g6hLc/aZWZEZiVUE8ACs79rn9rr4pftc/FHUPiH8RNQluWuZWdEdiQoJ4AFfJ1ABRRRQAUUUUAFFFdd4E8Iar488WWPhTRYmmuL2VYkVRkkscUAfuT/AMEDP+Ce2q/tlftW6VqWr2jSaHo8yTzsVyp2nOPSv9bzwL4P0jwF4TsPCWhRLDbWMKRIqjAAUY6V+F3/AAQG/wCCfelfsefsp6ZrWr2axa5rUSzTMVwwDDIFfv8AUAFFFFABRRRQAUUUE45oA+UP21v2gtC/Zn/Z08SfFPW5lhFjZyNHk4y+04xX+Lz+2j8f9e/aT/aI8SfFHXZ2ma+vJWQsc4XccV/c1/wdh/8ABQn/AIRjwrafst+DLzE10N92Ebt6HFf53ju0jl3OSTk0ANooooAKKKKACiiigAooooAKKKKACiiigAooooAKKKKACiiigAooooAKKKKACiiigAooooAKKKKACiiigAooooA//9D+BeiiigAooooAKKKKACiiigAooooAKKKKACiiigAooooAKKKKACiiigAooooAKKKKACiiigAooooAKKKKACiiigAooooAKKKKACiiigAooooAKKKKACiiigAooooAKKKKACiiigAooooAKKKKACiiigAooooAKKKKACiiigAooqzZ2lzf3KWdoheSQhVUdSTQBa0fSNQ13UodJ0uJpp52CoijJJNf3jf8G9n/AAQnk1KSw/aV+Pun4hXbLawTL97uDg18p/8ABv7/AMEPNW+N/iex+PXxq09o9HtXWWKOVcB8cjrX+kR4J8GaB4A8NWnhTw1bpbWlnGsaIgAACjHagDU0LQ9L8N6VBoujwrBb26BERBgADpWvRRQAUUUUAFFFFABRRRQAUhIAyaWvx8/4Ksf8FRPhn+wZ8IL+8lvYn1+aJlt4Qw3BiODigDz7/gr/AP8ABXH4Z/sBfCa+tLC9iuPFFzEy28CsCyMRwSM1/lLfte/tdfFP9rv4q6j8RviLqEt091MzojMSFUngAV0/7bv7aPxO/bH+Leo+P/HV/LcLPMzRozEhVJ4AFfEtABRRRQAUUUUAFFFFABX9R/8Awbaf8E4L79p79o+0+KniuyL6JocizFnX5WZTkda/nA+Dfw11v4tfEbSvAmgwtNcahcJEqqMn5iBX+wb/AMEYv2GtF/Yw/ZL0TRGtVi1bUIEmuWwA2WAODQB+t2iaPY6BpNvo2moI4LZFjRQMABRgVq0UUAFFFFABRRRQAV4n+0P8XdD+B3wh1v4ka/MsMGm2skuWOBlVJFe2V/H7/wAHTH7fyfBr4FJ8B/Cd4E1DWgRMEbDBD2OKAP4N/wDgqD+1drv7W/7WPiX4ialcNNAbqRIMnICBiBivzpqxd3M15cyXc5LPIxZifU81XoAKKKKACiiigAooooAKKKKACiiigAooooAKKKKACiiigAooooAKKKKACiiigAooooAKKKKACiiigAooooAKKKKAP//R/gWPSloooAKKKKACiiigAooooAKKKKACiiigAooooAKKKKACiiigAooooAKKKKACiiigAooooAKKKKACiiigAooooAKKKKACiiigAooooAKKKKACiiigAooooAKKKKACiiigAooooAKKKKACiiigAooooAKKKKACiiigAooooAfHHJNIIohlmOABX9Rf/BCH/gjD4q/a6+I1l8TviNYvD4dspFlJkXhwDnAyK+Mf+COv/BLjx7+3N8a9PluLGQaFbSo88rKdu0HnnpX+sV+yz+zP8P8A9l34Wad8OfAtnHbR2sSo7IoBYgAEnFAHoXwd+EPgz4J+BrHwJ4Is47Ozso1jVUAGdoxnivVKKKACiiigAooooAKKKKACiivkf9sj9rb4c/sh/B/UviV46vY4Ps0LNFGzAF2A4AFAHi//AAUb/b/+HH7DvwX1Hxj4jvI11DyWFvCWAYtjjiv8mP8A4KK/8FAvib+278YdR8XeJb6V7Jpm8mIsdoXPHFe8f8FaP+CpnxL/AG8PjDqE8l7ImhwyssEIY7doPHFfjGTnk0AFFFFABRRRQAUUUUAFFFexfAb4U678aPino/w98PwtNPqFwkQVRn7zAUAf1K/8Gv8A/wAE4J/jt8c0+O/jSx36RobCSMuvys45Ff6b9lZ2+n2kdlaqEjiUKoHQADAr8xv+CSv7F+g/sY/sleH/AARa2yxajc28c10wGCWZQcGv1DoAKKKKACiiigAooooA4D4oeOtK+G3gPU/GesyCKCwt3lZmOB8oJr/Hn/4LUftm6v8Atdftf6/rZuTNp9lcPDbrnKhVJHFf39f8HI/7d1l+zR+yheeANDvBFq+vI0IVWwwUjB6HNf5SOuatd67q1xq98xeW4dnYnkkk5oAyqKKKACiiigAooooAKKKKACiiigAooooAKKKKACiiigAooooAKKKKACiiigAooooAKKKKACiiigAooooAKKKKACiiigD/0v4F6KKByM0AFFFFABRRRQAUUUUAFFFFABRRRQAUUUUAFFFFABRRRQAUUUUAFFFFABRRRQAUUUUAFFFFABRRRQAUUUUAFFFFABRRRQAUUUUAFFFFABRRRQAUUUUAFFFFABRRRQAUUUUAFFFFABRRRQAUUUUAFFFFABRRRQAV90/sFfsWfEP9s742aX8PPCNnJNDNMgmdVJAXPOTXzh8FPg/4u+N3xA0/wF4PtXubq9lWMBAT1IHav9V//ghd/wAEmPCf7E/wasfGviyxjbxLqMKyMzqNyZGcUAfoB/wTV/YD+Hv7DXwL0zwZoNnGupGFDczBRuL455r9J6KKACiiigAooooAKKKKACiiuO8e+OfDnw58LXni7xTcpa2dnG0jvIQBhRnvQBxPx3+OPgf9n/4d6h8Q/Hd5HaWljE0hLsBnAzgZr/LD/wCC3/8AwWF8bftp/FW/8GeEb6SPw3ZytHGiMQrAHGTivsD/AIOAP+C2WvftEeNL74G/CK/aPQbN2idomwHwcHoa/kIuLia6ma4uGLO5ySepNAEbMzsXc5J5JptFFABRRRQAUUUUAFFFFAABniv7Jf8Ag1q/4JwSfGX4w/8ADRPjayLaXorB4S6/Kzg8YzX8nPwI+Feu/Gb4p6P8PvD8LTXGoXMcQVRk4ZgK/wBkP/gkx+x7ov7Hf7I/h7wNa2yw301uk1ywGCXZQeaAP04t4IrWBLaAbUjAVQOwFTUUUAFFFFABRRRQAVg+J9fsfC2gXfiDUnEcNpE0jMeAAozW9X4Y/wDBeT9tzTP2SP2OtZjtboRarrEL28Cg4b5hjNAH+f7/AMHCP7dF/wDtW/td6roumXZl0nRpWgiUNlflOK/nvrrfHPirUPGviy+8T6m5kmvJnlZickljmuSoAKKKKACiiigAooooAKKKKACiiigAooooAKKKKACiiigAooooAKKKKACiiigAooooAKKKKACiiigAooooAKKKKACiiigD/9P+BegcDFFFABRRRQAUUUUAFFFFABRRRQAUUUUAFFFFABRRRQAUUUUAFFFFABRRRQAUUUUAFFFFABRRRQAUUUUAFFFFABRRRQAUUUUAFFFFABRRRQAUUUUAFFFFABRRRQAUUUUAFFFFABRRRQAUUUUAFFFFABRRRQAVqaLo9/r+qQaRpkZlnnYIiqMkk1mojOwRBkngAV/Vv/wb3f8ABIHWP2ofijZfGH4lWLLoGnSLKBIvD4Occ0Afsr/wbhf8EYYfBek2n7S/xl04faZQslpHMnTuDzX9xdtbQ2lulrbqESMBVA4AArmfA/gvQfh94Xs/CfhuBLe0s41jREGAAoxXW0AFFFFABRRRQAUUUUAFFFNd0jQySHCqMk0AUNX1aw0PTptV1SVYYIFLu7HAAFfwLf8ABxT/AMFu2vJLz9mr4G6jthTdFdTQv1PQjIr9JP8Ag4N/4LH6D+zh8Pb34I/C/UVbXLxGjlMTfMmRjHBr/Mr+IPj3xD8SPFN34r8SzvcXN3I0jM5yck5oA5vV9Wvtc1GXVNSkaWaZizMxySTWbRRQAUUUUAFFFFABRRRQAUUV6H8KvAmqfEnx7png7SIzLNezpGFUZ+8QKAP6r/8Ag14/4J9SfGz49L8cPFlmX07RWDxM6/KXHTGa/wBOWztYbG1js7cBUjUKoHoK/Hn/AIIp/sY6V+yR+yFoWmNbCHUdQgSac4w2WGea/Y+gAooooAKKKKACiiigCrfXcNhZy3twdqRKWYnsBX+XF/wc8ft5XHx8/aWl+Enh688zS9BYxFVb5SwPNf6BH/BUv9qfSP2Uv2SvEvjq8uFhuXtZIoMnBLspAxX+NL+0B8UNW+MHxZ1rx5rErTS31zJJuY56sTQB4xRRRQAUUUUAFFFFABRRRQAUUUUAFFFFABRRRQAUUUUAFFFFABRRRQAUUUUAFFFFABRRRQAUUUUAFFFFABRRRQAUUUUAFFFFAH//1P4F6KKBxQAUUUUAFFFFABRRRQAUUUUAFFFFABRRRQAUUUUAFFFFABRRRQAUUUUAFFFFABRRRQAUUUUAFFFFABRRRQAUUUUAFFFFABRRRQAUUUUAFFFFABRRRQAUUUUAFFFFABRRRQAUUUUAFFFFABRRRQAUUV678D/g74s+OXxF074e+ELZ7m6v5ljAQE43HHagD7r/AOCWf7AXjr9uL9oHSvCej2ckmnJOjXEu0lQoPOa/13v2Mf2UfA37JHwY0v4a+ELVITbQosrqACzAc5r82v8AgiH/AMEvPCf7C/7Punapq9mh8SanCsk8jKNybhnFfu/QAUUUUAFFFFABRRRQAUUUUAFfjL/wWA/4KY+B/wBhH4E6hcLeR/29eQulvEGG4EjGcZzX3t+11+1D4C/ZR+Duq/E7xvdx26WkLtErMAXcDgCv8iv/AIKvf8FFfH37dHx+1TxDqN5I2lRTOtvFuO0KDxxQB8X/ALVP7Snjf9p74r6n8RvGV09xJdzO6hmJwCa+Z6KKACiiigAooooAKKKKACiiigAr+lb/AINxP2Frn9pj9q3T/GGsWpk0zRpFmdmXK5U5r+b/AELSbnXdYttIs1LyXEiooHUknFf6vn/Bt5+xDafs3/sk2XjvWLQRaprqLKSy4baRmgD+jnQ9ItNB0i20axQJDbRrGqjoAoxWrRRQAUUUUAFFFFABSEhQWPQUteHftHfFjSPgp8G9e+ImsyrDFp9pJIGY45CnFAH8L3/B2T+3iNR1iz/Zs8KXnyW3zXKo38R7Gv4MmJYlj1Nffn/BSb9pLV/2m/2qfE3j3UJzNFJdyiPJyAu44xXwFQAUUUUAFFFFABRRRQAUUUUAFFFFABRRRQAUUUUAFFFFABRRRQAUUUUAFFFFABRRRQAUUUUAFFFFABRRRQAUUUUAFFFFABRRRQB//9X+BeiiigAooooAKKKKACiiigAooooAKKKKACiiigAooooAKKKKACiiigAooooAKKKKACiiigAooooAKKKKACiiigAooooAKKKKACiiigAooooAKKKKACiiigAooooAKKKKACiiigAooooAKKKKACiiigC5p9hdanex2FmpeWVgqqOpJr/QO/4Nov8AgkJBpVrb/tO/FvTsyHD2iTL36g81/O7/AMELf+CZnib9tn9ofTtW1S0c6DpsqyzSMvykKc9elf6zPwe+Ffhj4NeANO8A+E7dLe1sIViUIMZ2jFAHpNvBFawLbwKFRAAAOwFTUUUAFFFFABRRRQAUUUUAFch478baD8PPC154t8STrb2llG0ju5wMKM11csscEbTSnaqjJJ7Cv4lf+Dkj/gsRB8N9Buf2avhHqA+2Tq0d1JE3IzwRwaAPxX/4OEP+CwGs/tOfEi8+D3w5v2XQtPkaIiNjhsHB6V/Jw7vI5kc5J5JrU17W9R8R6tPrOqyGWedy7MxySSc1kUAFFFFABRRRQAUUUUAFFFFABRRTkRpHCLyScCgD9Uv+CQH7KWqftWfth+G/CEFuZrWK5jkmOMgKrZOa/wBkb4S+AtL+GXw60jwPo8Yig0+2jiVVGB8qgV/FD/waZfsMDQfDV9+0j4otMSz/ACWzOvb1Ga/ukoAKKKKACiiigAooooAK/lE/4Ohf224/gh+zMfhLoF35eoa2CrqrYbaRX9UuvatbaFo9zq94wSK3jaRiegCjNf5LH/BxP+2ZeftKftiapoWn3Rm07R5GgjAOV+U4oA/nnvrybULyW9uDueVizE+pqpRRQAUUUUAFFFFABRRRQAUUUUAFFFFABRRRQAUUUUAFFFFABRRRQAUUUUAFFFFABRRRQAUUUUAFFFFABRRRQAUUUUAFFFFABRRRQB//1v4F6KKKACiiigAooooAKKKKACiiigAooooAKKKKACiiigAooooAKKKKACiiigAooooAKKKKACiiigAooooAKKKKACiiigAooooAKKKKACiiigAooooAKKKKACiiigAooooAKKKKACiiigAooooAK+gP2aPgN4s/aK+Lek/DXwlbPcz306RkICcAnHavCbGyudRu47GzUvLKwVVHJJNf6Hf/AAbHf8Eko/Ceiw/tS/FnTh58wD2ayrz6g80Af0X/APBIr/gnz4Q/YZ/Zu0nw/b2iJrN3Akl1JtAbcQDiv1spkcaRII4xhVGAPYU+gAooooAKKKKACiiigAoorwf9o/47eEv2dvhPqvxM8X3KW8FhA7jeQMkA4HNAH5rf8FkP+CkXhH9hv9nzU5YLxF129heO3jDDcCRjOM1/keftIfHjxf8AtD/FLU/iJ4vunuZ72Z3Bck4BJNfo7/wWH/4KMeMv23f2hdVv2vXfSLaZ0gjDErtBIHGa/GagAooooAKKKKACiiigAooooAKKKKACvc/2cPhdqfxh+MWh+BNLiMsl9dRx4AzwWFeGV/UF/wAGzH7G7/Hr9rO08d6tamWw0VhMWZflyDkUAf6Mv/BNj9nTTP2aP2UPC/gGzgEMqWkbygDB3FQTmvvmqlhZw6fZRWNuAqRKFUDsAMVboAKKKKACiiigAoooJAGTQB+Wv/BXj9qLT/2Xv2OPE3ip7gQ3dxayQwc4O5lxxX+Nn8XvHOo/Ef4i6t4w1OQyy3txJIWJz1Ymv7nv+DtD9tUyX1j+z34duvliG6dFbv71/AwzFmLN1NACUUUUAFFFFABRRRQAUUUUAFFFFABRRRQAUUUUAFFFFABRRRQAUUUUAFFFFABRRRQAUUUUAFFFFABRRRQAUUUUAFFFFABRRRQAUUUUAf/X/gXooo96ACiiigAooooAKKKKACiiigAooooAKKKKACiiigAooooAKKKKACiiigAooooAKKKKACiiigAooooAKKKKACiiigAooooAKKKKACiiigAooooAKKKKACiiigAooooAKKKKACiiigAoor6Y/ZS/Zw8ZftN/F7Svhx4RtnuJLydEbaCcAkZoA/Wr/ghX/wAExfEv7a37Quna3rlk58P6bMsszsvykKQcelf6zPwp+Gvhr4R+A9N8BeFLdLaz0+FIkRAAPlGK/Of/AIJNf8E//CH7Df7Oek+HLW1RNXuYEe5k2jduI6Zr9XaACiiigAooooAKKKKACiiigCre3ttp1pJfXbhIolLMx4AA5r/PE/4OZf8AgrxP4w1+b9mL4R35+xWpMd08TcM3Q9K/pP8A+C63/BS7w9+xT+zrqGgaLeKviHVoXiiVWAZQwxnrmv8AJg+LfxM8Q/Fvx5qHjjxLO09zezNIWY5PzHNAHnM88tzM087FnckknuTUVFFABRRRQAUUUUAFFFFABRRRQAUUUUAXNPs5tQvorGAbnlcKAPUmv9Uf/g2M/Y0i+BP7KEXxJ1i18u/1wBwzDB2kZr/OK/4J7/Ai/wD2g/2ofDHgW0hMyTXkW8AZ+XcM1/tDfsx/CzTPg18EfD3gDS4hFHY2cSEAY5CjNAHvlFFFABRRRQAUUUUAFec/Fvxxp/w5+HWreMtTkEcVjbSSkk4HyqTXo1fgj/wcEftWQ/s6/sX6vZWlz5N7q0TQoAcEgigD/Nd/4K8/tMX/AO0r+2D4l8USzmaCO6kSPnIADEV+V9dF4q1q88SeIrzWrwl5LiVnJPuc1geXJ/dP5UAMop/lSYztOPpSbG9DQA2ilKsOopKACiiigAooooAKKKKACiiigAooooAKKKKACiiigAooooAKKKKACiiigAooooAKKKKACiiigAooooAKKKKACiiigAooooA//9D+Beiij2oAKKKKACiiigAooooAKKKKACiiigAooooAKKKKACiiigAooooAKKKKACiiigAooooAKKKKACiiigAooooAKKKKACiiigAooooAKKKKACiiigAooooAKKKKACiiigAooooAKKKUAk4FAGnouj3+v6pBpGmxmWedwiKoySScV/pEf8G1n/BJC0+FPgq2/aQ+Kenj7fdqHtVlXkZ5zzX85P8Awb9f8Esta/a4+ONj8QPF1i39g6ZKsrs6/K2057iv9UnwB4I0L4deEbHwf4cgW3tLGJYkRRgAKMdqAOujRIkEcYwqjAAp9FFABRRRQAUUUUAFFFFABXhH7R3x28Jfs7/CnVfiV4vuEggsIHkG4gZIHAr3C5uYLO3e6uWCRxgsxPAAFf58H/Bzd/wVvOvaxN+y/wDCe/zbwEpdtE3BPQjigD+c3/gsP/wUD8Uftt/tIarrT3byaXbTukCbiVCg8YFfjvU1xcS3U73E7FnckknuTUNABRRRQAUUUoVj0FACUVettM1C7YJbQu5PoCa9I8PfBP4neKHVNF0e5mLdNsbH+lAHlNFfoL8PP+CaH7VvxFdBo3hm8IfGD5Td/wAK/Qv4W/8ABu7+2n4/WOWfR5bdHxkspFAH899OCOegJr+zj4Tf8Gm3x015Y5/Fl0tqGwSDX6RfDH/g0m8E6cI5PF+pq543AUAf52EWnX05xFE7fQGtqz8F+KtQYLaWE0hPohr/AFO/h3/wbHfsjeGEjOsxC5ZcZ+UV9o+Bv+CEv7EHg1kdfD8MxX+8ooA/kS/4NZP2EfEPiX46y/GTxppckNtpgDRtKhA3e2RX+ktFGsMaxIMBQAPwrxD4I/s6fCf9nzQ/7A+GGkwabCfveUoUn64r3OgAooooAKKKKACiiigAr8Rv+Cp3/BLK+/4KLLZ6NrGqGz061/gHc/Sv25ooA/ij0z/g0g+EkJzc6qX9ciu0tP8Ag01+BqNiXUOPpX9lFFAH8dEn/Bpx+z/1N8SfpWbN/wAGm/wKf5Yr4r+Ff2U0UAfxR63/AMGjvwku1JtNXKn/AHa8b8Q/8GhGkSBhomuKD23Cv7wKKAP87jxX/wAGg/xKhy2ia5E57AV80eL/APg0x/au03cdAdbrHTFf6b1FAH+Ud4k/4Na/+ChenxtLo+kJc46LvANfM/i//g3O/wCCqXhtWlsvhre36L3haM/+hOK/2CMLQVU8YoA/xWfFn/BGr/gpt4OV31T4NeJZQnX7NZvP+kW818cePf2Yv2jvhZM8HxK8B+INAZPvf2hpt1bAfjLGor/dqMMJ6oD+FcJ4u+FPwz8fWj2Pjbw/p+rQyDDJd20cykH1DqaAP8GSa3nt3Mc6MjDswIP61DX+1t8Uf+CQP/BNn4uW80fiz4N+FxLMCGuLbTreCbnuHjQNmvyB+M//AAaMf8E0/iP9rvvBcmt+F7ufJjFtcq0KMenyMhOPbNAH+WPRX9x3xp/4Mt/jPpkl1efBD4lWGoRLuMMF/C0bkdgWXIzX4lfG3/g3G/4KqfBNby7vfAR1mzs9xM2nSibcq91Xr+FAH4TUV6j4++CHxj+Fl1JafEjwtquhvExRvt1nNANw6gM6gH8K8uoAKKKKACiiigAooooAKKKKACiiigAooooAKKKKACiiigAooooAKKKKACiiigD/0f4F6PeiigAooooAKKKKACiiigAooooAKKKKACiiigAooooAKKKKACiiigAooooAKKKKACiiigAooooAKKKKACiiigAooooAKKKKACiiigAooooAKKKKACiiigAooooAKKKKACiiigAr7D/Yn/ZZ8YftWfGzSfh74ZtXnFxOiyFVJABIzXyr4e0LUPEus2+iaXGZZ7lwiqoySScV/pff8G3P/BJyx+CHw3tvj/8AEuwA1S+RXt1kXkA855FAH70f8EzP2JPCP7F37POkeCtJtUivmgRrhwoDFsc5r9IaaiKihEGAOBTqACiiigAooooAKKKKACiivKvjP8UNH+EHw81LxxrLYSzhZwO5IHAFAH5D/wDBcH/gpL4c/Yd/Zq1O00y8RfEOqwvFboGG5dwIziv8j74yfFTxL8ZPiFqXj3xTcPcXV/M8hZySfmJNf0U/8FT7z9sj/gpj+0rqN54X0W+uNFgmaO2XY+zaDgYryT4I/wDBuT+218U5IZb7SXsYZMZMgIwDQB/PAAT0q7babf3bBLaF3J9ATX93HwC/4NGvE1wIbz4oaskQ4LKOTX7TfAv/AINk/wBkX4bxxSeJ4hqMqYzuUc4oA/y6PDXwS+KPi2VYdC0a6nL8DbGx/pX2h8LP+CVX7YHxVnij0TwtdhZOjNEwHP4V/rPfCz/glf8AsefCmOMaF4VtGePGGeNSf5V9peG/g98NPCUSw6Bo1rbKvTZGo/pQB/l4/BH/AINjv2u/iCYZvENqbGN8bt4IwDX7F/BD/g0f0+IQ3PxH1UZ4LKor+8WGytLZdsESoPYAVZwB0oA/mq+DP/BtD+xd8Plil8QWf2+RME7gO1fpz8OP+CVf7GPwzijj0PwjaEx4wXjUnj8K/RyigDyDw18BfhF4RjWLQNBs7cL02xKP6V6Za6NpNkgS0to4wOm1QK06KAECqv3RiloooAKKKKACiiigAooooAKKKKACiiigAooooAKKKKACiiigAooooAKKKKACiiigAooooAKKKKACmuiSLtcBgex5p1FAHgPxe/ZY/Z4+PWkPofxe8H6Xr9q/VLu2jk/mK/Bf9q3/AINVv+CZn7QIvta+H2jXHgHWroExzaXK4t0f1+zFvLP4AV/TNRQB/mN/ti/8GfX7a/waa4179mjxDp/xH0mGFpTC6GxvgRn92kRaVZDjoQy59K/mK+PX7Jv7SH7MPieTwf8AHvwXq3hbUIxnytQtZYMr/eUuoBB9RxX+6zXi/wAbv2dfgf8AtIeD7jwF8cvDFh4m0q6XbJBexB+PZvvKfcEUAf4Q5GODRX+g7/wVc/4NNvCmo3t/8Xf2AjJYRyI002gTv5irJkki3bAITGMK2SPWv4U/jz+zp8X/ANmzxxd/D/4v6Jc6PqFo5RknjZAcHqCRyKAPDqKKKACiiigAooooAKKKKACiiigAooooAKKKKACiiigAooooA//S/gXooooAKKKKACiiigAooooAKKKKACiiigAooooAKKKKACiiigAooooAKKKKACiiigAooooAKKKKACiiigAooooAKKKKACiiigAooooAKKKKACiiigAooooAKKKKACiiigApQCTgdTSV9j/sQ/sueLf2q/jlpHw78N2rzrcToshVSQASM0Aftv8A8G+P/BK/Wf2rPjZY/EnxnYt/YemyrKS6/Kdpz3r/AFNvA/g7RvAXhay8J6BCsFrZRLEiKMABRivhb/gmz+xT4Q/Yz/Z90jwTo9qkV6YEa4cLgliBnmv0VoAKKKKACiiigAooooAKKKKACvOviF8MfDPxO07+x/FkX2i0P3oj90/WvRaKAPCPCP7NHwS8Dgf8I74ftICP4hGuf5V7LZ6PpenoI7K3jiUdlUCtKigAAxwKKKKACiiigAooooAKKKKACiiigAooooAKKKKACiiigAooooAKKKKACiiigAooooAKKKKACiiigAooooAKKKKACiiigAooooAKKKKACiiigAooooAKKKKACvyk/wCClv8AwSa/Zu/4KK/DK90Px1pUFr4gETfY9TiQCaOTHy5IGSM1+rdFAH+In/wUJ/YJ+Kv/AAT/APj1qnwd+I0DGOCVvstyAQk0WflYH6V8F1/psf8AB1t+x94Y+JP7NSfG+ztkXV9DOTKANxTuCa/zKWG1ivpQA2iiigAooooAKKKKACiiigAooooAKKKKACiiigAooooA/9P+BeiikPFAC0UUUAFFFFABRRRQAUUUUAFFFFABRRRQAUUUUAFFFFABRRRQAUUUUAFFFFABRRRQAUUUUAFFFFABRRRQAUUUUAFFFFABRRRQAUUUUAFFFFABRRRQAUU9I3kO1ASfavQ/CPwl+Injm5S08L6Tc3bucARxsc5+goA85or9h/2ff+CJP7b3x8mgfRvC9zbQSkfPKhUYP1Ff0E/sy/8ABo78RtYS21T4zaklqrYZ4x1+lAH8SPhnwvrfizV4NF0W3kuJrhwiqikkkmv9Jz/g2z/4JRRfBfwLb/Hz4mab5epXah4BKuGGec8iv0R/ZD/4N2/2Lf2bL+08RanpMer6jbbWDTAEbh3xX77+HvDui+FdJh0Pw/bJaWtuoRI4wAoA6cCgDYVVRQi8AcCnUUUAFFFFABRRRQAUUUUAFFFFABRRRQAUUUUAFFFFABRRRQAUUUUAFFFFABRRRQAUUUUAFFFFABRRRQAUUUUAFFFFABRRRQAUUUUAFFFFABRRRQAUUUUAFFFFABRRRQAUUUUAFFFFABRRRQAUUUUAFFFFABRRX5Y/8FAP+Cv/AOxj/wAE9fC15dfFbxRa3PiCJGMGjWkiy3Tv2VkUkpz13UAfl9/wc8/H7wr8Pv2L9S8F306fbdVHlRxkjcc+1f5WMjbpGb1JNfrz/wAFZP8Agq78Tf8AgpZ8YrrxVq6tYaBDIwsrIHhEzxn3x1r8g6ACiiigAooooAKKKKACiiigAooooAKKKKACiiigAooooA//1P4F6KKKACiiigAooooAKKKKACiiigAooooAKKKKACiiigAooooAKKKKACiiigAooooAKKKKACiiigAooooAKKKKACiiigAooooAKKKUAk4AzQAlFdn4Z+HvjTxjeJY+G9NuLuRzgCONmz+Qr9Lf2ff+CNH7cH7Qt3BH4Z8KXUEMxH7yaNlUA/UUAfk/V6z0zUdQkENlC8rNwAqk1/b9+yj/AMGhnxR19bbWvjzrkNhE2GeGPJbHpX9Hf7NP/BuD+wp8C4oLnW9JXXLuLBLTgEEj2oA/y7PhJ+xD+0r8ar2Kz8CeFr27MpABWJsc++K/dv8AZZ/4Ndv20vjMINU8bWq6JZyYJ87hsH2r/TP+G37LHwD+ElnHZeA/DNjYLGAFKRKDx74r3yC2t7ZBHboqKOgUYoA/ji/Zg/4NNfgR4DNvqPxhvhqkyYLxr90mv6B/gP8A8ErP2MPgBYw2/hHwdYtLCABJJErNx35Ffo5RQBzei+D/AAt4ct1tdDsILWNRgLGiqB+VdGABwKWigAooooAKKKKACiiigAooooAKKKKACiiigAooooAKKKKACiiigAooooAKKKKACiiigAooooAKKKKACiiigAooooAKKKKACiiigAooooAKKKKACiiigAooooAKKKKACiiigAooooAKKTI9a5XXvHfgvwshk8R6taWIH/PeZE/9CNAHV0V8bfEz/goR+xX8HVz8R/iToWmMQSEku4yxx6AEmvhzxN/wcLf8EmfCjTR6r8U7MNCWXCRu+4r/AHdoOc9qAP2sor+VX4q/8Hen/BMfwXZTHwFa+IPE93CxXy1t0to3A/iSRmckfVRX5peO/wDg9s0Wx1W4h+HfwQfULM8QyXmq/ZpAfVlSCUNj0BGfagD+9emvIkal5CFA5JJxiv8AMb+MH/B47+3343t5rT4c+FvD/hYMx8uSNJZ3VewbzGIJ9xivyJ+O/wDwXl/4KkftBG4t/F3xR1Gxsrg5NpphFrEv0KfP+BY0Af65Hxa/bF/Zb+BenS6p8WfHuiaHFCrO32i8iDYX72FDZJHoOa/AD9rj/g7I/wCCc3wGiudJ+Dcl78RtVjBCNZJ5NoWwcHzZPmYZ4Pyiv8u3xn8UPiL8RL19Q8c65e6tM7Fy11O8vzHqfmJrhKAP6dP26P8Ag6n/AOCiv7VSXnhL4S30Pwu8MXIZDDo2ftsiHHEl437wdxiPYCDht1fzZeLfGvi7x7rU3iLxpqdzqt/cMWknupGlkYn1ZiTXMUUAFFFFABRRRQAUUUUAFFFFABRRRQAUUUUAFFFFABRRRQAUUUUAf//V/gXpD0paKACiiigAooooAKKKKACiiigAooooAKKKKACiiigAooooAKKKKACiiigAooooAKKKKACiiigAooooAKKK2NK8P63rk622kWsty7HAEalifyoAx6K++PgL/wAEzv2zf2idVg0/4eeBdUuEmIAl8hwgz3JIr+hf9mP/AINIv2pviEbbUvjFex6BbSYLo3LgHrxQB/HpHDLM22JSx9AM17N8OP2ePjJ8V9Qj03wN4fvb+SQgDy4mI5+gr/Tl/Zb/AODWP9ib4LxW9/8AEMP4lvYwC3mj5MjrxX7yfBj9iX9mH4CWEdj8NvB+m2PlgAOLdC3HuRmgD/Lj/Zj/AODcL9vD4/tb3d/or6LZzYJkuQVwD3wa/pJ/ZR/4NCfht4YNrrXx91438gwzwQjA+ma/t3t7Kzs0EdrEkSjoFAA/IVZoA/L39nn/AII//sM/s52sK+EfBllPcQgDzp4w7ZHfkV+jOg+CPCHheBbXw9ptvZxoMBYo1UAfgK6migBAAOBS0UUAFFFFABRRRQAUUUUAFFFFABRRRQAUUUUAFFFFABRRRQAUUUUAFFFFABRRRQAUUUUAFFFFABRRRQAUUhIHU1GZ4V6sKAJaKpSalYRcyTIPqwrGvPGXhewUtd30EeOu5wKAOmorye8+OXwosJBFd67ZoxOMGVc5/OvSNL1Sx1myTUdNkEsMgyrLyCPagDQooooAKKKKACiiigAooqjqd9FpunTahMcJCjOT7AZoAullXqcVCbq3X7zqPxr+Dr/gp1/wci/Er4C/tEav8LPhvj7Np0jRbl9VOK/IvxP/AMHPn7V2qoRZXTxk9waAP9TFtU01PvzoPqwqlJ4l0CE4ku4h9XFf5KniH/g4t/bW1UsLbWJo8+jGvG9W/wCC8H7cWqEmTxJcLn0c0Af6/N18Q/BNmM3OqWyfWRf8a527+NvwssebrXLRMesq1/jsa1/wWR/bL1rPn+JbrJ/6aN/jXmGrf8FRf2udWUrP4nu+f+mjf40Af7J15+0/8CbDP2rxLYrj1mX/ABrg9a/bm/Zh0JS174ssRj0lU/1r/Gc1X9u/9pjWCTeeJrw5/wCmrf41wt9+1b8d9QyLnxDdtn/po3+NAH+xj4j/AOCrH7G3hzd9r8V2p2+ki/4189+Lv+C7X7DPhQN5niKKbb/cYGv8hrUPjV8T9Uz9t1m5fPXMjf41yVz4y8UXmftN9M+fVzQB/qweO/8Ag5n/AGL/AA1G/wDZc/2grnHzDmvhP4jf8Ha3wY0nzF8Mab5xH3ea/wA3KXUb+fmaZ2+pNUyzN1OaAP7qPiJ/wd3/ABCn8yPwVpqQZzg4zX5+fE3/AIOmf20/E7Sf8I9ftZ7s4KcYr+VmigD9mPiv/wAF2P8AgoV8VUa31Xx5qccLZwiXDqBn0ANfCPjb9tv9qb4gwta+KfG+r3ULnmN7qUr+W7FfKtFAHQaj4s8TawxbVL+4uCeT5kjN/MmsFndzliT9abRQAUUUUAFFFFABRRRQAUUUUAFFFFABRRRQAUUUUAFFFFABRRRQAUUUUAFFFFABRRRQAUUUUAf/1v4F6KKKACikHQUtABRRRQAUUUUAFFFFABRRRQAUUUUAFFFFABRRRQAUUUUAFFFFABRRRQAUUVZtLK7v51tbKNpZHOAqgkk/QUAVqK/Uv9kX/gjt+3N+2Vf26fDDwjcx2UxGbu6UxRAHvkiv6zv2MP8Agzv0PTfsniP9rLxMbhxtaSxsfu57gsaAP4F/Cfw/8aeOb9NN8JaZcX88hAVIY2Ykn6Cv1y/Zi/4IL/8ABQ39py5tpPDvg+fT7KcjM95+6UKe/PNf6hn7M3/BIr9g79lXT4IPhv4EsDdQgf6VcoJZSR3y2R+lfo7peiaPolutppFrFbRqMBY1CgD8BQB/B1+yZ/wZ22cENtrH7TfidS/DSWtmM/UbjX9H37Nf/BB7/gnr+zZbQNoPhGHUruED9/eASEkd8EV+zdFAHBeDfhf8Pvh9ZpYeDdItdOiQYCwxqvH4Cu9AxwKKKACiiigAooooAKKKKACiiigAooooAKKKKACiiigAooooAKKKKACiiigAoorN1bV9O0Owk1PVplggiG5nc4AA9zQBpUV8C+P/APgpZ+yN8OrqWy17xXZrLCSGUSKSCPxr488ff8F8P2E/A6vv1+O4ZM8IwP8AWgD9vaK/lg8e/wDB0v8AseeHjJHooe6K5xgivh/4if8AB3F8ObMuvhTSi/oSaAP7f6jaaFPvMB+Nf50/jv8A4O5fifd+ZH4Y0xIwc4r4s8b/APB0t+1v4g3rpkn2cNnG3igD/Ucn1nSbYZuLmNPqwFczqPxL8BaUpa/1a1ix/elUf1r/ACSPHH/Bwd+254u3r/bs8Ib+65FfIvi//grL+2L4vZvtviq9AbPAlYf1oA/2Ide/at+AnhxS+qeJbJNvX98v+NeB+J/+Cm/7IXhUMb/xXZ/L6SL/AI1/jqa9+2x+0f4hLf2h4nvXDeszf415TqXxz+K+qktfa5dSZ9ZG/wAaAP8AXm8X/wDBdT9hnwoHEviKGQrn7rA/1r5L8a/8HLv7GHh0OunXguCuehFf5Td3418VXxJu7+ZyfVzWJJqN/MSZZnbPqTQB/pe+NP8Ag69+A2mtIuhWYlx0JNfIvjT/AIO6FhZ18O6TGR2zX+fkZZG+8xP403JPWgD+2Lxj/wAHbHxjvw6aNYpF6Yr5U8Xf8HR37V+sbhp85hz02mv5R6KAP6FvFv8AwcUfts+IC3ka5PEG7KxH9a+avFP/AAWv/bY8TFvP8UXYDekjf41+P1FAH7U/slftt/tZftBftKeF/A994jvJ0vb6JXXzG5UsPev9dz4EaFceG/hFoGj3bFpYbKIOT1LbRmv8o7/g3C+Av/C4/wBvPRLuaLzIdNkWZsjIG05r/XCsbZLOzitYxhY0Cj8BQBaooooAKKKKACiiigAr5q/a9+IUHwv/AGdvFPjGeQRi0sJmBJxztOK+la/Cf/g4K+OSfB/9g7X7eKby5tSjaIc4JBFAH+Up+2H8Rbn4oftD+JvFtxIZDcXspBJzxuNfMVa+v3z6nrV1fyHLSyMxP1NZFABRRRQAUUUUAFFFFABRRRQAUUUUAFFFFABRRRQAUUUUAFFFFABRRRQAUUUUAFFFFABRRRQAUUUUAFFFFABRRRQAUUUUAFFFFABRRRQAUUUUAFFFFAH/1/4F6KKKACiiigAooooAKKKKACiiigAooooAKKKKACiiigAooooAKKKKACiiigAqa3t57uZbe2Qu7nAVRkkmvT/gz8GvHnx5+IGn/DX4c2T32p6jKsUUaAnljjJx2r/RL/4JDf8ABrf8Ifg3p+lfHD9sFl8SeIGVJ4tL24toDwRvzncRQB/Jj/wTv/4IG/to/t5Xdrr1jo02geGJWUtqF4hRSh6lAevFf3e/8E+f+DZ79h39ka1tfE3xK0lPG3iWMKxmv8tCjj+7Hnb19a/ou8KeEfDXgfQ7fw14SsodPsbVAkUMCBEVRwAAK6OgDk/CXgPwX4D0uPRfBml2umWkQCpFbRLGoA9lArrKKKACiiigAooooAKKKKACiiigAooooAKKKKACiiigAooooAKKKKACiiigAooooAKKKKACiiigAJAGTX8pX/Bxr/wU7P7Nnwim+E3gDUvI1jUEKuY2wygjHav6M/2nPjl4b/Z8+DusfEfxJOsEVlbu67jjLAHAr/Hs/wCCrf7aPiP9r39pfW/E11dNLZR3DrCu7I2gnGKAPhnxZ8ffix4x1a41XWdbupXncucyN3P1rzq68VeIr0k3d5LJn1cmufooAnkubiU5kdmPuahLMeppKKACiiigAooooAKKKKACiiigAooooAKKKKACiinIpdwg7nFAH90X/Bnr8E/7S+IXiL4pXUOVtYtqsR3Nf6Hlfyb/APBp/wDBqPwL+x3deMpYtsuqyj5iOcCv6yKACiiigAooooAKKKKACv4ff+Duj4+HSPh9o/wts5sGb5mUGv7gHbahb0Ga/wAu/wD4OsfjO3jL9rkeDIJt8enrtK56GgD+TIkkknvSUUUAFFFFABRRRQAUUUUAFFFFABRRRQAUUUUAFFFFABRRRQAUUUUAFFFFABRRRQAUUUUAFFFFABRRRQAUUUUAFFFFABRRRQAUUUUAFFFFABRRRQAUUUUAf//Q/gXooooAQcUtFFABRRRQAUUUUAFFFFABRRRQAUUUUAFFFFABRRRQAUUUUAFFFFAH9lH/AAal/sy+EPGvxZv/AIueJLaO4uLBgkG8A7T6iv8AStsIo4LSOKMYVQAMV/mJf8Gw37X/AIU+EfxSu/hp4muktmvnDRbyBuPpX+mv4V1aDXNBttVtWDxToHUjkEGgDoaKKKACiiigAorOvNY0nT1L391FAB1Mjqv8yK8n8VftH/s+eBoHufGPjjQdLSMEsbrUbaLGP9+QUAe00V+V3xH/AOC13/BMX4XPJD4i+LehyyRZytpcJcHj08skV8IfEX/g6j/4JM+BFdLDxLqetSrwFs7IlT/wJmFAH9IFFfxzeO/+DzD9h7RFkXwT4H1/WGGdpkkitwf0evhD4if8HsGszTPD8Nfg4kEfO2S71HefbKrEv86AP9Aiiv8AMt8b/wDB5B+3NrO8eDfDGj6SD93cnnEf99CvjDx9/wAHUf8AwVu8Zs8en+L7PSYnzhbWxt1I/wCBbM/rQB/rPl0HUgVmXuu6Jpq7tQvIYB/00dV/ma/xs/Fn/BeL/gqj4y8war8WNTUSdfJIj/LbivlbxT/wUb/bm8ZztceIvij4guC/UG8kA/LNAH+1xqPxv+DejlhqvinSrfb18y7iXH5tXhnjT/goF+xj8P4nl8T/ABI0GAIMkC9hYjHsGr/FE139oL44+Jy7eIPFmq3e/wC95l1Ic/rXlV5fXuoTG4v5nmkPVnYsfzNAH+xx4+/4L8/8Evvh6H/tP4jWly0eQRbESnj0wa+SvFv/AAdWf8EqPDWUttd1K+cZ4htGI/ME1/k40UAf6c3jH/g8G/YftJvsngLQdW1WVztQNEY8k9OtfvB/wTy/bf8AEv7c3w4/4WrJ4Yk8PaXMAYBMSXcHviv8o7/gkz+xR4j/AGwf2mtE8N21q8tjFcI0zbSRtBGa/wBhX9nD4LeHfgJ8ItH+HHhuBYIbC3SMhRjJAGaAPdqKKKACiiigAooooAKKKKACmu6xoZHOAoyTTq+Ff+ChH7VPh39k/wDZ11v4g6vcLDOlu4hBOCW2nGKAP5Qv+Dob/gppFoejn9m/wDffvGBW58tu/ocV/nnXd1Ne3Ml3cEs8jFiT6mvsD9uP9pTxH+058eda8f63ctOs9xIUySeNxxXxvQAUUUUAFFFFABRRRQAUUUUAFFFFABRRRQAUUUUAFFFFABW54ZsW1LxBZ2CDJlmRfzIrDr2r9nbQH8T/ABn8PaLGu4z3sS4/4EKAP9eH/ghX8Ml+G37AnhS08vY1zAsp4x1Ar9la+R/2FfB6+Bv2VvBvh9U8sx6dCSOnJUV9cUAFFFFABRRRQAUUUUAY/iC+j03Q7u/lOFhhdyfoCa/xuP8Agt78VH+KX7eni/UvN8xIbuSNecjAYiv9dv8Aas8Xp4E/Z58W+J3fZ9m02dgffYa/xNP2t/GU3jz9oXxR4jnbeZ76Y5/4EaAPm6iiigAooooAKKKKACiiigAooooAKKKKACiiigAooooAKKKKACiiigAooooAKKKKACiiigAooooAKKKKACiiigAooooAKKKKACiiigAooooAKKKKACiiigD/0f4F6KKKACiiigAooooAKKKKACiiigAooooAKKKKACiiigAooooAKKKKACiiigDs/AXxA8WfDPxLbeLfBl5JY31q4eOSNipBBz2r+t39jf8A4O7f2iP2fvhfYfDX4s+DrfxZ/ZyCOO9WYxysgHAZSCM++a/jvooA/vJ1D/g9k8XeW0ek/Bu2z2ea+bP12qmP1rzjxL/wei/Hi7tifC/w80+0lI481vMANfw+0UAf1ZfE3/g70/4Ka+MFe28JRaDocRzgx2e5x/wIsK+JPG3/AAcff8FZfGsLwyfEZ9PD55s4UjIz6Z3V+FFFAH3545/4Kmf8FC/iQZP+Ey+LXiG8WXO5ftJRee2EAr5H8U/Fz4oeN5Gm8X+IL/Umf7xuJ3fP5mvO6KAFJJOTyTSUUUAFFFFABRRRQAUUUUAFFFFABW94Z8P6h4p1220HS4zLPcyKiqoySScVg1/R5/wb+f8ABOLVv2sP2itP8Ya9Zs+j6ZKsrsy/LhTmgD+wX/g3B/4JrWH7OXwGtPjB4ysBHq+qxh4y6/MARnPNf1P1yvgjwlpPgXwrY+FNEiWG2sYViRVGAAoxXVUAFFFFABRRRQAUUUUAFFFFAFe7uobK1ku7hgqRqWYnsBX+c5/wdA/8FK5fHvjNv2ffA19mzsiUmEbcEjg5xX9k3/BWL9szw9+x7+y1rniq7uViv7mB47dc4O4g8iv8eH9pX40a78d/i3q/j/XJmme8uHcFjngmgDwR3aRi7nJPJptFFABRRRQAUUUUAFFFFABRRRQAUUUUAFFFFABRRRQAUUUUAFfoD/wTF8Et47/bL8GaIF3hr+IkfRhX5/V+33/BAbwU3jD/AIKAeFU2bxBcI5/AigD/AF6PhjpSaH8PdG0lBtFvaRJj6KK7qqOlwi302CAfwRqPyFXqACiiigAooooAKKKKAPyw/wCCynxB/wCFd/sD+N9VD7Gks3jB6feFf4yfjHUH1XxTqGoOcmad2z9WNf6w/wDwcz/EA+Df+Ce+q2Ucm1759gGeoxX+SzcOZJ3kPVmJ/WgCGiiigAooooAKKKKACiiigAooooAKKKKACiiigAooooAKKKKACiiigAooooAKKKKACiiigAooooAKKKKACiiigAooooAKKKKACiiigAooooAKKKKACiiigD//0v4F6KKKACij2ooAKKKKACiiigAooooAKKKKACiiigAooooAKKKKACiiigAooooAKKKKACiiigAooooAKKKKACiiigAooooAKKKKACiiigAoopyI0jiNBkscAUAev/An4Ta98aPiXpfgTQIWmlvZ0jwozwTX+vB/wRe/YJ8Pfsbfsy6VBJaLHq1/AkkzFfm5GcetfySf8Gxf/BLqf4k+NE/aG+Ilh/oFiVkh8xeGI5GMiv8ARvsLK202zisLRQkUShVUdABQBbooooAKKKKACiiigAooooAKpajf22l2E2o3jBIoULsx6AAZq7X4y/8ABab9uTSP2QP2WdXuoLpYtU1CB4oQGwwyDyKAP4sv+Dmz/go7P8b/AIyS/BTwdel9N0p2jcI3ykg4PSv5Bic816r8aviXrPxb+JGqeONbmaaa9nd8sc8E5ryqgAooooAKKKKACiiigAooooAKKKKACiiigAooooAKKKKACiiigAr+nz/g1q8HJ4l/bxsrmRdwtl3/AJc1/MHX9if/AAaKeGBe/tX6hrjrnyIDg4oA/wBMtAFQKOgFOoooAKKKKACiiigAooooA/j0/wCDuLx1/ZH7L2leGQ+DcSk4z1r/ADKyckmv9BT/AIPFPF7xaP4Y8NK3DZbFf59VABRRRQAUUUUAFFFFABRRRQAUUUUAFFFFABRRRQAUUUUAFFFFABRRRQAUUUUAFFFFABRRRQAUUUUAFFFFABRRRQAUUUUAFFFFABRRRQAUUUUAFFFFABRRRQB//9P+BeiiigA96KKKACiiigAooooAKKKKACiiigAooooAKKKKACiiigAooooAKKKKACiiigAooooAKKKKACiiigAooooAKKKKACiiigAooooAK+9f+Cef7Jfif9rT9oHRvAuiWzzwtcJ5pUEgLuGc18OaPpV3repwaVYoXlncIoAyck1/pUf8GzX/AATEt/hF8O4/j/48sQL69QNB5i8gHuM0Af0u/sMfsw+GP2VfgDovw48P2yQPBbp5xUYJfaM5r7JpFUKoVegpaACiiigAooooAKKKKACiiigDE8Sa9YeGdDute1OQRwWsbSOzHAAUZr/K8/4OMP8Ago7qP7TP7Qd78OPDV4X0jSpGiUI2VO047Gv7Rf8Agv8A/wDBQvS/2Sv2ZdQ8K6JeCPWdXiaNVVvmCkEV/k0+PvGOqePvF194r1iRpZ7yVpGLHJ5OaAOOooooAKKKKACiiigAooooAKKKKACiiigAooooAKKKKACiiigAooooAK/uQ/4M/tAST4na9q+OVjxmv4b6/vl/4M8dMEl/4jvsfdTGaAP7+6KKKACiiigAooooAKKKKAP86j/g8U8Reb8WPDGhI33YdxFfw7V/Yr/wd1a0b39qjTLHdnyoAMV/HVQAUUUUAFFFFABRRRQAUUUUAFFFFABRRRQAUUUUAFFFFABRRRQAUUUUAFFFFABRRRQAUUUUAFFFFABRRRQAUUUUAFFFFABRRRQAUUUUAFFFFABRRRQAUUUUAf/U/gXooooAO+KKPeigAooooAKKKKACiiigAooooAKKKKACiiigAooooAKKKKACiiigAooooAKKKKACiiigAooooAKKKKACiiigAooooAKKK9E+Ffw91r4oeOdP8G6DC0095MsYVRk8nFAH7K/8EN/+CeXiL9sn9pjSrq8tGbR9PmSSZ2Hy4U5PNf633wl+GugfCXwDpvgXw3CsNtYQpEoUYHyjFfir/wAEIv8Agnno/wCx9+zZp2tarZrHrOqQpJIxXDAEZxX750AFFFFABRRRQAUUUUAFFFFABXn3xR+IGi/DDwNqPjTXpVht7GF5CzHA+UZr0Gv5OP8Ag5V/4KP2XwB+Cs3wX8JXwTVdTQrIEb5gpGMcUAfxlf8ABdP9vvWv2uP2mtVsrO7aXS7CZ44lDZXCnFfg3Wxr+t3viLWLjWtRcvNcOXYnk5JzWPQAUUUUAFFFFABRRRQAUUUUAFFFFABRRRQAUUUUAFFFFABRRRQAUUUUAFf6DH/Bnja+VpHiWcj7wHNf589f6HP/AAZ9xg+DfEUmOlAH909FFFABRRRQAUUUUAFIehpaDyMUAf5dH/B2NqPn/tpxWpPKQiv5Nq/qh/4Oupif282t+ywL/Kv5XqACiiigAooooAKKKKACiiigAooooAKKKKACiiigAooooAKKKKACiiigAooooAKKKKACiiigAooooAKKKKACiiigAooooAKKKKACiiigAooooAKKKKACiiigD//V/gXooooAKKKKACiiigAooooAKKKKACiiigAooooAKKKKACiiigAooooAKKKKACiiigAooooAKKKKACiiigAooooAKKKKACiiigBVBYhV5Jr+xf8A4NpP+CXV58aPiXb/AB48eWBbTNPdZIzIvBI5HWv5uf2Ff2VfF37WHx50X4eeHLZ5knuEEpVSQFyM5r/Yp/4J/fsleE/2Q/2etE+HOgW6RTx26GdguCX2jNAH2ppGl2eiaZBpWnoI4YECIo4AAGK0aKKACiiigAooooAKKKKACiimSOsSGRzgKMmgDwf9pP43+HP2f/hHq/xG8RzrDFY27uu44ywHAr/Hm/4KxftoeJP2wP2ntc8UXt001lHcOsK7sqFBOMV/X5/wdAf8FMIvDWgt+zt4Ev8A97ICtwI29exxX+eDe3c1/dSXlwxZ5GLEn1NAFWiiigAooooAKKKKACiiigAooooAKKKKACiiigAooooAKKKKACiiigAooooAK/0Qv+DPNfM8C+Jm/ukCv872v9Dn/gzol2+CfFUfXJFAH909FFFABRRRQAUUUUAFNbhSfanU1/uH6UAf5V3/AAdVXH2j9vm6z/DGBX8uVf1G/wDB1NbNB+3lcOf44wa/lyoAKKKKACiiigAooooAKKKKACiiigAooooAKKKKACiiigAooooAKKKKACiiigAooooAKKKKACiiigAooooAKKKKACiiigAooooAKKKKACiiigAooooAKKKKAP/W/gXooooAKKKKACiiigAooooAKKKKACiiigAooooAKKKKACiiigAooooAKKKKACiiigAooooAKKKKACiiigAooooAKKKKACtHSNLvNa1KHStPQyTTsEVRySSazq/f/wD4IRf8E3/EX7ZX7Rmm63qVkz6JpsyyyuV+XCnNAH9Wf/BtB/wS3tPhP8O4P2hfiBYAaheqHg81eQCM5Ga/stVVRQqjAFeffC34daB8KvA2neB/DcKwWthCkSqowPlGK9CoAKKKKACiiigAooooAKKKKACvg/8A4KH/ALV/hr9kn9nLW/iHrNysM6W7iAEgEuQcYr7g1TUrTR9Pm1O+cJFCpdmPAAAzX+bR/wAHNf8AwU8ufi58QZPgJ4DvidO09mSQRtwSODnFAH8xv7cH7TXiX9qH47az4/125adZ7hym45wNxr44pWZmYsxyT1pKACiiigAooooAKKKKACiiigAooooAKKKKACiiigAooooAKKKKACiiigAooooAK/0Fv+DO7UVGkeJ7DP3hnFf59Nf3f/8ABnnrZXxZ4i0sHrGTigD/AEIaKKKACiiigAooooAKRhlSKWigD/Lg/wCDsnSmsf23obnGPNtwa/k+r+xP/g7q0QwftVaZquOJIAK/jsoAKKKKACiiigAooooAKKKKACiiigAooooAKKKKACiiigAooooAKKKKACiiigAooooAKKKKACiiigAooooAKKKKACiiigAooooAKKKKACiiigAooooAKKKKAP/X/gXooooAOlFHWigAooooAKKKKACiiigAooooAKKKKACiiigAooooAKKKKACiiigAooooAKKKKACiiigAooooAKKKKACiipIonmkWKMZZjgAepoA9f+BHwe8S/HL4maX8PvDEDzz306R4UZ4JAr/Xk/4Iv/8ABPvwz+xJ+zFpVi9oqa1qEKS3DlQGG4dPWv5YP+DYT/gldL4o1xP2lviVYf6NbEPbeavBPUEZr/QwtLWCytktLZQscahVA7AUAWKKKKACiiigAooooAKKKKACiivOviv8R9A+FHgLUvHXiSdYLWwheVmY4HyjNAH46f8ABcL/AIKDaF+x1+zZqdlZXix6xqMLRxKGAYZGPrX+SN8afilr3xg+IWo+N9fmaaa8meTLHPU5r9kv+C5n/BRTX/2xv2kdUsNNvGfR7CZ4okDZXCnH0r8FqACiiigAooooAKKKKACiiigAooooAKKKKACiiigAooooAKKKKACiiigAooooAKKKKACv7V/+DQbxGtl8dda0lmwZYjxX8VFf1m/8GpHio6R+1++mbseemMUAf6idFNU5UH2p1ABRRRQAUUUUAFFFFAH+dP8A8HgnhZoPil4f18LxJHjNfw71/oS/8Hh3gqRvDPhnxSifLkqTX+e1QAUUUUAFFFFABRRRQAUUUUAFFFFABRRRQAUUUUAFFFFABRRRQAUUUUAFFFFABRRRQAUUUUAFFFFABRRRQAUUUUAFFFFABRRRQAUUUUAFFFFABRRRQAUUUUAf/9D+BeiiigAooPHNFABRRRQAUUUUAFFFFABRRRQAUUUUAFFFFABRRRQAUUUUAFFFFABRRRQAUUUUAFFFFABRRRQAUUUUAFfpj/wS3/Yj8W/tp/tK6L4H0m1eWyFwjTuBlQoIznj0r88PCfhnVPGPiC18OaNGZbi6kWNFUZOWOK/1Kf8Ag3J/4Ji6d+y98DrT4weMbJV1zVoldC6/MqsPegD+gD9k79nbwn+zH8FdG+F3hW3SBLG3RJCoA3MBya+laKKACiiigAooooAKKKKACiiigBrsqKXY4AGTX8Wf/BzH/wAFUY/hp4Jm/Z1+G9/i7ulKXJjbnnjBxX9Iv/BSD9srwl+xx+zzrHjvW7pIbvyHW3QkAliDjFf49/7b37Ufiv8Aaq+OWsfEPxDcvMs9w5jDEkbcnFAHyRqup3esajNqd85klncuzHkkk5rPoooAKKKKACiiigAooooAKKKKACiiigAooooAKKKKACiiigAooooAKKKKACiiigAooooAK/on/wCDbTxmfDH7emiW2/aLhwpH1NfzsV+uH/BFLxqfBX7ePg+/L7Va7jU/iwoA/wBmm1fzLaOT1UH9KnrA8K3q6j4bsb5ORLCjfmBW/QAUUUUAFFFFABRRRQB/JN/wdj/Dj/hJv2RbLxIke42UhOcdK/y+nXa5X0OK/wBgX/g4O+Gv/Cwf2BfEWyPzGtI2kHHoK/yC9Ztms9WubVhgxyMv5GgDMooooAKKKKACiiigAooooAKKKKACiiigAooooAKKKKACiiigAooooAKKKKACiiigAooooAKKKKACiiigAooooAKKKKACiiigAooooAKKKKACiiigAooooA//0f4F6KKKAA8jFFFFABRRRQAUUUUAFFFFABRRRQAUUUUAFFFFABRRRQAUUUUAFFFFABRRRQAUUUUAFFFFABRRRQAUAZ4or60/Yz/Zg8Y/tV/GzSPht4VtXn+1ToshUEgKSM0AfvD/AMG7H/BLrU/2o/jdZ/FTxlZMdE0qRZcuvykqc96/1KPCXhjSvBvh208NaLEsNtaRrGiqMABRivgf/gmd+xH4O/Yp/Zy0bwJotsiX7W6NdSAAEuQMiv0boAKKKKACiiigAooooAKKKKACsPxJ4h0zwrolzr+sSrDb2sbSO7HAAUZNbhIAya/lo/4OJv8AgqRpv7MHwYuvhF4IvlGtapG0cmxvmUEY7GgD+W7/AIOOf+CpGo/tLfGq6+EPgW+Y6JpTtEQjHa204PSv5SCSTk9TXUeM/Fmq+N/Et34m1qVpbi7kaRmY5OSc1y1ABRRRQAUUUUAFFFFABRRRQAUUUUAFFFFABRRRQAUUUUAFFFFABRRRQAUUUUAFFFFABRRRQAV9jfsFeK28G/tS+EtaDbPLv4ef+BCvjmvR/hHrb+HfiRo2rodpguo2z9GFAH+5l+zzry+Jfgx4d1lG3CaxhbP/AAEV7PX58/8ABL/x7H8RP2L/AAXryP5hNjEpOfRRX6DUAFFFFABRRRQAUUUUAfGn7fvw3j+Kf7KXi/wq8fmNLYTFR15Cmv8AFO/aB8LTeDPjH4h8NzoUa1vZUweOjGv91rxbpMOveGb/AEeddyXMDxkeu4EV/jd/8FsPgRcfA79ubxZpZh8qG6u5JU4wMMxNAH5C0UUUAFFFFABRRRQAUUUUAFFFFABRRRQAUUUUAFFFFABRRRQAUUUUAFFFFABRRRQAUUUUAFFFFABRRRQAUUUUAFFFFABRRRQAUUUUAFFFFABRRRQAUUUUAf/S/gXooooAKKKQdKAFooooAKKKKACiiigAooooAKKKKACiiigAooooAKKKKACiiigAooooAKKKKACiiigAoopQCTgUAamiaNf+INVg0fTIzLPcOERVGSSTiv8ASf8A+Dav/gk7bfBzwFbftEfE3TwNRvVD24lXkA855r+bP/g36/4JX+IP2tvjbZfEXxbYt/YOmSrKzOvyttOe9f6o3w/8EaH8O/CNj4Q8PQrBa2USxIqDAwoxQB2CqqKEUYA4FOoooAKKKKACiiigAooooAKKKxPEfiDTPC2iXOv6xKsNtaxtI7scABRk0AfJ37c/7Vvg/wDZG+AusfE3xPcpA8ED+SrHBZ8HGK/x+f8Ago7+2n4y/bK+Pur+ONdu3mtmnfyVJJAXPGOa/dz/AIOPf+CtWpftF/FK6+Bfw4vmGh6Y7RP5bfKxBwc4NfyLMxZizHJNACUUUUAFFFFABRRRQAUUUUAFFFFABRRRQAUUUUAFFFFABRRRQAUUUUAFFFFABRRRQAUUUUAFFFFABVzT5zbX0NwpwUdW/I1TpQcHNAH+uh/wbhfFdPiJ+wLoti8vmSWAEZBOSOK/oPr+JH/g0T+OSaz8KdY+GFzNue2YMqk1/bdQAUUUUAFFFFABRRRQAhAIIPQ1/nT/APB21+ydNoHxF0/446TbYhu1xK6jjPvX+izX4if8F3f2QrX9qX9i7Xbe2txNf6ZC08PGT8ozQB/jtUV1Xjfwxf8Ag3xXf+GtSQxzWczxsp4PykiuVoAKKKKACiiigAooooAKKKKACiiigAooooAKKKKACiiigAooooAKKKKACiiigAooooAKKKKACiiigAooooAKKKKACiiigAooooAKKKKACiiigAooooA//9P+BeiiigAooooAKKKKACiiigAooooAKKKKACiiigAooooAKKKKACiiigAooooAKKKKACiiigAooooAK+z/ANhr9k7xn+1v8ctI+HPhe1edJ50WUqpIC5Gc18reD/CmseNvEdr4a0OFp7m6kWNVUZJLHFf6en/Bun/wSX0f9mr4VWvxu+Ilgv8AbmoxrJF5i/MgIznmgD9t/wDgm5+xN4N/Yr/Z90nwHodqkV6YEa4cKAS+Oea/Q+kACjavAFLQAUUUUAFFFFABRRRQAUUUUAISAMnoK/lP/wCDir/gq3o/7Mvwiuvgv4Bv1/tzU42jl8tvmUEYxxX7P/8ABSH9uDwP+xR8AdV8d69dxx3phcW0ZYBi+OMCv8g/9vH9r7xt+2B8cdW+Ifii7kmjmncxKzEgLk4xQB8j+MPFWq+NfEd34m1qVpbi7kaRmY5OWOa5miigAooooAKKKKACiiigAooooAKKKKACiiigAooooAKKKKACiiigAooooAKKKKACiiigAooooAKKKKACiiigD+sb/g1Y+P5+H37XK+BrufZDqg2BSeCTX+owjiRA69CM1/ik/wDBKL4zz/BP9szwl4oSXyo/tsSsc44LCv8AZ6+Fvim18afD7SPE1mwdLy1jkBHOdyg0Ad9RRRQAUUUUAFFFFABXN+MPDVh4v8M3vhvU0EkN5E0TKeQQwxXSUUAf5GP/AAcAfsB6x+yh+1VqviHTLNk0jVpmmjdVwvzHPWv57a/2CP8AguP/AME7NH/bR/Zv1G80y0WTWtNheSFguWOB0r/JM+M3wq8R/Bz4g6j4F8SwPb3FlM8ZDjB+U4oA8qooooAKKKKACiiigAooooAKKKKACiiigAooooAKKKKACiiigAooooAKKKKACiiigAooooAKKKKACiiigAooooAKKKKACiiigAooooAKKKKACiiigD//1P4F6KKKACkFLRQAUUUUAFFFFABRRRQAUUUUAFFFFABRRRQAUUUUAFFFFABRRRQAUUUUAFFFFABUkUUk8iwwgszHAA9ajr9lv+CQH/BNzxz+3D8fdLtEsXbRbaZHnlKnbtByeaAP2R/4NxP+CO+ofGzx7a/tB/FzT2Gj2LLJCsq8ORyOor/Sf8PaBpfhfRrfQdGiWG2tkEaIowAFGK8P/Zg/Z38F/s0/CfS/ht4NtUt4rKFEbYAMsByTX0VQAUUUUAFFFFABRRRQAUUUUAFebfFn4oeGPhB4E1Dx34suEt7SxiaRmcgfdGe9ehXVzBZWz3dywSOMFmY9ABX8GX/Byp/wWIitILn9mT4P6hz80d28Ld+hHFAH4T/8F4f+Cqfij9sv44X/AIP8NXzjw/p0rRRojfKwU47V/OXV3UdQutVvZNQvXLyysWZickk1SoAKKKKACiiigAooooAKKKKACiiigAooooAKKKKACiiigAooooAKKKKACiiigAooooAKKKKACiiigAooooAKKKKAO0+HfiKfwn4203xBbMVe1uEcEcdCDX+x5/wRd/aGtf2gP2JvDGrCcTXFnbJDJzk5UAV/jIKSrBh1Ff6Ev/BpR+1+uoaLqHwG1u6+ZRuhRj6egoA/u6ooooAKKKKACiiigAooooAq31lbajaSWV2geOVSrKehBr+Ab/g5L/4I53EN/c/tK/B/TsxybpLpIU6HqTxX+gHXm/xW+F/hX4v+Cb7wN4vtkurS9iaNlcAj5hjvQB/g66lp15pN7Jp9+hjliYqykYIIqjX9Zn/BdT/giN4y/Zu8dX/xX+FmnvPody7SnylyFBOewr+T28s7nT7l7S8QxyIcMrDBBFAFWiiigAooooAKKKKACiiigAooooAKKKKACiiigAooooAKKKKACiiigAooooAKKKKACiiigAooooAKKKKACiiigAooooAKKKKACiiigAooooA//9X+BeiiigAooooAKKKKACiiigAooooAKKKKACiiigAooooAKKKKACiiigAooooAKKKKACiiu++Gfw58S/FTxjZeC/Cls91d3sqxqqAk/McdqAPaP2Rv2XPiD+1b8YNK+GngWykuZLudEcopIVSRk1/rnf8ABJ//AIJveBf2D/gLpmhwWkf9uXECNdTbRu3EcjOK/Nr/AIIBf8EdvD/7Ivwwsfi/8R7BH8R6jEsi+Yo3RgjPcV/UgAFG0dBQAtFFFABRRRQAUUUUAFFFFABQSAMmivhD9v8A/bR8AfsY/A3VfiD4qvI4bmOF/IjLAMz44xQB+aH/AAXQ/wCCrPhb9jD4H6j4O8K3qHxHqMLRoEb5k3DFf5SXxl+LPin4z+PtQ8deLLl7m6vZmkLOSfvHPevr/wD4KM/tx+Ov20fjnqvjbX7uSS0eZ/JQsSAueOK/OugAooooAKKKKACiiigAooooAKKKKACiiigAooooAKKKKACiiigAooooAKKKKACiiigAooooAKKKKACiiigAooooAKKKKACv2O/4Im/tWXv7MX7ZXh7V2nMNpdXKRy84BDNjmvxxrqPBfiK78J+KbHxDYuUltZlkVh1GDmgD/eG+Hvi3T/HXgvTfFelyCSG9gSVWHT5gDXZV+DH/AAQJ/bIsf2mv2P8ASNMvLoTajpMSxOCctgDFfvPQAUUUUAFFFFABRRRQAUUUUAeP/Gr4J+Bfjr4Ju/BPjmzju7a6jZCHUHGRjvX+dp/wWg/4N8PGPwl1vUPi18C7FrnTHZpWiiUnaOvQCv8ASrrm/FPhLQPGejzaH4jto7q2nUqySKGBB+tAH+DR4p8I+IPBmrS6J4itntriFirK4IOR9a5qv9Qf/gqh/wAG5fwu/aDtb7x/8F7WOw1Rg0hijUAFuvGK/gc/a3/4JkftG/sq+I7rTvFGi3DW8LECQIcYHfpQB+bdFWruyu7CY295G0bqcEMMGqtABRRRQAUUUUAFFFFABRRRQAUUUUAFFFFABRRRQAUUUUAFFFFABRRRQAUUV2nhj4eeM/GM4t/DmnT3bNwPLQt/IUAcXRX2FpX7CX7Tmr2gvbTwtfFCMg+U3+FeaeNv2bPjJ8P8nxPoV3bAdS8TAfyoA8Ioqee2uLVzHcIUYdjUFABRRRQAUUUUAFFFFABRRRQAUUUUAf/W/gXooooAKQUtFABRRRQAUUUUAFFFFABRRRQAUUUUAFFFFABRRRQAUUUUAFFFFABRRVmzs7m/uks7RC8khCqoGSSaALWjaPqGvanDpGlRNNPO4REUZJJOK/0Gv+Dcv/giDB4esLP9qD496bmdwstnBOn4g4NfEP8Awb6/8ELtU+MPiCw/aI+O2nMmkWzLNBFMuN+DkcGv9G7wn4V0PwV4ftfDPh23S2tLSNY440GAAowOBQBs2VlbadaR2VmgjiiUKqqMAAVaoooAKKKKACiiigAooooAKKKwfE3iTSPCWiXHiDXJlgtrZC7u5wAAM0AcL8afjD4O+B3w/wBQ+IHjW7S1tLGJpCzsBnaM4Ga/yqv+C6H/AAVo8V/tpfGS/wDCPha9dfDthK0caIx2sAcdK/TP/g4k/wCC1d58UvEF5+zz8F9QK6ZbM0U8kTcORwelfxQ3d1PfXL3d0xeSQlmJ5JJoAgJLHceppKKKACiiigAooooAKKKKACiiigAooooAKKKKACiiigAooooAKKKKACiiigAooooAKKKKACiiigAooooAKKKKACiiigAooooAKKKKAP6xf+DZf9vqX4EftAwfCzxJd+Xp2qsIgrNgZY4Ff6hmmahbarp8Oo2jB45kDqR0IIzX+EX8DfihrHwg+JuleOdFlaKWynR8qcdDX+wZ/wAEcf219D/a/wD2VNE1dbpZdSsYEinXOWyqgZoA/XeiiigAooooAKKKKACiiigAooooARlDDawyDXzF8ef2Rfgj+0Nok2j/ABB0W3uvNUjeyDdz719PUUAfxW/t5f8ABrf8PfH32zxJ8E2FrO251jAxz+FfyS/tPf8ABDv9rX9n3UbhX0ae6t4icOiEggfhX+xWQCMEZrh/Ffw18EeNbVrTxLpsF2jjBEiA0Af4V/jH4JfEzwJdPaeI9JuLdkODuQivLpbe4gbZMjIR2IxX+0J8cf8AgkB+yD8a45W1Xw9bwyS5yyIo6/hX4m/tE/8ABq18CfGazXvw9nFpK2SqkYoA/wAyeiv7Fvjj/wAGrnxy8LSzS+D2NygyV281+U/xU/4IS/tk/DuWTGhXE6Jn7qE/0oA/EGivtjxj/wAE/v2mvBTsmreG7sbOp8tv8K8A1n4HfFPQmK6jo10mOuY2oA8morcuvDPiCyYrdWcqEdcoRWU9rcx8PGwx6igCCilII60lABRRSgE9BmgBKKkWGVuFUn8KtJpuoSf6uB2z6KaAKNFddpngPxjrLiPTdNuJiegWNjXuvgr9jP8AaO8fXKW3hzwtfTFzgEQt/hQB8uUV+4fwU/4IE/t4fF+eHyvDc9nFLj5pVKgA/Wv3D/Zv/wCDRP4naw1vf/GHVktIzgui8n3oA/iFtdPvr6QRWkTyMegUE19QfBj9ir9pD486vDpHw78L3t687BVKxMRz74r/AE4f2av+DZv9ib4MiC98V2f9tXMWCfMA25FfuR8Iv2T/AIAfA3T49P8Ahv4ZsdOEYADRxKG498ZoA/z7P+Cff/BqB8a/iRdWfjH9pu4Gi6cSrm1/5aEdcEdq/sq/Zb/4Is/sR/sx6Nb2mjeF7bULqFQDNcIHJI78iv1yREjUJGAAOwp1AHjlr+z78FrG3FraeGNOSMDAUQJ0/KvJvid+wx+yb8W9Fm0Lx94D0m9gmUqxFuiPz6OoDD8DX15QRnigD+ET/gsd/wAGy3gPT/CWofHH9ja2kijtkaa60kkuUA5LRk5Yj2JJr+BP4hfD/wARfDbxNc+F/Etu9tc2zlGVwQQQcd6/3l7yytrq3ktLuMSQyqVdWGQQeuRX+dr/AMHRH/BKzS/hH4gX9qH4X6eIdI1iQ/aViXCxzHkg46A9RQB/DzRTnQxuUbqDim0AFFFFABRRRQAUUUUAFFFFAH//1/4F6KKKACiijvigAooooAKKKKACiiigAooooAKKKKACiiigAooooAKKKKACiipre3nu51trZS7ucKo5JJoAIIJrqZbe3Uu7nAA5JJr+s/8A4IL/APBC/wAVftSeNtP+NvxnsJLbwzZSLKqyqR5uDnAyKyf+CFv/AAQi8a/tX+NtP+MfxlsZLTwvaSLKFlUjzcHOOfWv9ND4QfCDwN8EPA1j4A8AWMdjYWMaxokahc7RjJxQBo/DP4Z+EPhL4PsvBHgmzjsrGxiWKNIwAMKMdq9AoooAKKKKACiiigAooooAKKKjlljhjMspCqoySewoAivLy2sLV7y7cJHGCzMeAAK/iZ/4OFf+C3GnfD3RL/8AZ3+Cmohr2QNFcywt07EZFfW//Bef/gtn4W/Zc8A3/wAGvhHqCTeIbtGikeJgTHkYI471/mQ/Fb4p+Lfi/wCMrzxn4wu3urq8kaRmck/eOe9AHMeK/FOseMdduPEGuzNPcXLl3Zjkkk5rnKKKACiiigAooooAKKKKACiiigAooooAKKKKACiiigAooooAKKKKACiiigAooooAKKKKACiiigAooooAKKKKACiiigAooooAKKKKACiiigAr+pj/AINz/wDgpbefsyfHK1+GXiu9KaRqsixEO3yjccV/LPXW+B/F2q+B/E9p4l0eRop7WRXVlODwc0Af7yHhLxPpfjHw9aeI9GlWa3uo1kRlOQQwzXR1/LL/AMG8/wDwVF0b9pH4N2Xwm8Z36nV9PjWNA7fMQBjvX9TIIYbl5BoAWiiigAooooAKKKKACiiigAooooAKKKKACiiigCKSCGUbZEDD3Fc9f+DfC2qArf2EMoPXcgNdNRQB4B4k/Zd+BPixGTWvDdlLu65iX/CvmXxf/wAEtP2PvGAf7d4Vsxv64jX/AAr9GaKAPwj+IX/Bv/8AsR+NY3MOiRWzvnlVAr4X8ef8GtP7MXiBnbRnEG7OOBxX9YlFAH8PXiz/AINF/AOoTM2iawIh2yK8kvf+DQNUkzb68hFf3wUUAfwVaZ/waFaeJAb7WhivZPDH/Bon8LLYhtX1fd6jFf240UAfyV+Df+DVH9ljRih1icz468V9deCv+Db79hDw1sN/pIuSvXIFf0NUUAflr8O/+COn7CXw42PpPgy0kdMYaRA3SvsXwp+yr8AfBQUeHPDFhb7Om2FM/wAq+haKAMjT9A0TSoxFp1rFCo4ARQK1wAOBRRQAUUUUAFFFFABRRRQAjDIxX59/8FOf2adC/at/Yn8d/CvV4Ved9NmuLN2Gdk8KF42H4jB9q/QWvlX9tX4weHfgN+y343+JniaRUt7HSrkgMcbnMZCqPck0Af4e3jvSTofi7UNKIx5E7pj/AHWIrkq9B+KmqprfxC1fVY/u3F1LIPozE159QAUUUUAFFFFABRRRQAUUUUAf/9D+BeiiigApO+aWigAooooAKKKKACiiigAorb0nw14i111TRbC4uyxwPJjZ8n0+UGq+q6Nq+hXbafrVrLaTr1jmQow/AgGgDMooooAKKKKACiiigAoor0r4XfCXx18YfFNt4Q8CWEt9eXThESJS3JOO1AHDaVpOo63fx6bpcTTTysFVFGSSa/sI/wCCG/8Awb3+L/2gPEWn/HD9oezex8Pwss0cEq4MoHI4NfoZ/wAEU/8Ag2yt/Dv9nfHf9qu23y4SeCxkXv1G4Gv7kvB3gzw14C0C38M+FLSOzs7VAiRxqFAAGO1AHO/Cf4SeB/gt4Ls/AngGxjsbCyjWNEjULwoxk4r0uiigAooooAKKKKACiiigAooqKaaK3iaadgqKMkngAUAPd1jQyOcAckmv5t/+C2X/AAWc8B/sa/DbUPAPgLUI5/Et1E8YEbAmMkEdqq/8Fnf+C4Pw3/Y08B6j8PvhzfRXnie4jaMGNgfLJGO3ev8AL8/aR/aV+JP7THxDvvHvxAv5bua6lZwHYkAE570AZX7QPx78dftCfEK/8e+OL2S7uLuVny7E4yc968LoooAKKKKACiiigAooooAKKKKACiiigAooooAKKKKACiiigAooooAKKKKACiiigAooooAKKKKACiiigAooooAKKKKACiiigAooooAKKKKACiiigAooooA/QX/gnl+2d4z/AGP/AI5aV400K6eK3SdPNUMQCuec1/rvf8E9/wBtPwN+2R8DtK8b+HruOW7aBPPjDAkNgZr/ABHlZkYMpwRX9If/AAQ1/wCCsPin9kH4sWPhDxNfOdEu5VjdHY7QCcd6AP8AWborxn4F/Gzwd8d/AFj468H3SXMF3Er/ACEHBIz2r2agAooooAKKKKACiiigAooooAKKKKACiiigAooooAKKKKACiiigAooooAKKKKACiiigAooooAKKKKACiiigAooooAKKKKAAkAZNfxr/APB07+3xpfgD4Mr+zt4dvh9r1Hm4jRucdsgV/Qh/wUd/4KCfCj9g34G6p488Z38Saj5Li0ti43vJjjjOa/yIP2+/21PH37a/x11b4n+Lrl5I7iZzChJIVM8AfhQB8O3U7XNw9w/VyT+dQUUUAFFFFABRRRQAUUUUAFFFFAH/0f4F6KKKACiij2oAKKKKACiiigAr9CP+CZX/AAT++JH/AAUg/ap0P9nzwIrQ2s7ifVL7BKWtmp/eOfcjhR3NfnvX+j5/wZrfsyeFfD37NvjH9pW6jSTWte1E2CPgFo7eADAB7bic0Af0v/sd/wDBND9kL9jT4K6R8Hvhn4O0ySPT41868uraKa5uJsDfK8jqWyx5wDj2r+YD/g7h/wCCfP7OugfsuaZ+134I0iz8P+J9P1WGwna1jWIXcc4bhlUDLLtyD6Zr+4Dy13BgOlfwt/8AB618RvF9n8KPhH8MbCV49EvtSvb27QfdknhjjWHP+4Hf/vqgD/PHooooAKKKcqM7bUBJPYUANqSKKWdxFCpZjwAOtfZX7MX7Bn7SX7WHiS30D4VeHLu8EzBfNWNtgz3Jxiv7bv8AgmZ/wan+HvC72HxG/a0l+0zrtl+wDpnrhqAP5Fv2C/8Agkp+1B+3P4wtNL8GaLcW+lyuvmXcqFUVSeTkiv8ASJ/4Jbf8EF/2cP2EfDVl4i8R2UeueK9itJcTKGVHx/CD71+zXwW/Z6+Ef7P/AIXt/CPwt0W20u0t0CARIATgY5OK9qoAht7eC0hW3tkEcaDCqowAKmoooAKKKKACiiigAooooAKKK5Dxv478LfDzw/ceJvF15HZWlshd3kYKMD60AdJf39pplo99fSLFFGCzMxwABX8n/wDwWv8A+C9fgX9mrwrqXwk+C9/Hda9KjRPLEwOwkEdq+C/+C23/AAcbwaRZ6j8C/wBl+8HmNuhmvI259Dgiv4HviP8AE3xl8VfEtz4q8aXsl5d3Ll3aRi3JOe9AHY/Hn4/fEH9oPxxeeN/Ht9Ld3F1IznexOMnPevDqKKACiiigAooooAKKKKACiiigAooooAKKKKACiiigAooooAKKKKACiiigAooooAKKKKACiiigAooooAKKKKACiiigAooooAKKKKACiiigAooooAKKKKACiiigAq7p+oXel3kd9ZOY5IyGBHByKpUUAf2Q/wDBBz/gttrfwQ8RWPwf+Kt80ulTMsSmVuFzx3r/AEefhf8AFDwn8WfCVp4u8I3SXNtdRq4KMD1Ff4Puha7qXhzU4tW0qVopomDKynByK/sX/wCCIf8AwXg8QfBvWrD4SfGG+aXTJGWJWlbO3t3oA/0saK8i+DXxo8D/ABu8HWvjHwRex3dvcxq4KMDjI9q9doAKKKKACiiigAooooAKKKKACiiigAooooAKKKKACiiigAooooAKKKKACiiigAooooAKKKKACiiigAooqOaaKCMzTMFVRkknAxQBITjk1+ZX/BRv/gpn8D/2AfhVfeKfGeoQyat5TfZrMMN7PjjI618mf8FV/wDgtj8Dv2FfA99o2h6hDqPido2WKGNw2xscZxX+X1+3R+318aP23fide+NviJqc00EsjNFCWOxVJ4AFAHpn/BSz/gpl8aP+Cgfxgv8Axd4x1CVdKErfZrQMdiJngYzjpX5gUUUAFFFFABRRRQAUUUUAFFFFABRRRQB//9L+BeiiigApO9LRQAUUUUAFFFFABX+qz/waXaHpul/8Ev7W9sseZd6tcvKR13DA5r/Kmr/Sc/4M1P2gtO8WfspeNPgNdTj7f4c1UXSRE8+TcKMED03KaAP7RK/Jz/grT/wSj+E3/BVH4H2/w48cXLaXq+kTNc6XqCDJikZdrKR/dYAZ+lfrHRQB/mB/HP8A4NFP24fAeqTf8K2vrLxBZBj5bI21ivbIr5Nh/wCDYP8A4Kay3wtG8PRKucbi/Ff611JtX0oA/wAxb4Pf8GiP7aXiq5hl+IWoWWk27Y3/AD7iBX75fsh/8Gl37K/wnvLXxB8cL2TxJdQkMYekRI9a/r4ooA+e/gd+yv8AAP8AZz8Pw+G/hD4ZsdHggUKDDCoc49WxmvoSiigAooooAKKKKACiiigAooooAKKimnhtommnYIijJJOAK/Ef/gpV/wAFqv2ef2GfCt5ZQ6jBqXiBUYR28bhsNjjODQB+kn7TP7Vvwl/ZZ8B3fjf4l6nDZx28ZZUdwGYgZwBX+cN/wWO/4ODPiV+03rd98MfgzfSWGgIzRlomI3r06ivyo/4KM/8ABXL9on9u3xxd3fiLVZoNILsIrZHIQLngYr8i3d5HMkhLMeSTQBo6xrOp69fyanq0zTzSkszOckk1l0UUAFFFFABRRRQAUUUUAFFFFABRRRQAUUUUAFFFFABRRRQAUUUUAFFFFABRRRQAUUUUAFFFFABRRRQAUUUUAFFFFABRRRQAUUUUAFFFFABRRRQAUUUUAFFFFABRRRQAUUUUAFX9M1O+0i9jv9PkaKWMgqynByKoUUAf1Gf8Ee/+C6fxG/ZX8UWPgn4gX0lzorMqFZGJAXOO9f6Sn7Kf7Z/we/at8D2nivwHqcM0k0as0QcbgSPSv8OOGaW3kE0LFWU5BFfrX/wT+/4Kr/HD9jTxjZ3OlanM+no674i527QfSgD/AGcQc8iiv5/f+CbP/Bb/AOBv7W3huy0fxHqENlq7KqssjAZb86/fHTNW07WbRL7TJlmikGVZSCCKANGiiigAooooAKKKKACiiigAooooAKKKKACiiigAooooAKKKKACiiigAooooAKKKKACiuY8U+M/C/grTJNX8U30NlbxAszyuFGB9TX88X/BQf/g4g/Zm/Za0+80DwFexa1rEasq+WwKhh9KAP3z+KXxm+HHwa8OT+KPiFqsGnWtuhdmlcLwPTNfxXf8ABXT/AIObNC8P2mo/CT9liYSTENE96p/Dgiv5dP8AgoH/AMFrP2mP20Nfu4LvVp7PSZGYJBG5Vdp9hX4r3t9eajcNd30jSyOclmOSTQB698bfj38SPj54vuvGPxD1Ka+ubly58xi3U+9eLUUUAFFFFABRRRQAUUUUAFFFFABRRRQAUUUUAf/T/gXooooAKKKKACiiigAooooAK/c3/g3/AP8AgoW37AH7dmjeIPEVyYvC/ifbpeqqT8oSRhskPb5W71+GVSwzS20y3EDFXQhlI4IIoA/3vfC/ibRPGXh6z8U+HLhLqxv4kmhljOVZHGQQR7Gt6v4J/wDg2x/4LzaXJo2nfsT/ALU2qiGaALDouoXL8MvQRMzdx2r+86yvbTUbSO+sZFlhlUMjqcgg9CDQBaooooAKKKKACiiigAooooAKKKKACiiuJ8afEbwT8PNJl1vxlqUFhbQqWZ5nCgAfU0AdtXiHxt/aG+FH7P3hO58X/EzV7fTra3QsfNcKTgdgTX87v/BRz/g5Y/Zs/Zksbzwn8HrhPEGuKGRWjIMat06jrzX8B/7d3/BXT9qL9t7xNdXfjDWp4NNkdtlrG5CBSemAaAP6kf8AgrD/AMHOqXEWofC79l2cqp3RNdoeT2yCK/h1+Mvx5+JXx18VXPiz4g6nPfXNw5cmRy3U+9ePTTzXEhmnYuzckk5NRUAFFFFABRRRQAUUUUAFFFFABRRRQAUUUUAFFFFABRRRQAUUUUAFFFFABRRRQAUUUUAFFFFABRRRQAUUUUAFFFFABRRRQAUUUUAFFFFABRRRQAUUUUAFFFFABRRRQAUUUUAFFFFABRRRQAUUUUAFFFFAHs/wh+O3xC+C/iCDX/BuoS20kLBhsYjpX9iX/BMX/g5Q8UeAvsPgj42XBurUbULyNkgdO9fxDVNDcTW0glgYow6EHFAH+3R+zF/wUK/Z8/ac0C31PwfrVuZplBMRcZBI+tfddvdW93EJrZw6tyCDmv8AD6/Z0/bs+PH7OWswaj4N1m4jSFgdoc44r+tr9gj/AIOiNf8AD62nhv40/wCkRjajOx5x+NAH+hlRX5P/ALNP/BX/APZQ/aJ0+CXS9cgtriUDMcjgEE9utfpn4d8deE/Fdqt5oF9Dco4yCjg/1oA62ikBBGRzS0AFFFFABRRRQAUUUUAFFFFABRRRQAUUUUAFFRvLHGNzsAB6mvM/G3xn+GHw7tHvfF+tWtkiDJ8yVQf1NAHqFIzKo3McCvxG/aZ/4Lu/sX/s/Wc6rrcWpXUQOEicHJFfzBftl/8AB2T4z1yK68P/AALs1s0bcqyj72PWgD+9L4m/H/4SfCLS5dV8d63a2McILESSKDx7Zr+c39uT/g5k/Zs+Alvd6H8LJF1nUYwyqwIK7h9K/wA9X9o7/gqN+1b+0fqU914v8R3ZinJJQSMBg+2a/PTVNa1XWrlrvVJ3mkY5JdietAH7wft1f8F8/wBrT9rTU7mytNXm0zS5CQsMLlRtP0r8MPEnjDxJ4uv31PxDeS3U0hJLSMScn61zVFABRRRQAUUUUAFFFFABRRRQAUUUUAFFFFABRRRQAUUUUAf/1P4F6KKKACiikPagBaKKKACiiigAooooA09G1nVPD+qQazos7211bOJI5IyVZWU5BBHIr+1v/gjF/wAHPniL4N2mm/AL9tCaTU9Fi2QW2rE7pYV6ASZ6gevWv4kaUEqdw6igD/di+Av7TvwP/aX8IW3jb4OeIbPWbK5QODBKrMMjOCucg/Wvfa/w8v2Wf+CgP7U/7HviOHxD8E/Fd7pZiYEwrKxibHYoTgj8K/rR/Y9/4PDfH3h+0tfD37UnhpNTVAFe9tDskIHUlTwaAP8AQ8or+e34C/8AByr/AME3fjRbQrfeJP7CuZAMx3g2YJ9+lfpZ4R/4KSfsV+N7VLvQPH+kyq/I/wBIQdfxoA+5qK+YE/bQ/ZddN6+NtJx/18x/415/4n/4KM/sceEYml1fxzpiheu2dD0+hoA+36K/Ef4q/wDBfn/gnt8L4ZGn8Vw3zxg/LAwbP61+QH7Qf/B3f+zz4UE9j8JtEm1GZchHkIC57dKAP7NJJY4l3ysFA7k4r5w+Mf7W/wAAfgTpc2qfEbxJZ2CwqWKvKu7j2zX+aX+1N/wdL/tp/GQXOmfD25Hh+zlyB5PDYPvX4DfGL9sr9o/466lLqXxG8VX9+0xJZXmcjn2zQB/okft0f8HUP7P3wft7zw38CYxreoIGRZgfkDdM1/F7+2p/wXD/AGwf2vdRuYdU1ufT9NmJxbwOVXae3Ffi9PcT3LmS4cux6knNQ0Aa2sa7q2v3j3+sTvcSuclnJJz+NZNFFABRRRQAUUUUAFFFFABRRRQAUUUUAFFFFABRRRQAUUUUAFFFFABRRRQAUUUUAFFFFABRRRQAUUUUAFFFFABRRRQAUUUUAFFFFABRRRQAUUUUAFFFFABRRRQAUUUUAFFFFABRRRQAUUUUAFFFFABRRRQAUUUUAFFFFABUkcskLiSJipHcVHRQB7T8Pfj/APFH4Z3sd54W1We3MZyArkdPxr9jP2af+C9v7VPwQlggm1aa5hiwCruSMD8a/AqigD/Qb/Zi/wCDrawu0t9N+KduN3AZ84+tfuz8E/8Agv5+x78T4YRf6tFZySYyGYdTX+QajvGdyEg+1dNpfjPxRorh9NvpYiOm1iKAP9vfwH+3X+zP8Q4Em0DxPZvvHAMq5/nX0BpXxU+HusqG03V7WUHptkX/ABr/AA/PB37X3x88ESK+h+ILqLb0xI3+NfW3gz/gr1+174OCLa+I7pgvrI3+NAH+z3DrWk3ADQ3MbA9MMDVxbq3blXU/Q1/kZeCf+Dhv9szwvtjl1iaVV9XJr6i8Nf8ABz/+1JpcareXLSFfUmgD/UvEsZ53D86PMj/vD86/zKdP/wCDq39oWEBLkFhV+7/4Orfj5In7lMGgD/TGaaJRlmAH1qlNq+mW4JmnjXHqwFf5e3iX/g6V/amvo2i0+QpnvmvlPxz/AMHFv7afioOtvq8sIbP3WIoA/wBY3VPiX4C0aNpNT1W2hC9d0ij+tfP/AI4/bl/Zl+H8TS+IfFVjFszkeap6fjX+Qx4//wCCuf7Zvj5n+3eKbtFfqBI3f8a+SfFP7Vvx68YljrviO8m39cyt/jQB/rK/Fv8A4L4/sLfC9JQ2vx3kkeeI2Bzj8a/Ij49/8HY/wX8NrNbfDWw+0uAQrMc1/m8aj4r8R6s5fUb2WYnqWYn+tYLSO5y5J+tAH9bn7RP/AAdOftOeP/Ps/A0h0+J8hdhxgGvxB+N3/BU39rj44XM0nifxPdlJc/KJWxz+Nfm9RQB13iDx54u8UTtca5fzXDMcne5P8zXJEknJOaSigAooooAKKKKACiiigAooooAKKKKACiiigAooooAKKKKACiiigAooooA//9X+BeiiigAooooAKKKKACiiigAooooAKKKKACiiigCSOaaIhomKkehxXWaZ8QPG+jADStVuoMdNkrD+tcfRQB6ofjd8WmXY3iC+I/67P/jWHefErx9qGftmr3UmeuZWP9a4eigDSudY1W8O66uJHP8AtMTWcWZupzSUUAFFFFABRRRQAUUUUAFFFFABRRRQAUUUUAFFFFABRRRQAUUUUAFFFFABRRRQAUUUUAFFFFABRRRQAUUUUAFFFFABRRRQAUUUUAFFFFABRRRQAUUUUAFFFFABRRRQAUUUUAFFFFABRRRQAUUUUAFFFFABRRRQAUUUUAFFFFABRRRQAUUUUAFFFFABRRRQAUUUUAFFFFABRRRQAUUUUAFFFFABRRRQAUUUUAFFFFABRRRQAUUUUAFFFFABRRRQAUUUUAFFFFABRRRQAUUUUAFFFFABRRRQAUUUUAf/1v4F6KKKACiiigAooooAKKKKACiiigAooooAKKKKACiiigAooooAKKKKACiiigAooooAKKKKACiiigAooooAKKKKACiiigAooooAKKKKACiiigAooooAKKKKACiiigAooooAKKKKACiiigAooooAKKKKACiiigAooooAKKKKACiiigAooooAKKKKACiiigAooooAKKKKACiiigAooooAKKKKACiiigAooooAKKKKACiiigAooooAKKKKACiiigAooooAKKKKACiiigAooooAKKKKACiiigAooooAKKKKACiiigAooooAKKKKACiiigAooooAKKKKACiiigAooooAKKKKAP/X/gXooooAKQ9KWkPNAC0UUUAFFFFABRRRQAUUUUAFFFFABRRRQAUUUUAFFFFABRRRQAUUUUAFFFFABRRRQAUUUUAFFFFABRRRQAUUUUAFFFFABRRRQAUUUUAFFFFABRRRQAUUUUAFFFFABRRRQAUUUUAFFFFABRRRQAUUUUAFFFFABRRRQAUUUUAFFFFABRRRQAUUUUAFFFFABRRRQAUUUUAFFFFABRRRQAUUUUAFFFFABRRRQAUUUUAFFFFABRRRQAUUUUAFFFFABRRRQAUUUUAFFFFABRRRQAUUUUAFFFFABRRRQAUUUUAFFFFABRRRQAUUUUAFFFFABRRRQAUUUUAFFFFAH//Q/gXooooAKKKKACiiigAooooAKKKKACiiigAooooAKKKKACiiigAooooAKKKKACiiigAooooAKKKKACiiigAooooAKKKKACiiigAooooAKKKKACiiigAooooAKKKKACiiigAooooAKKKKACiiigAooooAKKKKACiiigAooooAKKKKACiiigAooooAKKKKACiiigAooooAKKKKACiiigAooooAKKKKACiiigAooooAKKKKACiiigAooooAKKKKACiiigAooooAKKKKACiiigAooooAKKKKACiiigAooooAKKKKACiiigAooooAKKKKACiiigAooooAKKKKACiiigAooooA/9H+BeiiigAooooAKKKKACiiigAooooAKKKKACiiigAooooAKKKKACiiigAooooAKKKKACiiigAooooAKKKKACiiigAooooAKKKKACiiigAooooAKKKKACiiigAooooAKKKKACiiigAooooAKKKKACiiigAooooAKKKKACiiigAooooAKKKKACiiigAooooAKKKKACiiigAooooAKKKKACiiigAooooAKKKKACiiigAooooAKKKKACiiigAooooAKKKKACiiigAooooAKKKKACiiigAooooAKKKKACiiigAooooAKKKKACiiigAooooAKKKKACiiigAooooAKKKKACiiigD/0v4F6KKKACiikPSgBaKKKACiiigAooooAKKKKACiiigAooooAKKKKACiiigAooooAKKKKACiiigAooooAKKKKACiiigAooooAKKKKACiiigAooooAKKKKACiiigAooooAKKKKACiiigAooooAKKKKACiiigAooooAKKKKACiiigAooooAKKKKACiiigAooooAKKKKACiiigAooooAKKKKACiiigAooooAKKKKACiiigAooooAKKKKACiiigAooooAKKKKACiiigAooooAKKKKACiiigAooooAKKKKACiiigAooooAKKKKACiiigAooooAKKKKACiiigAooooAKKKKACiiigD/9P+BeiiigApD0NLSHoaAFooooAKKKKACiiigAooooAKKKKACiiigAooooAKKKKACiiigAooooAKKKKACiiigAooooAKKKKACiiigAooooAKKKKACiiigAooooAKKKKACiiigAooooAKKKKACiiigAooooAKKKKACiiigAooooAKKKKACiiigAooooAKKKKACiiigAooooAKKKKACiiigAooooAKKKKACiiigAooooAKKKKACiiigAooooAKKKKACiiigAooooAKKKKACiiigAooooAKKKKACiiigAooooAKKKKACiiigAooooAKKKKACiiigAooooAKKKKACiiigAooooAKKKKAP//U/gXooooAKDyMUUUAFFFFABRRRQAUUUUAFFFFABRRRQAUUUUAFFFFABRRRQAUUUUAFFFFABRRRQAUUUUAFFFFABRRRQAUUUUAFFFFABRRRQAUUUUAFFFFABRRRQAUUUUAFFFFABRRRQAUUUUAFFFFABRRRQAUUUUAFFFFABRRRQAUUUUAFFFFABRRRQAUUUUAFFFFABRRRQAUUUUAFFFFABRRRQAUUUUAFFFFABRRRQAUUUUAFFFFABRRRQAUUUUAFFFFABRRRQAUUUUAFFFFABRRRQAUUUUAFFFFABRRRQAUUUUAFFFFABRRRQAUUUUAFFFFABRRRQAUUUUAFFFFABRRRQB//9X+BeiiigAooooAKKKKACiiigAooooAKKKKACiiigAooooAKKKKACiiigAooooAKKKKACiiigAooooAKKKKACiiigAooooAKKKKACiiigAooooAKKKKACiiigAooooAKKKKACiiigAooooAKKKKACiiigAooooAKKKKACiiigAooooAKKKKACiiigAooooAKKKKACiiigAooooAKKKKACiiigAooooAKKKKACiiigAooooAKKKKACiiigAooooAKKKKACiiigAooooAKKKKACiiigAooooAKKKKACiiigAooooAKKKKACiiigAooooAKKKKACiiigAooooAKKKKACiiigD/1v4F6KKKACiiigAooooAKKKKACiiigAooooAKKKKACiiigAooooAKKKKACiiigAooooAKKKKACiiigAooooAKKKKACiiigAooooAKKKKACiiigAooooAKKKKACiiigAooooAKKKKACiiigAooooAKKKKACiiigAooooAKKKKACiiigAooooAKKKKACiiigAooooAKKKKACiiigAooooAKKKKACiiigAooooAKKKKACiiigAooooAKKKKACiiigAooooAKKKKACiiigAooooAKKKKACiiigAooooAKKKKACiiigAooooAKKKKACiiigAooooAKKKKACiiigAooooAKKKKAP/Z;" vertex="1" parent="1">
          <mxGeometry x="388" y="590" width="54" height="54" as="geometry" />
        </mxCell>
        <mxCell id="bClpd55n1A1ZBGnzMknM-132" value="Text" style="text;html=1;strokeColor=none;fillColor=none;align=center;verticalAlign=middle;whiteSpace=wrap;rounded=0;labelBackgroundColor=#0085FC;labelBorderColor=default;fontSize=30;fontColor=#000000;direction=south;" vertex="1" parent="1">
          <mxGeometry x="445" y="725" width="30" height="60" as="geometry" />
        </mxCell>
      </root>
    </mxGraphModel>
  </diagram>
</mxfile>
